<svg xmlns="http://www.w3.org/2000/svg" width="846.139" height="283.6" filter="invert(93%) hue-rotate(180deg)"><path d="M178.9 10c86.07-1.75 172.57-1.95 248.67 0m0 0c20.63-.03 32.51 10.8 32 32m0 0c.04 53.47-2.94 105.36 0 193.89m0 0c-.41 20.2-11.61 30.84-32 32m0 0c-90.82 1.65-180.49 1.69-248.67 0m0 0c-21.28 1.73-33.8-11.11-32-32m0 0c2.67-41.93 1.84-84.81 0-193.89m0 0c.87-22.03 9.67-31.84 32-32" stroke="#1e1e1e" stroke-width="1.5" fill="none" stroke-dasharray="8 9" stroke-linecap="round"/><g stroke-linecap="round"><path d="M322.496 47.236c5.27 1.69 11.74 8.65 14.82 13.74 3.08 5.1 4.73 11.18 3.67 16.82-1.07 5.64-5.5 13.01-10.05 17.03-4.55 4.01-11.14 7.22-17.26 7.08-6.12-.14-14.63-3.99-19.43-7.92-4.79-3.93-8.42-9.99-9.34-15.65-.91-5.66.63-13.29 3.87-18.31 3.23-5.02 9.26-10.14 15.52-11.81s17.95 1.3 22.02 1.79 2.74.72 2.42 1.15m-10.66-4.15c5.82.14 13.3 3.41 17.28 7.79 3.98 4.38 6.43 12.36 6.62 18.47.18 6.11-1.6 13.75-5.49 18.2-3.89 4.46-11.72 7.55-17.85 8.52-6.14.98-13.85.01-18.94-2.67-5.09-2.69-9.64-7.87-11.59-13.43-1.96-5.56-1.72-14.19-.15-19.93 1.57-5.75 4.57-11.58 9.56-14.53 5-2.95 16.83-2.71 20.43-3.17 3.6-.46 1.37-.22 1.18.39" stroke-width="0" fill="#fff"/><path d="M323.316 47.846c5.33 1.28 10.41 6.58 13.58 11.7 3.17 5.12 6.16 13.26 5.44 19.02-.73 5.76-5.26 11.92-9.8 15.56-4.54 3.63-11.34 6.13-17.46 6.27-6.11.14-14.33-2.06-19.24-5.44-4.91-3.39-8.88-9.11-10.2-14.89-1.32-5.79-.64-14.57 2.26-19.81 2.9-5.23 8.3-9.99 15.14-11.61 6.84-1.61 20.76.66 25.9 1.9 5.13 1.24 5.32 5.28 4.9 5.56m-20.94-8.6c5.78.18 12.97 3.27 17.87 7.04 4.9 3.78 10.47 10.11 11.53 15.61 1.07 5.49-1.7 12.4-5.13 17.36-3.43 4.96-9.74 10.62-15.45 12.39-5.7 1.77-13.39.52-18.76-1.75-5.38-2.27-10.32-7-13.47-11.88-3.16-4.87-6.62-11.76-5.45-17.37 1.17-5.62 7.64-12.71 12.44-16.32 4.8-3.61 13.52-4.17 16.37-5.33 2.85-1.16.58-1.97.72-1.62" stroke="#1e1e1e" stroke-width="2" fill="none"/></g><g stroke-linecap="round"><path d="M224.754 115.743c5.81-1.18 14.63.41 19.98 3.29 5.34 2.87 10.04 8.51 12.09 13.96 2.04 5.45 2.41 13.29.18 18.73-2.24 5.43-8.08 11.12-13.59 13.89-5.51 2.77-13.58 3.71-19.46 2.73-5.88-.97-12.24-4.09-15.8-8.56-3.57-4.48-5.53-12.41-5.58-18.29-.05-5.87.93-12.72 5.28-16.97 4.35-4.26 16.55-7.07 20.82-8.56 4.26-1.49 4.52-.62 4.77-.39m-2.75.76c5.59-.36 11.72.69 16.15 3.94 4.43 3.25 9.08 9.66 10.41 15.57 1.34 5.91.39 14.34-2.39 19.88-2.77 5.54-8.37 11.29-14.26 13.38-5.88 2.09-15.11 1.48-21.07-.84-5.96-2.31-11.67-8.05-14.69-13.05-3.03-5-4.76-11.32-3.48-16.96 1.29-5.64 6.35-12.96 11.18-16.88 4.83-3.91 15.02-5.48 17.79-6.63 2.77-1.15-1.18-.82-1.17-.26" stroke-width="0" fill="#fa5252"/><path d="M238.004 115.203c5.77 1.11 13.06 6.82 16.41 11.66 3.35 4.85 4.48 11.49 3.69 17.41-.79 5.91-4.05 13.92-8.43 18.09-4.38 4.18-11.77 6.51-17.86 6.98-6.09.46-13.86-.82-18.67-4.21-4.8-3.38-8.78-10.48-10.15-16.1-1.37-5.62-.73-12.49 1.92-17.64 2.66-5.15 7.74-10.91 14.01-13.27 6.28-2.36 18.98-1.34 23.65-.88 4.67.45 4.64 3.03 4.37 3.62m-21.88-6.71c5.29-1.09 13.79.64 19.28 3.75 5.48 3.12 11.49 9.25 13.62 14.94 2.13 5.7 1.42 13.53-.84 19.21-2.26 5.67-7.26 11.74-12.72 14.83-5.46 3.09-13.96 4.96-20.03 3.7-6.07-1.26-12.67-6.37-16.39-11.29-3.72-4.91-6.25-12.11-5.91-18.22.35-6.1 3.77-13.9 7.99-18.39 4.21-4.48 14.76-7.49 17.31-8.51 2.56-1.01-1.63 1.82-1.97 2.42" stroke="#1e1e1e" stroke-width="2" fill="none"/></g><g stroke-linecap="round"><path d="M382.047 119.103c4.95-2.89 13.02-5.31 19.13-4.12 6.1 1.18 13.56 6.44 17.53 11.25 3.96 4.81 6.64 11.89 6.24 17.62-.4 5.72-4.52 12.42-8.65 16.71-4.14 4.29-10.1 8.07-16.14 9.02-6.05.95-15-.2-20.13-3.34-5.14-3.14-9.01-9.64-10.68-15.48-1.67-5.83-2-13.66.66-19.53 2.66-5.88 11.98-13.12 15.3-15.71 3.32-2.58 4.41-.37 4.61.21m16.6 1.52c5.41 1.77 10.61 7.1 13.33 11.88 2.73 4.79 4.04 11.17 3.02 16.84-1.03 5.66-4.39 13.14-9.17 17.13-4.78 3.99-13.31 6.53-19.49 6.82-6.19.29-13.36-1.04-17.62-5.06-4.25-4.02-6.75-13.11-7.91-19.06-1.16-5.94-2.11-11.88.96-16.62 3.08-4.74 11.64-9.47 17.49-11.8 5.86-2.33 14.75-2.06 17.66-2.17 2.92-.11.06.82-.16 1.51" stroke-width="0" fill="#fa5252"/><path d="M382.577 117.433c5.19-2.57 14.16-2.79 20.34-1.43 6.19 1.37 13.26 4.95 16.79 9.62 3.53 4.66 5.16 12.44 4.4 18.37-.77 5.93-4.7 12.8-8.98 17.19-4.28 4.39-10.7 8.46-16.68 9.15-5.98.69-14.14-1.51-19.21-5.03-5.08-3.51-9.55-10.41-11.25-16.07-1.69-5.66-2.92-12.36 1.05-17.88 3.98-5.52 17.57-12.8 22.81-15.23 5.24-2.44 8.76.46 8.65.63m-11.72-.36c5.22-2.04 12.78-2.66 18.34-.17 5.56 2.48 12.21 9.52 15.02 15.06 2.81 5.54 3.43 12.81 1.83 18.19-1.59 5.37-6.54 10.87-11.41 14.07-4.88 3.21-11.42 5.6-17.82 5.17-6.4-.43-16.09-3.57-20.58-7.75-4.48-4.17-6.23-11.6-6.32-17.3-.1-5.71 2.22-12.4 5.75-16.92 3.52-4.51 12.91-8.69 15.37-10.17 2.46-1.49-.81 1.05-.63 1.25" stroke="#1e1e1e" stroke-width="2" fill="none"/></g><g stroke-linecap="round"><path d="M185.644 188.675c5.72-1.3 12.88-.41 18.14 2.52 5.25 2.93 11.32 9.45 13.4 15.04 2.09 5.58 1.65 13.03-.88 18.49-2.53 5.45-8.79 11.3-14.28 14.23-5.49 2.94-12.91 4.36-18.66 3.37-5.76-.98-12.2-4.62-15.89-9.3-3.68-4.67-6.39-12.71-6.21-18.74.18-6.03 3.07-13.15 7.3-17.44 4.24-4.3 14.57-6.93 18.11-8.34 3.54-1.41 3.04-.46 3.13-.1m-.64-1.52c5.87-.22 14.59 3.44 19.02 7.42 4.44 3.98 6.61 10.97 7.57 16.45.96 5.48.82 11.35-1.78 16.43s-8.02 11.89-13.82 14.05c-5.79 2.17-15.24 1.01-20.95-1.06-5.71-2.08-10.2-6.58-13.3-11.38-3.09-4.79-5.86-12.01-5.25-17.39.6-5.39 4.07-11.27 8.89-14.93 4.81-3.66 16.84-5.63 19.98-7.03 3.13-1.4-.99-1.64-1.17-1.37" stroke-width="0" fill="#fff"/><path d="M201.294 191.135c5.09 2.14 10.5 7.44 12.92 12.69 2.43 5.25 2.99 13.19 1.63 18.82-1.36 5.63-4.76 11.53-9.81 14.95-5.06 3.41-14.39 5.94-20.52 5.54-6.13-.4-12.2-3.55-16.27-7.94-4.07-4.39-7.58-12.52-8.15-18.4-.57-5.88 1.22-12.15 4.75-16.88 3.54-4.74 9.73-10.52 16.46-11.53 6.73-1.01 19.54 4.04 23.93 5.47 4.39 1.42 2.94 3.02 2.42 3.08m-33.94-5.81c5.3-2.76 15.42-3.36 21.46-1.93 6.04 1.43 11.1 6.07 14.78 10.53 3.68 4.45 7.33 10.67 7.3 16.2-.04 5.53-3.11 12.58-7.5 16.96-4.4 4.38-12.7 8.62-18.87 9.32-6.18.7-13.22-1.91-18.18-5.11-4.95-3.19-9.99-8.9-11.57-14.06-1.59-5.15.01-11.33 2.06-16.86 2.06-5.52 8.2-14.08 10.26-16.29 2.06-2.21 1.53 2.51 2.1 3.03" stroke="#1e1e1e" stroke-width="2" fill="none"/></g><g stroke-linecap="round"><path d="M254.71 191.365c4.86-2.63 12.17-3.49 17.94-1.91 5.76 1.59 13.13 6.69 16.65 11.42 3.52 4.73 5.02 11.23 4.46 16.97-.56 5.74-3.44 13.34-7.84 17.46-4.4 4.13-12.29 6.89-18.55 7.29-6.26.4-14.08-1.57-19.03-4.88-4.95-3.32-9.2-9.25-10.68-15.01-1.48-5.75-1.26-14.07 1.81-19.53 3.07-5.45 13.54-10.89 16.61-13.22 3.07-2.32 1.86-1.1 1.8-.73m-.96.94c5.35-2.26 12.29-1.85 17.74-.02 5.45 1.82 11.68 5.69 14.94 10.97s5.74 14.76 4.63 20.72c-1.12 5.97-6.54 11.78-11.31 15.07-4.78 3.28-11.33 5.06-17.35 4.64-6.02-.41-14.16-3.31-18.76-7.13-4.6-3.83-7.81-10.32-8.86-15.82-1.06-5.51-.66-12.52 2.52-17.21 3.18-4.7 13.73-9.21 16.55-10.95 2.82-1.74.14.13.37.5" stroke-width="0" fill="#fff"/><path d="M279.36 190.895c5.15 2.44 9.51 8.94 11.79 14.27 2.29 5.34 3.76 12.09 1.92 17.75-1.84 5.67-7.65 13-12.96 16.25-5.32 3.24-12.98 4.17-18.91 3.24-5.94-.93-12.84-4.69-16.7-8.84-3.85-4.15-6.33-10.27-6.44-16.05-.1-5.79 2.31-13.88 5.81-18.67 3.49-4.79 9.04-8.89 15.16-10.09 6.12-1.19 17.85 2.09 21.59 2.92 3.73.84 1.21 1.7.82 2.1m-4.87-3.38c5.15 1.48 9.84 5.78 12.84 11.12 3.01 5.34 6.19 14.94 5.19 20.91-1 5.96-6.1 11.65-11.18 14.88-5.09 3.23-13.01 5-19.31 4.51-6.31-.5-13.82-3.6-18.52-7.49-4.71-3.89-9.14-10.36-9.72-15.85-.59-5.5 2.86-12.08 6.2-17.13 3.33-5.04 8.08-11.28 13.83-13.16 5.75-1.88 17.51 1.63 20.67 1.89 3.16.25-1.4-1.01-1.7-.38" stroke="#1e1e1e" stroke-width="2" fill="none"/></g><g stroke-linecap="round"><path d="M352.898 188.143c5.19-2.65 13.75-3.24 19.72-1.63 5.96 1.6 12.54 6.54 16.09 11.28 3.55 4.73 5.45 11.34 5.21 17.14-.25 5.81-2.5 13.52-6.68 17.7s-12.35 6.77-18.39 7.4c-6.04.63-12.69-.58-17.85-3.62-5.16-3.04-11.3-8.87-13.09-14.62-1.8-5.76-.77-14.39 2.32-19.92 3.1-5.53 13.31-10.92 16.25-13.29 2.94-2.37 1.42-1.08 1.4-.93m12.14-2.8c5.99-.12 13.74 3.57 17.57 7.93 3.83 4.36 5.16 12.09 5.41 18.22.25 6.13-.64 13.67-3.92 18.54-3.28 4.87-9.97 9.43-15.76 10.71-5.8 1.27-13.55-.17-19-3.06-5.45-2.89-11.17-8.82-13.72-14.27-2.54-5.46-3.16-13.2-1.56-18.46 1.61-5.26 6.38-9.87 11.21-13.11 4.84-3.24 14.72-5.55 17.81-6.34 3.08-.79.69 1.12.73 1.61" stroke-width="0" fill="#fff"/><path d="M359.708 186.403c5.41-1.53 13.8-.73 19.17 2.19 5.36 2.93 10.81 9.75 13.04 15.36 2.22 5.62 1.98 12.86.32 18.33-1.67 5.48-5.2 11.39-10.31 14.54-5.11 3.16-14.08 5.44-20.37 4.38-6.29-1.06-13.26-6.34-17.39-10.73-4.13-4.4-7.23-9.81-7.38-15.64-.16-5.82 1.76-14.38 6.47-19.31 4.71-4.93 17.36-8.76 21.8-10.27 4.43-1.5 4.96.69 4.79 1.26m-12.2-1.09c5.4-2.02 13.72-1.03 19.21 1.9 5.49 2.92 11.21 10.04 13.75 15.67 2.54 5.63 3.07 12.7 1.51 18.11-1.56 5.41-6.29 11.27-10.89 14.33-4.6 3.06-10.68 4.31-16.71 4.02-6.02-.3-14.71-1.57-19.44-5.8-4.73-4.23-8.67-13.73-8.93-19.6-.26-5.87 3.8-10.96 7.37-15.62 3.56-4.67 11.23-10.38 14.01-12.36 2.78-1.99 2.34-.13 2.67.46" stroke="#1e1e1e" stroke-width="2" fill="none"/></g><path d="M290.542 92.97c-6.16 5.17-30.71 25.95-37.15 31.05m35.61-31.67c-6.25 4.79-30.57 25.24-36.36 30.1M217.635 169.968c-2.51 3.72-12.75 18.26-15.23 22.1m14.72-22.45c-2.61 3.77-12.77 19.15-15.21 22.91M247.21 164.989c2.49 3.58 11.97 18.23 14.31 21.88m-14.81-20.81c2.42 3.64 11.66 17.91 14.27 21.49M376.652 168.055c-1.04 2.67-5.06 13.09-6.17 15.77m6.97-16.15c-1.06 2.77-5.93 14.25-7.25 16.84M335.53 93.973c5.99 5.63 28.32 29.42 34.22 35.05m-35.33-36.31c5.87 5.18 28.11 28.4 34.11 34.4" stroke="#1e1e1e" stroke-width="2" fill="none" stroke-linecap="round"/><text font-family="DejaVu Sans Mono, monospace" font-size="20" fill="#1e1e1e" style="white-space:pre" dominant-baseline="text-before-edge" transform="translate(159.453 24.835)">memtable</text><g mask="url(#mask-hbPALiGXePb-gpwwcLF-g)" stroke-linecap="round"><path d="M11.337 128.456c22.63-.03 113.14-.47 135.6-.24m-136.94-.33c22.57.06 114.03 1.6 136.61 1.63M123.037 137.826c8.66-.62 13.57-4.55 23.57-8.31m-23.57 8.31c9.11-2.97 18.01-5.54 23.57-8.31" stroke="#1e1e1e" fill="none"/><path d="M123.207 120.726c8.74 4.61 13.59 5.89 23.4 8.79m-23.4-8.79c9.22 3.79 18.04 7.98 23.4 8.79" stroke="#1e1e1e" fill="none"/></g><mask id="mask-hbPALiGXePb-gpwwcLF-g"><path fill="#fff" d="M0 0h245.759v228.677H0z"/><path d="M36.089 115.606h84.688v25H36.089z"/></mask><text x="42.344" font-family="DejaVu Sans Mono, monospace" font-size="20" fill="#1e1e1e" text-anchor="middle" style="white-space:pre" dominant-baseline="text-before-edge" transform="translate(36.09 115.606)"> append </text><g mask="url(#mask-IFkkXBWRG3S9A_lA-5Kh6)" stroke-linecap="round"><path d="M463.227 140.307c23.29.15 116.78.3 140.02.27m-138.27-1.26c23.17.41 114.53 2.55 137.29 2.88M578.617 150.287c6.19-1.98 12.24-5 23.65-8.09m-23.65 8.09c5.75-2.48 12.61-5.4 23.65-8.09" stroke="#1e1e1e" fill="none"/><path d="M578.947 133.187c6.03 2.34 12.01 3.64 23.32 9.01m-23.32-9.01c5.81 2.21 12.59 3.98 23.32 9.01" stroke="#1e1e1e" fill="none"/></g><mask id="mask-IFkkXBWRG3S9A_lA-5Kh6"><path fill="#fff" d="M0 0h703.314v240.424H0z"/><path d="M500.174 127.816h67.063v25h-67.063z"/></mask><text x="33.531" font-family="DejaVu Sans Mono, monospace" font-size="20" fill="#1e1e1e" text-anchor="middle" style="white-space:pre" dominant-baseline="text-before-edge" transform="translate(500.174 127.816)"> flush </text><g stroke-linecap="round"><path d="M737.624 162.91c26.93-.17 51.45.62 73.79 0 8.85-2.11 7.65 2.86 8.75 8.75-.55 4.02-2.82 9.77 0 17.5.85 8.94-3.9 7.91-8.75 8.75-11.97 1.59-33.55 3.23-73.79 0-2.39 2.4-5.36-1.84-8.75-8.75 2.49-2.37-.76-9.99 0-17.5 3.28-8.77.45-11.1 8.75-8.75" stroke-width="0" fill="#40c057"/><path d="M737.624 162.91c18.39 2.69 38.61.69 73.79 0m-73.79 0c24.07.36 47.47.1 73.79 0m0 0c6.47 1.23 9.01 1.62 8.75 8.75m-8.75-8.75c3.67 2.05 6.99 2.32 8.75 8.75m0 0c-.44 2.54-.59 7.05 0 17.5m0-17.5c-.52 3.06.49 7.36 0 17.5m0 0c.87 7.81-4.33 9.09-8.75 8.75m8.75-8.75c.75 7.45-1.47 7.96-8.75 8.75m0 0c-28.33-2.04-55.2 1.41-73.79 0m73.79 0c-26.03-.05-50.65 1.53-73.79 0m0 0c-7.54 1.48-7.37-4.33-8.75-8.75m8.75 8.75c-5.67.7-9.3-4.09-8.75-8.75m0 0c-1.28-5.66 1.65-10.2 0-17.5m0 17.5c.58-5.19.63-9.84 0-17.5m0 0c-1.71-5.3 1.08-9.91 8.75-8.75m-8.75 8.75c1.41-4.15 5.16-9.52 8.75-8.75" stroke="#1e1e1e" fill="none"/></g><text x="6.177" font-family="DejaVu Sans Mono, monospace" font-size="20" fill="#1e1e1e" text-anchor="middle" style="white-space:pre" dominant-baseline="text-before-edge" transform="translate(768.342 167.91)">5</text><path d="M642.72 161.77c14.15.76 27.27.21 67.33 0m-67.33 0c23.29.63 48.96.29 67.33 0m0 0c5.43-.86 7.72 4.93 9.12 9.13m-9.12-9.13c7.21.58 8.2 3.36 9.12 9.13m0 0c1.43 6.39.16 12.25 0 18.26m0-18.26c-.58 4.43.78 9.19 0 18.26m0 0c1.67 4.41-1.82 8.22-9.12 9.13m9.12-9.13c-2 5.52-2.94 9.45-9.12 9.13m0 0c-21.81-.83-48.12-.65-67.33 0m67.33 0c-18.77-1.2-37.43-.1-67.33 0m0 0c-6.54 1.55-8.13-2.21-9.13-9.13m9.13 9.13c-4.85.1-8.56-1.14-9.13-9.13m0 0c1.86-5.07-.65-14.63 0-18.26m0 18.26c.56-7.28.22-13.48 0-18.26m0 0c-.1-4.35 3.25-8.68 9.13-9.13m-9.13 9.13c-.02-8.28.97-10.52 9.13-9.13" stroke="#1e1e1e" fill="none" stroke-linecap="round"/><text x="6.396" font-family="DejaVu Sans Mono, monospace" font-size="20" fill="#1e1e1e" text-anchor="middle" style="white-space:pre" dominant-baseline="text-before-edge" transform="translate(669.986 167.528)">4</text><path d="M646.143 213.12c52.67.5 106.95-.88 164.32 0m-164.32 0c49.02 1.4 98.65.62 164.32 0m0 0c6.42.79 8.69 4.68 9.13 9.13m-9.13-9.13c5.58.55 9.47 1.58 9.13 9.13m0 0c-.15 5.13-.23 10.01 0 18.26m0-18.26c-.45 3.76-.22 7.62 0 18.26m0 0c.82 6.94-4.44 9.7-9.13 9.13m9.13-9.13c-2.01 6.58-5.22 10.87-9.13 9.13m0 0c-39.7-3.16-77-.07-164.32 0m164.32 0c-47.12-.02-94.69-1.35-164.32 0m0 0c-6.12 1.74-10.66-2.45-9.13-9.13m9.13 9.13c-6.09 1.22-9.09-5.28-9.13-9.13m0 0c1.62-5.48.21-7.1 0-18.26m0 18.26c.06-6.09.39-11.57 0-18.26m0 0c-.13-4.81 1.43-10.89 9.13-9.13m-9.13 9.13c-2.26-6.51 3.38-10.94 9.13-9.13" stroke="#1e1e1e" fill="none" stroke-linecap="round"/><text x="6.813" font-family="DejaVu Sans Mono, monospace" font-size="20" fill="#1e1e1e" text-anchor="middle" style="white-space:pre" dominant-baseline="text-before-edge" transform="translate(721.49 218.878)">3</text><path d="M645.62 13.423c59.46-2.89 116.55-1.68 158.52 0m0 0c19.65.91 32.54 8.89 32 32m0 0c-1.28 46.84 1.49 89.69 0 196.18m0 0c-.05 20.37-11.96 31.13-32 32m0 0c-61.71-.96-118.61-1.22-158.52 0m0 0c-22.99.05-32.76-9.05-32-32m0 0c-.15-44.56.87-84.47 0-196.18m0 0c1.75-21.21 11.46-32.83 32-32" stroke="#1e1e1e" stroke-width="1.5" fill="none" stroke-dasharray="8 9" stroke-linecap="round"/><text font-family="DejaVu Sans Mono, monospace" font-size="20" fill="#1e1e1e" style="white-space:pre" dominant-baseline="text-before-edge" transform="translate(632.757 24.887)">sstables</text></svg>
