<svg xmlns="http://www.w3.org/2000/svg" width="811.94" height="244.231" filter="invert(93%) hue-rotate(180deg)"><path d="M128.107 124.112c22.08.74 46.86.53 58.2 0m-58.2 0c22.6 1 44.54.54 58.2 0m0 0c7.67.53 8.19 1.39 9.13 9.13m-9.13-9.13c8.28-.63 9.7 2.59 9.13 9.13m0 0c-.48 3.49-1.61 7.86 0 18.26m0-18.26c-.87 4.39-.89 7.94 0 18.26m0 0c.35 7.64-2.6 8.97-9.13 9.13m9.13-9.13c.62 4.58-4.13 7.19-9.13 9.13m0 0c-14.39.09-26.77.65-58.2 0m58.2 0c-16.78-.55-34.96.72-58.2 0m0 0c-4.25.79-10.31-3.84-9.13-9.13m9.13 9.13c-3.94.21-9.56-1.68-9.13-9.13m0 0c-.97-7.15.12-13.25 0-18.26m0 18.26c-.08-5.36-.87-9.04 0-18.26m0 0c.71-5.66 3.94-7.86 9.13-9.13m-9.13 9.13c-1.46-7.95 4.48-7.73 9.13-9.13" stroke="#1e1e1e" fill="none" stroke-linecap="round"/><text x="6.177" font-family="DejaVu Sans Mono, monospace" font-size="20" fill="#1e1e1e" text-anchor="middle" style="white-space:pre" dominant-baseline="text-before-edge" transform="translate(151.028 129.87)">5</text><path d="M33.965 124.112c19.83 1.03 35.88.07 58.2 0m-58.2 0c23.63 0 45.21-1.09 58.2 0m0 0c8-.55 9.63 2.65 9.13 9.13m-9.13-9.13c4.44-1.58 10.23 2.61 9.13 9.13m0 0c-1.38 4.58 1.15 7.89 0 18.26m0-18.26c-.02 6.47.03 11.45 0 18.26m0 0c.54 4.78-3.99 7.44-9.13 9.13m9.13-9.13c-1.9 7.65-4.88 7.13-9.13 9.13m0 0c-18.98-.57-37.6 2.27-58.2 0m58.2 0c-12.41.72-27.26-.08-58.2 0m0 0c-4.22.19-9.5-1.85-9.13-9.13m9.13 9.13c-4.63-1.68-8.99-4.44-9.13-9.13m0 0c-.88-3.2.9-9.75 0-18.26m0 18.26c.46-3.77.55-7.34 0-18.26m0 0c-1.27-7.71 4.29-7.91 9.13-9.13m-9.13 9.13c-1.6-5.38 5-11.38 9.13-9.13" stroke="#1e1e1e" fill="none" stroke-linecap="round"/><text x="6.396" font-family="DejaVu Sans Mono, monospace" font-size="20" fill="#1e1e1e" text-anchor="middle" style="white-space:pre" dominant-baseline="text-before-edge" transform="translate(56.666 129.87)">4</text><path d="M34.816 174.322c45.78-.72 93.94-1.99 153.48 0m-153.48 0c52.63-1.23 107.15-.68 153.48 0m0 0c6.4-.39 7.42 1.57 8.85 8.84m-8.85-8.84c7.01-.44 7.98 1.09 8.85 8.84m0 0c1.14 3.2.16 7.99 0 17.69m0-17.69c.23 4.17.27 7.9 0 17.69m0 0c-.94 4.21-4.6 10.21-8.85 8.84m8.85-8.84c-1.83 3.9-2.31 7.17-8.85 8.84m0 0c-54.05 1.28-110.65.44-153.48 0m153.48 0c-55.2.22-108.29.71-153.48 0m0 0c-6.26 1.2-7.58-4.4-8.84-8.84m8.84 8.84c-5.75-1.39-9.49-2.96-8.84-8.84m0 0c.96-5.14-1.38-12 0-17.69m0 17.69c.34-5.06-.63-11.97 0-17.69m0 0c1.25-4.67 1.56-8.22 8.84-8.84m-8.84 8.84c1.95-8.14 5.09-7.78 8.84-8.84" stroke="#1e1e1e" fill="none" stroke-linecap="round"/><text x="6.813" font-family="DejaVu Sans Mono, monospace" font-size="20" fill="#1e1e1e" text-anchor="middle" style="white-space:pre" dominant-baseline="text-before-edge" transform="translate(104.748 179.51)">3</text><g mask="url(#mask-t2noIUNwnkmAO1fGDsX2G)" stroke-linecap="round"><path d="M225.612 121.519c26.89.39 133.6 1.21 160.16 1.6m-161.35-2.78c26.77.09 133.13.49 160.28.76" stroke="#1e1e1e" fill="none"/><path d="M361.152 129.499c5.42-2.54 11.94-5.95 23.55-8.4m-23.55 8.4c9.78-4.06 18.2-5.44 23.55-8.4" stroke="#1e1e1e" fill="none"/><path d="M361.262 112.399c5.25 1.65 11.74 2.43 23.44 8.7m-23.44-8.7c9.61 2.36 17.98 7.4 23.44 8.7" stroke="#1e1e1e" fill="none"/></g><mask id="mask-t2noIUNwnkmAO1fGDsX2G"><path fill="#fff" d="M0 0h486v222.916H0z"/><path d="M256.395 109.842h98.313v25h-98.313z"/></mask><text x="49.156" font-family="DejaVu Sans Mono, monospace" font-size="20" fill="#1e1e1e" text-anchor="middle" style="white-space:pre" dominant-baseline="text-before-edge" transform="translate(256.395 109.842)"> compact </text><path d="M435.92 171.47c126.19.61 252.76 1.24 321.23 0m-321.23 0c82.3.61 164.02.45 321.23 0m0 0c6.38-.58 8.84 3.34 9.99 9.98m-9.99-9.98c6.49.32 8.77 4.86 9.99 9.98m0 0c.72 5.57-.66 7.09 0 19.97m0-19.97c-.12 5.97.57 12.23 0 19.97m0 0c.37 5.24-2.58 10.19-9.99 9.99m9.99-9.99c.48 7.9-5.03 12.12-9.99 9.99m0 0c-77.8-1.3-152.04-1.3-321.23 0m321.23 0c-111.61 2-222.89 1.29-321.23 0m0 0c-6.32-.83-8.98-4.91-9.98-9.99m9.98 9.99c-5.01-.48-7.82-3.7-9.98-9.99m0 0c1.4-6.76 1.68-11.47 0-19.97m0 19.97c-.68-5.58 1.06-9.72 0-19.97m0 0c-1.98-6.46 5.27-11.54 9.98-9.98m-9.98 9.98c-.89-7.46 2.65-11.17 9.98-9.98" stroke="#1e1e1e" fill="none" stroke-linecap="round"/><text x="6.396" font-family="DejaVu Sans Mono, monospace" font-size="20" fill="#1e1e1e" text-anchor="middle" style="white-space:pre" dominant-baseline="text-before-edge" transform="translate(590.142 178.939)">6</text><path d="M42 10c43.5 1.55 88.49 1.13 147.11 0m0 0c20.31 1.94 31.7 11.97 32 32m0 0c.71 31.05-.9 65.31 0 156.24m0 0c.87 23.16-12.25 33.5-32 32m0 0c-58.97-.95-114.51.39-147.11 0m0 0c-20.78-.29-33.92-9.15-32-32m0 0C7.74 165.69 8.58 132.51 10 42m0 0C8.26 20.52 20.03 11.18 42 10" stroke="#1e1e1e" stroke-width="1.5" fill="none" stroke-dasharray="8 9" stroke-linecap="round"/><text font-family="DejaVu Sans Mono, monospace" font-size="20" fill="#1e1e1e" style="white-space:pre" dominant-baseline="text-before-edge" transform="translate(25.856 19.181)">sstables</text><path d="M426.559 12.853c122.54 3.42 244.46.93 343.38 0m0 0c21.56.98 31.65 11.42 32 32m0 0c2.98 61.96 2.97 120.03 0 157.38m0 0c1.68 19.84-12.21 30.29-32 32m0 0c-119.49.43-237.57-.95-343.38 0m0 0c-19.35.92-33.95-10.84-32-32m0 0c-1.13-54.39 1.42-110.58 0-157.38m0 0c-1.02-21.43 9.96-31.7 32-32" stroke="#1e1e1e" stroke-width="1.5" fill="none" stroke-dasharray="8 9" stroke-linecap="round"/><text font-family="DejaVu Sans Mono, monospace" font-size="20" fill="#1e1e1e" style="white-space:pre" dominant-baseline="text-before-edge" transform="translate(411.556 22.605)">sstables</text></svg>
