<svg xmlns="http://www.w3.org/2000/svg" width="861.027" height="283.6" filter="invert(93%) hue-rotate(180deg)"><path d="M193.788 10c90.96 2.69 182.72 2.92 248.67 0m0 0c21.54.05 32.39 8.95 32 32m0 0c2.56 50.7 1.28 105.73 0 193.89m0 0c-.79 21.95-9.26 32.94-32 32m0 0c-74.29-1.82-150.01-1.06-248.67 0m0 0c-21.57-.54-30.67-10.37-32-32m0 0c1.2-61.64-1.46-122.43 0-193.89m0 0c1.97-20.42 9.43-30.09 32-32" stroke="#1e1e1e" stroke-width="1.5" fill="none" stroke-dasharray="8 9" stroke-linecap="round"/><g stroke-linecap="round"><path d="M341.374 49.586c5.4 2.23 11.27 7.64 13.69 12.89 2.42 5.25 2.7 12.91.83 18.62-1.88 5.71-6.91 12.17-12.09 15.63-5.18 3.47-13.03 5.87-18.99 5.14-5.96-.73-12.68-5.22-16.77-9.52-4.08-4.29-7.37-10.54-7.74-16.23-.37-5.69 2.02-13.03 5.53-17.9 3.52-4.87 9.37-10.2 15.55-11.33 6.18-1.13 17.69 3.74 21.54 4.57 3.85.83 1.9.24 1.55.39m-11.57-6.06c5.86 1.05 13.97 7.01 17.78 11.89 3.81 4.88 5.24 11.51 5.05 17.39-.19 5.88-2.65 13.6-6.19 17.9-3.55 4.29-9.33 7.05-15.07 7.88-5.74.84-13.91-.12-19.38-2.87-5.47-2.74-11.37-8.2-13.42-13.59-2.06-5.4-1.1-13.14 1.07-18.79 2.18-5.66 6.83-11.96 11.97-15.13 5.14-3.17 15.79-3.67 18.87-3.91 3.08-.25-.26 1.73-.39 2.44" stroke-width="0" fill="#fff"/><path d="M339.954 47.926c5.41 1.95 10.9 8.54 13.67 14.09 2.76 5.55 4.44 13.53 2.92 19.23-1.51 5.7-7.11 11.71-12.01 14.98-4.9 3.27-11.46 4.91-17.37 4.62-5.92-.3-13.66-2.4-18.1-6.37-4.44-3.97-7.9-11.39-8.55-17.45-.65-6.05 1.27-13.94 4.65-18.89 3.37-4.94 9.66-9.33 15.6-10.79 5.94-1.46 16.63 1.61 20.06 2.03 3.42.43.59.11.49.51m-9.67-3.11c5.63.14 11.18 4.56 15.63 8.83 4.44 4.27 10.46 10.86 11.03 16.79.58 5.94-3.86 14.31-7.59 18.81-3.74 4.49-9.09 6.86-14.81 8.17-5.71 1.31-13.77 1.84-19.5-.29s-12.14-7.04-14.88-12.5c-2.74-5.45-3.31-14.49-1.57-20.24 1.75-5.75 6.7-11.07 12.03-14.27 5.33-3.2 16.74-4.04 19.94-4.92 3.2-.89-.5-.62-.73-.4" stroke="#1e1e1e" stroke-width="2" fill="none"/></g><g stroke-linecap="round"><path d="M234.302 116.533c5.21-2.66 13.5-2.92 19.24-1.13 5.75 1.8 11.96 6.71 15.25 11.88 3.28 5.16 5.07 13.32 4.45 19.12-.62 5.8-3.8 11.66-8.16 15.66s-11.88 7.87-18.02 8.36c-6.14.5-13.76-1.69-18.8-5.39-5.05-3.69-9.99-11.09-11.47-16.77-1.48-5.67-1.18-11.78 2.59-17.28 3.77-5.49 15.81-13.05 20.02-15.7 4.22-2.66 5.06-.7 5.25-.24m-9.38 2.85c5.23-1.94 12.44-2.45 18.09-.5 5.64 1.96 12.21 7.35 15.76 12.24 3.55 4.89 6.25 11.44 5.55 17.11-.71 5.67-4.92 12.84-9.76 16.91-4.85 4.06-13.16 7.28-19.31 7.49-6.14.2-12.83-2.38-17.54-6.26-4.7-3.88-9.37-10.96-10.69-17.02-1.32-6.06-.09-14.4 2.79-19.34 2.89-4.94 12.06-8.62 14.52-10.31 2.46-1.69.17.18.26.14" stroke-width="0" fill="#fa5252"/><path d="M245.112 115.323c5.85.02 14.43 3.4 18.98 7.22 4.55 3.82 7.31 10.13 8.32 15.69 1.01 5.57.65 12.59-2.28 17.7-2.92 5.12-9.51 10.97-15.29 12.98-5.77 2.01-13.67 1.4-19.35-.9-5.67-2.29-11.71-7.71-14.71-12.87-2.99-5.17-4.3-12.5-3.25-18.13 1.05-5.64 3.99-12.04 9.55-15.66 5.56-3.61 18.86-5.46 23.81-6.04 4.96-.58 5.99 2.11 5.94 2.56m-2.13.17c5.65 1.93 14.35 7.19 17.23 12.49 2.88 5.3 1.59 13.89.05 19.32-1.54 5.44-4.63 9.91-9.3 13.29-4.67 3.39-12.41 6.92-18.72 7.03-6.32.1-14.49-2.3-19.17-6.41-4.69-4.11-8.29-12.31-8.94-18.23-.65-5.91 1.43-12.47 5.04-17.27 3.61-4.8 10.69-9.61 16.6-11.54 5.9-1.93 15.78-.03 18.81-.03 3.03 0-.58-.3-.62.02" stroke="#1e1e1e" stroke-width="2" fill="none"/></g><g stroke-linecap="round"><path d="M412.435 114.283c5.72.07 13.15 3.79 17.53 8.08 4.38 4.28 7.94 11.83 8.75 17.63.82 5.8-.6 12.28-3.87 17.17-3.27 4.89-9.85 10.31-15.74 12.16-5.89 1.85-13.84 1.43-19.61-1.07-5.76-2.51-12.15-8.75-14.97-13.96-2.83-5.21-3.45-11.6-1.98-17.29 1.48-5.68 5.53-13.14 10.82-16.84 5.29-3.69 16.78-4.67 20.93-5.31 4.15-.64 4.02 1.01 3.97 1.46m-20.03 1.71c5.08-2.48 13.88-2.17 20.16-.61 6.28 1.56 13.9 5.18 17.52 9.98 3.62 4.8 5.14 12.77 4.18 18.83-.95 6.07-5.41 13.44-9.91 17.57-4.5 4.14-11.01 7.11-17.1 7.26-6.08.14-14.33-2.57-19.39-6.4-5.07-3.82-9.52-11.02-11-16.57-1.48-5.54-.64-11.72 2.1-16.69 2.74-4.97 12-10.63 14.34-13.14 2.33-2.5-.34-2-.34-1.88" stroke-width="0" fill="#fa5252"/><path d="M399.075 118.433c5.03-2.65 12.29-3.49 18.2-2.16s13.59 5.24 17.25 10.13c3.67 4.89 5.31 13.31 4.74 19.22-.58 5.92-3.89 12.35-8.2 16.25-4.3 3.9-11.55 6.72-17.64 7.14-6.09.42-13.84-1.35-18.9-4.61-5.07-3.25-9.85-9.27-11.49-14.94-1.65-5.68-1.82-13.53 1.62-19.09 3.43-5.56 15.14-11.77 18.99-14.26 3.85-2.49 3.96-1.14 4.11-.66m5.63.25c5.91 0 11.29 4.28 15.59 7.98 4.3 3.69 9.24 8.53 10.21 14.19.97 5.66-.87 14.43-4.38 19.75-3.52 5.32-10.67 10.57-16.71 12.19-6.03 1.62-13.98-.1-19.5-2.46-5.51-2.36-11.11-6.63-13.61-11.72-2.51-5.08-2.82-12.87-1.41-18.78 1.4-5.92 5.18-12.91 9.87-16.7 4.68-3.79 14.99-5.11 18.24-6.05 3.24-.95.97-.25 1.22.4" stroke="#1e1e1e" stroke-width="2" fill="none"/></g><g stroke-linecap="round"><path d="M194.542 189.405c5.31-1.89 13.7-.87 19.52 1.21 5.81 2.07 12.31 6.11 15.37 11.23 3.06 5.12 4.18 13.56 2.98 19.49-1.2 5.94-5.28 12.58-10.18 16.09-4.9 3.52-13.04 5.08-19.24 5.01-6.2-.06-13.39-1.56-17.95-5.39-4.55-3.83-8.32-11.54-9.38-17.58-1.06-6.04-1.12-13.43 3.02-18.66 4.14-5.23 17.43-10.58 21.8-12.69 4.37-2.12 4.55-.51 4.42 0m9.29 3.13c5.96 1.61 13.28 6.17 16.44 11.23 3.16 5.06 3.99 13.15 2.51 19.14-1.48 5.98-6.54 13.01-11.39 16.76-4.84 3.75-11.6 6.09-17.69 5.73-6.09-.37-14.1-3.71-18.83-7.93-4.73-4.22-8.57-11.76-9.53-17.4-.96-5.64.57-11.7 3.77-16.42 3.21-4.72 9.71-9.63 15.44-11.9 5.73-2.27 15.92-1.62 18.94-1.73 3.03-.11-.99.69-.79 1.1" stroke-width="0" fill="#fff"/><path d="M208.002 188.725c5.8.37 14.14 4.03 18.28 8.58 4.14 4.54 6.54 12.73 6.56 18.67.02 5.94-2.56 12.66-6.42 16.95-3.87 4.29-10.75 7.78-16.76 8.77-6.01 1-13.93-.04-19.32-2.81-5.39-2.77-10.79-8.33-13.01-13.83-2.22-5.5-2.46-13.64-.3-19.17 2.16-5.52 7.58-11.11 13.26-13.99 5.69-2.88 16.97-3.03 20.87-3.29 3.9-.26 2.65 1.4 2.52 1.72m-1.95.41c5.45 1.07 13.25 4.19 16.71 8.99 3.47 4.79 5.12 13.57 4.09 19.77-1.02 6.21-5.52 13.61-10.23 17.44-4.72 3.83-12.07 5.41-18.06 5.55-5.99.15-13.33-1.23-17.87-4.68-4.55-3.46-8.14-10.11-9.39-16.04-1.24-5.92-.73-14.07 1.93-19.5 2.66-5.44 8.23-10.77 14.03-13.11 5.79-2.34 17.25-1.06 20.75-.91 3.49.14.72 1.15.21 1.79" stroke="#1e1e1e" stroke-width="2" fill="none"/></g><g stroke-linecap="round"><path d="M269.857 190.685c5.38-2.39 14.26-3.38 20.15-1.53 5.89 1.86 12.03 7.49 15.19 12.67 3.15 5.17 4.81 12.76 3.75 18.39-1.06 5.63-5.45 11.44-10.12 15.37-4.67 3.92-11.84 8-17.89 8.17-6.05.17-13.53-3.25-18.42-7.15-4.88-3.9-9.76-10.51-10.89-16.25-1.12-5.75.67-12.88 4.15-18.2 3.48-5.32 13.4-11.55 16.75-13.74 3.34-2.2 2.95.17 3.32.56m14.19.1c5.95 1.14 12.31 6.61 15.47 11.75s4.22 13.13 3.49 19.1c-.73 5.97-3.45 12.82-7.86 16.7-4.42 3.87-12.36 6.48-18.65 6.54-6.29.06-14.06-2.88-19.08-6.2-5.02-3.32-9.58-8.28-11.04-13.74-1.45-5.45-.36-13.27 2.3-18.98 2.65-5.7 8.19-12.63 13.61-15.26 5.42-2.63 15.3-.41 18.89-.53 3.59-.12 2.78-.82 2.65-.18" stroke-width="0" fill="#fff"/><path d="M294.047 190.665c5.51 2.31 10.68 9.38 13.04 14.86 2.35 5.48 2.86 12.65 1.09 18.03-1.78 5.38-6.59 11.12-11.73 14.23-5.14 3.12-12.97 5.09-19.12 4.48-6.14-.6-13.49-3.81-17.74-8.12-4.24-4.3-7.55-11.85-7.74-17.71-.19-5.87 2.83-12.81 6.58-17.47 3.76-4.67 9.13-9.78 15.94-10.51 6.81-.74 20.26 4.57 24.92 6.09 4.66 1.53 3.37 2.6 3.04 3.05m-15.04-9.89c5.93.76 12.8 6.63 16.26 11.72 3.45 5.08 5.01 13.03 4.48 18.77-.54 5.74-3.62 11.47-7.68 15.66-4.06 4.18-10.92 8.62-16.69 9.46-5.77.83-12.89-1.07-17.95-4.47-5.05-3.4-10.43-10.08-12.38-15.93-1.95-5.85-1.87-13.69.68-19.19 2.54-5.51 8.87-11.36 14.6-13.82 5.72-2.46 16.92-.88 19.75-.96 2.84-.09-2.43-.05-2.75.47" stroke="#1e1e1e" stroke-width="2" fill="none"/></g><g stroke-linecap="round"><path d="M379.856 185.493c5.88-.66 13.74 2.76 18.59 6.46 4.84 3.71 9.28 10.2 10.5 15.75 1.23 5.54-.3 12.23-3.16 17.5-2.86 5.27-8.43 11.79-14 14.1-5.57 2.32-13.46 1.75-19.41-.21-5.95-1.96-13.05-6.63-16.29-11.54-3.24-4.91-3.92-12.1-3.15-17.93.77-5.82 3.07-13.07 7.77-17.02 4.69-3.96 16.33-5.54 20.4-6.69 4.07-1.15 3.81-.58 4.02-.21m8.38 2.81c5.26 2.15 10.41 8.4 13.1 13.79 2.7 5.39 4.48 13.01 3.07 18.55-1.41 5.55-6.41 11.52-11.52 14.71-5.1 3.2-12.88 4.65-19.09 4.46-6.21-.18-13.71-1.79-18.18-5.58-4.47-3.78-7.86-10.85-8.64-17.14-.77-6.29.82-15.41 4.01-20.6 3.18-5.19 8.87-8.86 15.11-10.54 6.23-1.69 19.07-.04 22.28.45 3.21.48-2.61 1.75-3.03 2.46" stroke-width="0" fill="#fff"/><path d="M385.626 186.773c5.79.59 13.18 4.18 17.24 8.38 4.06 4.2 6.99 11 7.1 16.81.12 5.82-2.49 13.37-6.42 18.07-3.92 4.7-11.01 9-17.11 10.13-6.1 1.13-14.23-.51-19.48-3.35s-9.89-8.24-12.03-13.71c-2.14-5.47-2.84-13.6-.83-19.11 2-5.51 7.36-10.87 12.87-13.96 5.51-3.1 16.46-4.32 20.17-4.61 3.7-.29 2.1 2.38 2.06 2.88m5.02.92c5.12 2.63 9.9 9.32 12.06 14.61 2.16 5.3 2.61 11.64.92 17.15-1.7 5.5-6.26 12.6-11.11 15.9-4.84 3.3-11.98 4.85-17.98 3.92-6-.94-13.69-4.98-18.02-9.53-4.32-4.55-7.78-11.8-7.93-17.77-.14-5.97 3.08-13.56 7.05-18.04 3.98-4.48 11.22-7.76 16.81-8.85 5.59-1.09 13.76 1.76 16.73 2.31 2.98.56 1.31.57 1.13 1" stroke="#1e1e1e" stroke-width="2" fill="none"/></g><path d="M305.94 92.77c-6.54 5.36-32.3 25.44-38.5 30.56m37.24-31.29c-6.84 5.07-32.4 24.46-38.44 29.36M232.013 169.878c-2.43 3.8-11.79 19.08-14.23 22.91m15.12-23.3c-2.49 3.61-12.71 18.73-15.35 22.47M262.178 165.499c2.51 3.63 12.11 18.12 14.46 21.73m-14.93-22.08c2.46 3.47 11.88 17.76 14.5 21.27M391.94 168.165c-1.26 2.66-6.05 13.31-7.22 15.93m6.56-16.25c-1.12 2.48-4.37 12.64-5.51 15.42M348.988 94.963c5.83 5.61 29.74 28.18 35.8 33.76m-34.01-34.5c5.64 5.76 27.22 30.17 32.87 36.09" stroke="#1e1e1e" stroke-width="2" fill="none" stroke-linecap="round"/><text font-family="DejaVu Sans Mono, monospace" font-size="20" fill="#1e1e1e" style="white-space:pre" dominant-baseline="text-before-edge" transform="translate(174.34 24.835)">memtable</text><g mask="url(#mask-iRBsnnBoh9DBpH_yrWFHi)" stroke-linecap="round"><path d="M11.36 128.537c24.92.11 124.05.88 148.96.94M10 127.407c24.77-.22 124.18-.12 149.2.37" stroke="#1e1e1e" fill="none"/><path d="M135.64 136.117c6.11-2.83 14.05-4.25 23.56-8.34m-23.56 8.34c7.9-2.75 14.09-4.89 23.56-8.34" stroke="#1e1e1e" fill="none"/><path d="M135.79 119.017c6.09 1.79 13.99 4.99 23.41 8.76m-23.41-8.76c7.82 2.7 13.95 6.02 23.41 8.76" stroke="#1e1e1e" fill="none"/></g><mask id="mask-iRBsnnBoh9DBpH_yrWFHi"><path fill="#fff" d="M0 0h260.647v228.677H0z"/><path d="M38.58 116.177h94.646v25H38.58z"/></mask><text x="47.323" font-family="DejaVu Sans Mono, monospace" font-size="20" fill="#1e1e1e" text-anchor="middle" style="white-space:pre" dominant-baseline="text-before-edge" transform="translate(38.58 116.177)"> memory? </text><g mask="url(#mask-sAYigTynMQUVbSWMNlF_-)" stroke-linecap="round"><path d="M479.164 140.437c23.21.06 115.51.92 138.75.94m-140.12-1.87c23.06-.33 115.64-.15 139.03.25" stroke="#1e1e1e" fill="none"/><path d="M593.264 148.117c6.75-2.79 14.39-3.86 23.56-8.36m-23.56 8.36c8.36-2.28 14.04-4.37 23.56-8.36M593.404 131.017c6.83 1.88 14.43 5.48 23.42 8.74m-23.42-8.74c8.15 3.02 13.79 6.22 23.42 8.74" stroke="#1e1e1e" fill="none"/></g><mask id="mask-sAYigTynMQUVbSWMNlF_-"><path fill="#fff" d="M0 0h718.202v240.424H0z"/><path d="M515.76 127.816h65.667v25H515.76z"/></mask><text x="32.833" font-family="DejaVu Sans Mono, monospace" font-size="20" fill="#1e1e1e" text-anchor="middle" style="white-space:pre" dominant-baseline="text-before-edge" transform="translate(515.76 127.816)"> disk? </text><path d="M751.37 162.91c20.59-2.19 42.03 1.7 73.79 0m-73.79 0c25.74-1.39 51.21-.41 73.79 0m0 0c4.6 1.72 7.51 2.55 8.75 8.75m-8.75-8.75c5.51 1.1 10.04 3.7 8.75 8.75m0 0c-1.12 6.64-1.29 12.53 0 17.5m0-17.5c-.04 5.88-.72 11.16 0 17.5m0 0c-1.5 5.47-3.13 8.4-8.75 8.75m8.75-8.75c1.79 6.92-3.56 9.66-8.75 8.75m0 0c-28.44-.14-55.28 2.5-73.79 0m73.79 0c-21.36-.28-41.9-1.37-73.79 0m0 0c-6.82-1.6-8.43-1.38-8.75-8.75m8.75 8.75c-7.64 1.33-9.53-1.03-8.75-8.75m0 0c.6-6.7 1.63-12.6 0-17.5m0 17.5c-.07-7.05-.24-12.75 0-17.5m0 0c-.39-4.37 1.78-10.47 8.75-8.75m-8.75 8.75c-2.2-6.9 5.02-10.9 8.75-8.75" stroke="#1e1e1e" fill="none" stroke-linecap="round"/><text x="13.781" font-family="DejaVu Sans Mono, monospace" font-size="20" fill="#1e1e1e" text-anchor="middle" style="white-space:pre" dominant-baseline="text-before-edge" transform="translate(774.484 167.91)">1st</text><path d="M656.466 161.77c14.67-1.91 29.41-.22 67.33 0m-67.33 0c14.95.66 30.52-.39 67.33 0m0 0c5.8.96 10.25 3.73 9.12 9.13m-9.12-9.13c6.34-.65 8.77 1.64 9.12 9.13m0 0c.13 5.24.05 13.66 0 18.26m0-18.26c-.8 6.11-.21 12.4 0 18.26m0 0c1.56 7.03-3.6 9.91-9.12 9.13m9.12-9.13c1.64 6.7-1.33 7.92-9.12 9.13m0 0c-18.22.21-37.5-.33-67.33 0m67.33 0c-23.19-1.29-45.23.28-67.33 0m0 0c-7.66 1.15-9.81-1.4-9.13-9.13m9.13 9.13c-3.9-.12-7.24-2.27-9.13-9.13m0 0c1.45-5.32.35-11.49 0-18.26m0 18.26c-.13-4.29-.48-10.7 0-18.26m0 0c-1.91-7.02 4.88-11 9.13-9.13m-9.13 9.13c-2.19-5.23 3.07-8.61 9.13-9.13" stroke="#1e1e1e" fill="none" stroke-linecap="round"/><text x="17.479" font-family="DejaVu Sans Mono, monospace" font-size="20" fill="#1e1e1e" text-anchor="middle" style="white-space:pre" dominant-baseline="text-before-edge" transform="translate(672.65 167.528)">2nd</text><path d="M659.89 213.12c37.72-.03 78.78-1.6 164.32 0m-164.32 0c63.29.78 127.44.65 164.32 0m0 0c6.31-.57 8.82 1.82 9.13 9.13m-9.13-9.13c7.66-1.63 11.29 3.36 9.13 9.13m0 0c.82 2.79.38 6.63 0 18.26m0-18.26c.69 5.58-.28 10.65 0 18.26m0 0c1.42 6.62-1.56 8.08-9.13 9.13m9.13-9.13c-.79 5.51-.8 8.73-9.13 9.13m0 0c-44.93-1.13-92.79-1.8-164.32 0m164.32 0c-36.91 1.84-72.58 2.08-164.32 0m0 0c-4.18-.1-7.49-2.37-9.13-9.13m9.13 9.13c-5.8 2.12-7.51-1.01-9.13-9.13m0 0c-.57-6.29 1.74-12.09 0-18.26m0 18.26c-.77-7.25.94-14.49 0-18.26m0 0c-1.9-5.34 3.07-8.68 9.13-9.13m-9.13 9.13c1.79-7.97 2.09-8.54 9.13-9.13" stroke="#1e1e1e" fill="none" stroke-linecap="round"/><text x="20.365" font-family="DejaVu Sans Mono, monospace" font-size="20" fill="#1e1e1e" text-anchor="middle" style="white-space:pre" dominant-baseline="text-before-edge" transform="translate(721.685 218.878)">last</text><path d="M660.508 13.423c51.93-.26 100.05.7 158.52 0m0 0c22.29 1.13 32.68 10.89 32 32m0 0c1.06 51.86 1.57 106.84 0 196.18m0 0c-1.62 21.52-10.43 32.88-32 32m0 0c-37.41-1.4-74.43.36-158.52 0m0 0c-20.39-.56-31.21-9.25-32-32m0 0c-2.15-64.64.5-128.63 0-196.18m0 0c-.44-23.08 9.69-31.26 32-32" stroke="#1e1e1e" stroke-width="1.5" fill="none" stroke-dasharray="8 9" stroke-linecap="round"/><text font-family="DejaVu Sans Mono, monospace" font-size="20" fill="#1e1e1e" style="white-space:pre" dominant-baseline="text-before-edge" transform="translate(647.645 24.887)">sstables</text></svg>
