<svg xmlns="http://www.w3.org/2000/svg" width="1315.264" height="629.722" filter="invert(93%) hue-rotate(180deg)"><path d="M462.648 131.812c18.77 5.45 34.66 20 49.44 33.04 14.79 13.05 28.13 29.09 39.25 45.22 11.11 16.14 20.69 33.52 27.46 51.59 6.78 18.07 11.27 37.44 13.18 56.82 1.9 19.39.81 40.06-1.72 59.48-2.53 19.43-6.3 39.06-13.47 57.06-7.16 17.99-18 35.2-29.53 50.93-11.54 15.72-24.58 30.73-39.68 43.43-15.1 12.69-33.32 23.63-50.94 32.74-17.61 9.12-35.64 17.31-54.74 21.96-19.11 4.66-39.98 6.23-59.89 5.96-19.92-.27-40.25-2.77-59.58-7.56-19.34-4.79-39.11-11.86-56.44-21.19-17.33-9.33-33.05-21.55-47.52-34.78-14.47-13.23-27.97-28.46-39.28-44.6-11.3-16.14-21.53-33.91-28.54-52.25-7.01-18.34-11.47-38.38-13.51-57.81-2.03-19.44-1.26-39.47 1.33-58.8 2.58-19.33 6.97-39.25 14.19-57.2 7.21-17.95 17.43-34.65 29.11-50.5 11.67-15.86 26.04-31.7 40.93-44.65s30.8-24.28 48.38-33.03c17.59-8.76 37.82-15.04 57.12-19.51 19.31-4.46 38.97-7.41 58.72-7.28 19.74.13 36.58.88 59.74 8.07 23.17 7.19 63.35 25.94 79.23 35.1 15.87 9.15 18.37 16.49 16.03 19.81m-216.95-55.89c17.09-8.54 39.69-7.82 59.94-7.68 20.25.14 42.24 3.59 61.57 8.52 19.34 4.94 36.98 11.82 54.42 21.11 17.44 9.28 35.26 21.45 50.21 34.6 14.95 13.15 28.57 28.13 39.48 44.32 10.91 16.19 18.96 34.6 25.99 52.84 7.02 18.23 13.53 37.26 16.19 56.57 2.65 19.3 2.46 40.13-.26 59.26-2.72 19.13-8.58 37.38-16.08 55.52-7.51 18.15-17.47 37.37-28.96 53.36-11.49 16-25.1 30.1-39.98 42.62-14.89 12.51-31.99 23.74-49.32 32.48-17.33 8.75-35.75 15.09-54.66 20-18.91 4.91-38.65 9.07-58.8 9.46-20.15.39-42.57-2.34-62.11-7.09-19.55-4.76-37.62-12.08-55.16-21.42-17.53-9.34-35.53-21.57-50.04-34.62-14.52-13.06-26.21-27.74-37.05-43.72-10.85-15.98-20.71-33.58-28.01-52.17-7.31-18.59-13.21-40.1-15.83-59.39-2.62-19.28-2.48-37.45.09-56.32 2.57-18.88 8.1-38.83 15.36-56.93 7.25-18.11 16.66-35.56 28.17-51.7 11.5-16.13 25.81-32.06 40.85-45.11 15.04-13.05 31.66-24.34 49.39-33.2 17.74-8.85 47.63-17.41 57.02-19.93 9.4-2.51-1.19 1.08-.66 4.83" stroke="#1e1e1e" fill="none" stroke-linecap="round"/><g stroke-linecap="round"><path d="M198.188 116.732c6.78 1.75 14.39 8.4 19 14.08 4.61 5.68 8.35 13 8.65 20 .31 7-2.64 16.11-6.83 22.02-4.18 5.92-11.28 11.32-18.28 13.47-7 2.15-16.57 1.4-23.71-.57-7.14-1.96-14.58-5.87-19.15-11.24-4.57-5.37-8.08-13.77-8.27-20.98-.2-7.22 2.94-16.24 7.12-22.31 4.17-6.06 10.39-11.76 17.9-14.07 7.51-2.31 22.43-.09 27.16.22s1.67.92 1.23 1.66m-34.17 2.06c5.85-3.46 16.86-4.61 24.28-3.69 7.42.91 14.68 4.27 20.26 9.2 5.57 4.92 11.68 13.29 13.17 20.35 1.49 7.06-.42 16.1-4.24 22-3.81 5.91-11.59 10.23-18.65 13.46-7.06 3.22-16.35 6.58-23.7 5.88-7.35-.7-15.23-5.13-20.4-10.08-5.17-4.94-9.64-12.46-10.62-19.6-.98-7.14 1.15-16.74 4.74-23.22 3.6-6.48 13.83-13.28 16.84-15.67 3.02-2.39 1.12.66 1.26 1.32" stroke-width="0" fill="#4dabf7"/><path d="M171.548 119.252c6.32-3.37 16.13-3.48 23.59-2.23 7.46 1.25 16.01 4.86 21.17 9.75 5.17 4.89 9.06 12.57 9.81 19.6.75 7.02-1.8 16.21-5.3 22.55s-8.95 12.54-15.68 15.48c-6.73 2.93-17.17 3.57-24.69 2.14-7.51-1.43-15.07-5.56-20.4-10.71-5.34-5.14-10.62-13.44-11.59-20.17-.98-6.72 1.78-14.09 5.74-20.18s14.8-13.69 18.01-16.36c3.22-2.66 1.16-.24 1.27.38m28.43-1.91c6.82 1.82 14.48 8.46 18.33 14.68 3.85 6.21 5.5 15.61 4.79 22.61-.7 7-4.08 14.04-9.02 19.38-4.94 5.35-13.56 10.69-20.63 12.7-7.08 2.01-14.9 2.2-21.82-.63s-15.45-10.23-19.71-16.35c-4.25-6.11-6.56-13.29-5.84-20.31.72-7.03 5.3-16.34 10.16-21.83 4.86-5.49 11.8-9.8 19-11.12 7.21-1.33 20.19 2.94 24.22 3.17 4.04.24.09-2.32-.01-1.77" stroke="#1971c2" fill="none"/></g><g stroke-linecap="round"><path d="M163.168 490.452c6.44-2.97 17.01-4.42 24.49-2.86 7.47 1.57 15.31 6.79 20.34 12.25 5.04 5.45 9.11 13.64 9.86 20.48.75 6.85-1.54 14.5-5.37 20.59-3.82 6.09-10.64 12.97-17.59 15.94-6.95 2.97-16.76 3.65-24.12 1.87-7.36-1.77-15.01-6.92-20.06-12.52-5.04-5.6-9.58-13.96-10.22-21.09-.65-7.14 1.16-15.31 6.37-21.7 5.22-6.39 19.5-14.02 24.91-16.62 5.41-2.59 7.58.24 7.55 1.06m14.49 3.06c6.75 2.01 12.82 7.77 16.91 13.77 4.08 6 7.98 15.1 7.59 22.21-.39 7.11-4.56 15.53-9.92 20.44-5.37 4.92-14.58 7.5-22.27 9.06-7.69 1.57-17.05 2.73-23.87.34-6.82-2.38-13.37-8.62-17.05-14.64-3.68-6.02-5.94-14.27-5.04-21.46.9-7.19 5.28-16.17 10.43-21.66 5.15-5.49 12.95-9.87 20.46-11.27 7.5-1.41 20.85 2.23 24.59 2.83 3.74.59-1.44.4-2.14.74" stroke-width="0" fill="#4dabf7"/><path d="M196.048 490.822c6.75 2.39 14.01 8.42 17.61 14.38 3.61 5.96 5.2 14.36 4.02 21.4-1.18 7.03-6.04 15.54-11.11 20.82-5.07 5.29-11.96 9.66-19.3 10.88-7.33 1.22-17.79-.41-24.72-3.56s-13.08-9.12-16.85-15.34c-3.78-6.22-6.76-15.23-5.8-21.97.96-6.73 6.22-13.5 11.56-18.45 5.33-4.95 12.62-10.13 20.47-11.26 7.84-1.14 21.85 3.26 26.61 4.45 4.75 1.19 2.1 2.28 1.9 2.7m-7.72-6.34c6.77 2.15 13.7 9.09 17.69 14.97 3.98 5.87 6.66 13.28 6.21 20.29-.44 7.02-4.39 15.97-8.87 21.81-4.49 5.83-10.8 11.51-18.03 13.2-7.23 1.69-17.99-.45-25.34-3.07-7.35-2.63-14.78-6.78-18.75-12.68-3.97-5.9-5.43-15.57-5.07-22.73.36-7.17 2.63-15.09 7.24-20.24 4.62-5.15 13.02-8.66 20.44-10.66 7.41-1.99 19.98-1.6 24.04-1.3 4.06.29.62 2.47.33 3.08" stroke="#1971c2" fill="none"/></g><g stroke-linecap="round"><path d="M491.268 127.772c6.94-2.18 16.62-.6 23.74 2.1 7.12 2.71 14.82 8.38 18.98 14.16 4.17 5.77 6.39 13.37 6 20.47-.38 7.09-3.52 16.43-8.33 22.1-4.8 5.67-13.16 10.35-20.49 11.94-7.32 1.59-16.32.48-23.45-2.38-7.14-2.85-15.3-8.7-19.36-14.76-4.06-6.05-5.48-14.55-4.99-21.58.49-7.03 2.92-15.25 7.93-20.6 5.01-5.34 18.05-9.7 22.11-11.48 4.05-1.77 1.87.46 2.21.83m22.31 2.73c6.81 2.69 15.25 10.18 18.84 16.64 3.58 6.45 4.41 15.53 2.67 22.1-1.75 6.58-7.33 12.44-13.13 17.33-5.8 4.9-14.29 10.71-21.67 12.06-7.38 1.35-16.15-.65-22.64-3.96-6.48-3.31-13.2-9.35-16.27-15.88-3.08-6.54-3.69-16.18-2.17-23.33 1.53-7.14 5.7-14.81 11.31-19.54 5.62-4.74 15.07-8.1 22.4-8.89 7.32-.79 18.17 3.58 21.56 4.16 3.39.58-1.08-.92-1.23-.67" stroke-width="0" fill="#4dabf7"/><path d="M501.228 126.652c7.11-.82 16.33 1.95 22.26 6.02 5.92 4.07 10.75 11.61 13.3 18.4 2.55 6.8 4.11 15.72 1.98 22.35-2.12 6.62-8.6 13.31-14.71 17.4-6.11 4.09-14.27 7.04-21.94 7.13-7.66.09-17.88-2.82-24.03-6.59-6.15-3.77-10.58-9.57-12.86-16.03-2.28-6.46-2.91-15.93-.81-22.73 2.11-6.8 5.87-14.07 13.42-18.07 7.55-4.01 24.85-5.5 31.91-5.94 7.07-.44 10.4 2.87 10.47 3.29m-30.74-3.33c6.61-2.36 16.77-2.82 23.81-.45 7.03 2.38 13.91 8.51 18.4 14.7 4.48 6.19 8.7 15.54 8.5 22.44-.2 6.91-4.75 13.53-9.68 18.98-4.94 5.46-12.85 11.81-19.95 13.78-7.1 1.96-15.55.52-22.67-2-7.11-2.52-15.67-7.62-20.02-13.12-4.36-5.51-6.48-12.69-6.1-19.9.38-7.21 3.6-17.79 8.38-23.36 4.78-5.57 17.05-8.14 20.31-10.06 3.26-1.92-1.05-1.91-.75-1.45" stroke="#1971c2" fill="none"/></g><g stroke-linecap="round"><path d="M601.968 262.102c6.75 2.66 14.03 9.48 17.64 15.55 3.62 6.06 5.06 13.82 4.05 20.86-1.02 7.03-4.89 16.06-10.16 21.34-5.28 5.28-14.04 9.31-21.49 10.32-7.46 1.01-16.37-.84-23.25-4.24-6.88-3.4-14.51-9.79-18.02-16.15-3.5-6.35-4.15-15-3.03-21.97 1.12-6.97 4.69-14.97 9.75-19.84 5.07-4.86 13.13-8.5 20.62-9.34 7.49-.84 19.84 3.67 24.31 4.29 4.47.63 2.51-.87 2.52-.55m-4.07-1.18c7.15 2.22 14.07 8.88 17.63 14.54 3.56 5.66 4.67 12.36 3.73 19.44-.93 7.07-4.53 17.24-9.35 23.02-4.82 5.79-12.37 10-19.57 11.69-7.2 1.69-16.83 1.34-23.63-1.54-6.79-2.89-13.34-9.53-17.12-15.76-3.78-6.24-6.31-14.74-5.55-21.66.75-6.91 5.32-14.63 10.08-19.85 4.76-5.22 11.6-9.66 18.49-11.49 6.89-1.83 18.79.37 22.85.51 4.06.14 1.59-.38 1.52.34" stroke-width="0" fill="#ff8787"/><path d="M599.068 259.522c6.63 1.95 13.3 8.55 17.52 14.57 4.22 6.03 8.09 14.64 7.8 21.56-.28 6.92-4.7 14.63-9.51 19.97-4.81 5.34-11.95 10.24-19.34 12.06-7.4 1.81-18.02 1.05-25.03-1.18-7.02-2.22-13.13-6.5-17.08-12.19-3.95-5.69-6.89-14.84-6.62-21.94.26-7.1 3.64-15.21 8.21-20.64s10.72-10.49 19.22-11.94c8.51-1.45 25.61 1.95 31.8 3.26 6.18 1.3 5.87 4.05 5.31 4.56m-34.45-10.01c6.88-1.77 16.15.43 23.23 3.77 7.09 3.34 15.59 10.24 19.29 16.27 3.7 6.03 4.15 13.02 2.92 19.92-1.24 6.89-5.33 16.29-10.34 21.45s-12.29 8.28-19.72 9.5c-7.43 1.21-17.91.45-24.86-2.21-6.96-2.65-13.37-7.38-16.88-13.72-3.52-6.33-5.3-17.29-4.22-24.29 1.08-7.01 5.61-12.64 10.7-17.74 5.1-5.11 16.24-11.1 19.87-12.89 3.63-1.8 1.82 1.5 1.88 2.11" stroke="#e03131" fill="none"/></g><g stroke-linecap="round"><path d="M331.958 548.352c7.26-.93 16.62.98 22.98 4.95 6.36 3.98 12.55 12.03 15.16 18.88 2.62 6.86 2.61 15.62.55 22.25-2.07 6.62-6.88 13.41-12.92 17.51-6.04 4.11-15.78 6.96-23.33 7.14-7.56.17-15.72-2.16-21.97-6.07-6.26-3.9-12.74-10.93-15.57-17.37-2.83-6.44-3.32-14.72-1.42-21.27 1.9-6.55 5.73-13.47 12.8-18.03 7.08-4.56 23.79-8.13 29.64-9.33 5.85-1.2 5.54 1.54 5.47 2.12m-7.19-.6c6.82-.4 14.86 1.5 20.33 6.06 5.47 4.56 10.54 14.05 12.49 21.33 1.94 7.27 1.83 15.7-.84 22.31-2.66 6.62-8.93 13.77-15.15 17.36-6.21 3.59-14.76 4.87-22.15 4.18-7.38-.68-16.49-3.87-22.15-8.27-5.65-4.41-9.76-11.44-11.76-18.16-2-6.71-2.6-15.36-.24-22.11 2.35-6.75 7.83-14.36 14.37-18.39 6.55-4.03 20.87-5.15 24.89-5.78 4.02-.62-.48 1.45-.78 2.05" stroke-width="0" fill="#ff8787"/><path d="M331.028 547.892c7.22-.6 18.07 2.39 24.4 6.21 6.32 3.81 11.06 10.21 13.56 16.67 2.49 6.45 3.59 15.33 1.4 22.07-2.19 6.73-8.65 13.72-14.54 18.33-5.9 4.61-13.51 8.89-20.86 9.35-7.34.45-16.87-2.61-23.22-6.6-6.35-3.98-12.13-10.79-14.86-17.34-2.73-6.55-3.71-15.08-1.52-21.95 2.19-6.88 6.72-14.96 14.68-19.29 7.96-4.34 26.17-6.36 33.08-6.71 6.9-.36 8.69 4.07 8.35 4.58m-14.37-4.89c7.43.8 17.82 6.06 23.31 10.81 5.48 4.75 8.59 10.86 9.6 17.7 1.02 6.84-.37 16.99-3.53 23.34-3.16 6.35-8.72 11.57-15.41 14.76-6.68 3.2-17.08 5.06-24.68 4.42-7.6-.63-15.6-3.19-20.9-8.25-5.3-5.06-9.74-15.13-10.91-22.08-1.16-6.95.66-13.33 3.9-19.63 3.25-6.3 8.77-14.72 15.56-18.16 6.79-3.43 21.33-1.96 25.17-2.46 3.83-.51-1.82-.8-2.18-.57" stroke="#e03131" fill="none"/></g><g stroke-linecap="round"><path d="M109.508 273.022c7.05 1.68 15.22 8.57 19.65 14.51 4.43 5.95 6.95 14.29 6.93 21.19-.03 6.89-2.53 14.72-7.09 20.16-4.56 5.44-13.09 10.41-20.28 12.48-7.19 2.07-15.71 2.11-22.86-.07-7.16-2.17-15.42-7.47-20.06-13-4.64-5.54-7.66-13.39-7.8-20.2-.14-6.82 2.31-14.76 6.97-20.68 4.67-5.93 12.9-12.69 21.03-14.85s22.62 1.29 27.75 1.9c5.13.61 3.43 1.04 3.03 1.76m-12.21-5.04c6.77 1.09 15.16 8.23 20.19 13.99 5.03 5.77 9.22 13.53 10 20.62.79 7.09-1.58 16.06-5.31 21.93-3.73 5.87-10.26 10.77-17.07 13.3-6.81 2.53-16.56 3.38-23.77 1.89-7.2-1.49-14.37-5.61-19.46-10.82-5.09-5.21-9.99-13.18-11.08-20.41-1.09-7.24.48-16.66 4.54-22.97 4.05-6.31 12.67-12.32 19.8-14.89 7.13-2.58 19.32-.37 22.98-.57 3.67-.2-.92-.97-1-.64" stroke-width="0" fill="#69db7c"/><path d="M88.098 273.162c6.86-2.31 15.71-1.99 22.65.39 6.94 2.39 15.02 8.02 18.98 13.9 3.97 5.88 5.2 14.08 4.82 21.38-.38 7.31-2.53 16.79-7.11 22.46-4.57 5.67-12.96 9.82-20.34 11.57-7.38 1.75-16.77 1.41-23.95-1.07-7.17-2.47-15.14-7.75-19.1-13.77-3.97-6.02-5.33-15.15-4.68-22.35.65-7.2 2.99-15.24 8.55-20.88 5.57-5.64 19.65-10.81 24.85-12.95 5.21-2.14 6.17-.42 6.37.09m-11.21 2.29c6.85-2.32 15.45-3.12 22.18-.66 6.72 2.45 13.95 9.44 18.18 15.39 4.22 5.94 7.61 13.34 7.15 20.27-.45 6.92-4.98 15.48-9.89 21.27-4.9 5.8-12.36 11.88-19.52 13.52-7.17 1.63-16.6-1.16-23.48-3.72-6.88-2.57-13.68-5.79-17.81-11.68-4.14-5.89-7.57-16.5-7.01-23.66.56-7.17 5.65-13.89 10.37-19.32 4.72-5.44 14.86-11.06 17.96-13.31 3.09-2.24.04-.79.63-.16" stroke="#2f9e44" fill="none"/></g><g stroke-linecap="round"><path d="M551.448 463.302c7 1.76 14.53 7.38 19.01 12.87 4.49 5.5 7.95 13.3 7.91 20.09-.03 6.79-3.72 15.01-8.1 20.66-4.37 5.65-11.02 10.99-18.15 13.25-7.12 2.27-17.2 2.28-24.61.36-7.42-1.93-15.24-6.48-19.89-11.9s-8.16-13.33-8.02-20.61c.14-7.27 4.16-17.06 8.84-23.02 4.68-5.97 10.87-11.02 19.26-12.78 8.39-1.77 24.99.71 31.09 2.17 6.09 1.47 5.85 5.89 5.48 6.64m-17.34-8.23c7.18 1.58 15.95 6.42 20.95 11.89 4.99 5.46 8.31 14.01 9.01 20.88.71 6.87-.96 14.56-4.81 20.34-3.85 5.77-11.43 11.55-18.28 14.31-6.85 2.76-15.35 3.82-22.82 2.25-7.48-1.58-16.72-6.09-22.02-11.69-5.31-5.61-9.42-14.62-9.8-21.93-.37-7.3 3.38-16.1 7.55-21.92 4.18-5.81 10.76-10.34 17.49-12.99 6.73-2.65 18.92-2.51 22.91-2.91 3.99-.4 1.2-.14 1.05.52" stroke-width="0" fill="#69db7c"/><path d="M541.628 460.212c7.09-.16 16.94 3.73 22.58 8.24 5.64 4.5 9.44 11.66 11.28 18.77 1.84 7.12 2.42 17.17-.23 23.91-2.65 6.73-9.19 12.85-15.69 16.51-6.5 3.67-15.63 5.93-23.3 5.49-7.67-.43-17.06-3.47-22.7-8.11-5.64-4.64-9.57-12.73-11.14-19.74-1.58-7.01-.94-15.79 1.68-22.33 2.62-6.53 7.46-13.11 14.06-16.86 6.59-3.76 20.81-4.89 25.52-5.65 4.71-.77 2.84.51 2.73 1.06m-5.05-1.27c6.88-.03 15.83 5.31 21.69 9.93 5.85 4.62 11.74 11.04 13.43 17.79 1.7 6.75-.2 15.87-3.25 22.71-3.05 6.84-8.74 14.83-15.06 18.33-6.33 3.49-15.52 3.22-22.89 2.63-7.37-.6-15.56-1.66-21.33-6.23-5.77-4.56-11.69-14.18-13.28-21.17-1.59-6.99.87-14.28 3.74-20.76 2.87-6.48 7.3-14.11 13.48-18.12 6.18-4 19.33-5.25 23.61-5.93 4.28-.67 2.02 1.1 2.07 1.89" stroke="#2f9e44" fill="none"/></g><g stroke-linecap="round"><path d="M101.598 397.672c6.83-2.2 17.17-1.68 24.01.76 6.85 2.44 13.15 7.96 17.08 13.87 3.93 5.91 7.06 14.56 6.49 21.6-.58 7.04-4.82 15.1-9.94 20.64-5.11 5.54-13.28 10.71-20.76 12.59-7.48 1.89-17.38 1.65-24.12-1.27-6.74-2.92-12.72-10.01-16.34-16.24-3.62-6.23-5.96-14.08-5.37-21.13.58-7.04 2.74-15.8 8.9-21.15 6.15-5.35 21.92-9.34 28.03-10.97 6.1-1.63 8.52.82 8.59 1.18m-27.02 3.6c6.21-3.54 15.86-4.49 23.5-3.71 7.65.78 16.77 3.73 22.36 8.39 5.6 4.66 9.73 12.54 11.22 19.59 1.49 7.05 1.15 16.24-2.28 22.72-3.43 6.49-11.18 13.03-18.27 16.17-7.09 3.14-16.96 3.89-24.28 2.68-7.31-1.22-14.35-5.27-19.62-9.98-5.27-4.71-10.4-11.32-12.01-18.27-1.6-6.94-.97-16.78 2.37-23.39 3.34-6.61 14.87-13.76 17.68-16.26 2.8-2.49-1.16.47-.86 1.32" stroke-width="0" fill="#69db7c"/><path d="M115.058 395.222c7.06.29 14.75 4.2 20.3 9.28 5.56 5.07 11.41 14.04 13.04 21.17 1.63 7.12.04 15.26-3.24 21.6-3.28 6.34-9.68 12.95-16.42 16.45-6.74 3.49-16.65 5.48-24.02 4.53-7.36-.96-14.87-5.27-20.16-10.24-5.3-4.97-9.93-12.67-11.59-19.6-1.66-6.92-1.4-15.48 1.6-21.95 3.01-6.46 8.28-13.62 16.41-16.82 8.13-3.19 25.9-2.62 32.38-2.36 6.49.26 6.75 3.18 6.51 3.91m-4.59-1.36c6.85 2.42 14.85 7.91 18.46 13.98 3.61 6.06 4.28 15.06 3.21 22.4-1.07 7.33-4.6 16.63-9.63 21.61-5.04 4.99-13.31 6.97-20.57 8.28-7.26 1.32-16.12 2.58-23.01-.37-6.88-2.96-14.8-11.07-18.31-17.37-3.5-6.3-3.61-13.47-2.72-20.45.88-6.97 3.16-15.91 8.06-21.4 4.89-5.5 13.44-10.31 21.28-11.59 7.84-1.27 21.76 3.19 25.75 3.96 3.98.76-1.49-.06-1.83.64" stroke="#2f9e44" fill="none"/></g><g stroke-linecap="round"><path d="M445.333 107c.53 1.2 6.56 5.3 7.5 9 7.46 3.21 8.1 5.42 0 9-.78 3.17-5.35 5.44-7.5 7-8.26 3.52-3.91 2.73-9.5 0-3.73-2.01-6.59-5.66-9.5-7-5.34-4.46-2.41-5.8 0-9 1.05-2.9 3.37-5.83 9.5-9 6.09-5.08 4.81-6.98 9.5 0" stroke-width="0" fill="#ffa94d"/><path d="M445.333 107c2.2 2.11 5.2 4.75 7.5 9m-7.5-9c1.96 1.97 3.23 3.72 7.5 9m0 0c5.77 3.26 6.34 6.06 0 9m0-9c4.66 6.18 4.34 3.21 0 9m0 0c-1.96 1.44-4.99 3.25-7.5 7m7.5-7c-2.65 2.07-5.11 4.74-7.5 7m0 0c-4.78 3.75-6.45 4.48-9.5 0m9.5 0c-5.95 6.75-5.52 3-9.5 0m0 0c-3.54-1.51-5.34-5.28-9.5-7m9.5 7c-1.91-2.03-4.98-3.86-9.5-7m0 0c-3.49-3.57-3.54-3.42 0-9m0 9c-5.83-2.29-2.58-3.22 0-9m0 0c3.46-4.36 8.44-7.97 9.5-9m-9.5 9c3.11-3.21 6.21-4.71 9.5-9m0 0c2.93-2.51 3.95-2.92 9.5 0m-9.5 0c2.45-4.19 6.24-3.45 9.5 0" stroke="#e8590c" fill="none"/></g><g stroke-linecap="round"><path d="M290.778 97.222c2.92 1.23 4.73 3.33 7.5 9 8.1 5.42 5.07 5.27 0 9-2.95 3.33-6.33 3.89-7.5 7-3.91 2.73-5.65 5.92-9.5 0-3.34-3.21-4.46-3.05-9.5-7-2.41-5.8-6.89-4.44 0-9 1.98-4.33 7.15-6.19 9.5-9 4.81-6.98 3.33-6.24 9.5 0" stroke-width="0" fill="#ffa94d"/><path d="M290.778 97.222c2.82 2.07 3.77 4.84 7.5 9m-7.5-9c2.95 3.23 5.74 6.06 7.5 9m0 0c6.34 6.06 4.67 5.96 0 9m0-9c4.34 3.21 4.65 3.63 0 9m0 0c-2.31.8-3.42 3.79-7.5 7m7.5-7c-3.34 2.92-5.87 5.21-7.5 7m0 0c-6.45 4.48-5.8 6.46-9.5 0m9.5 0c-5.52 3-4.6 6.69-9.5 0m0 0c-1.72-2.58-5.03-3.93-9.5-7m9.5 7c-2.05-1.55-3.57-2.6-9.5-7m0 0c-3.54-3.42-5.69-2.58 0-9m0 9c-2.58-3.22-2.55-2.55 0-9m0 0c3.84-3.46 5.57-6.01 9.5-9m-9.5 9c2.89-1.6 4.06-3.71 9.5-9m0 0c3.95-2.92 2.75-4.23 9.5 0m-9.5 0c6.24-3.45 5.61-3.38 9.5 0" stroke="#e8590c" fill="none"/></g><g stroke-linecap="round"><path d="M125.778 230.222c3.26 1.17 5.19 4.34 7.5 9 5.07 5.27 5.07 7.45 0 9-4.51 2.06-4.93 4.13-7.5 7-5.65 5.92-7.64 2.69-9.5 0-3.14-2.23-4.29-5.13-9.5-7-6.89-4.44-3.82-6.38 0-9 3.53-2.71 5.27-6.39 9.5-9 3.33-6.24 5.93-2.95 9.5 0" stroke-width="0" fill="#ffa94d"/><path d="M125.778 230.222c.75 1.17 4.3 5.33 7.5 9m-7.5-9c2.76 2.55 5.35 6.28 7.5 9m0 0c4.67 5.96 4.39 3.38 0 9m0-9c4.65 3.63 3.39 5.14 0 9m0 0c-1.69 2.1-2.78 2.73-7.5 7m7.5-7c-2 1.65-4.37 3.65-7.5 7m0 0c-5.8 6.46-5.42 3.2-9.5 0m9.5 0c-4.6 6.69-6.07 3.41-9.5 0m0 0c-3.89-3.18-7.97-4-9.5-7m9.5 7c-2.3-1.72-5-3.65-9.5-7m0 0c-5.69-2.58-2.87-3.39 0-9m0 9c-2.55-2.55-4.83-4.89 0-9m0 0c2.12-2.82 3.77-3.7 9.5-9m-9.5 9c1.29-1.29 3.59-3.28 9.5-9m0 0c2.75-4.23 6.05-3.58 9.5 0m-9.5 0c5.61-3.38 2.91-6.77 9.5 0" stroke="#e8590c" fill="none"/></g><g stroke-linecap="round"><path d="M142.778 470.222c4.02 2.91 4.18 5.15 7.5 9 5.07 7.45 6.69 3.06 0 9-2.39 1.57-5.98 5.72-7.5 7-7.64 2.69-4.67 2.28-9.5 0-.7-2.31-5.44-3.06-9.5-7-3.82-6.38-5.81-6.34 0-9 2.25-3.74 3.54-5.4 9.5-9 5.93-2.95 1.51-4.28 9.5 0" stroke-width="0" fill="#ffa94d"/><path d="M142.778 470.222c2.27 3.04 3.54 4.48 7.5 9m-7.5-9c2.79 3.24 4.59 5.95 7.5 9m0 0c4.39 3.38 4.66 3.74 0 9m0-9c3.39 5.14 3.44 3.32 0 9m0 0c-.72.95-3.68 2.31-7.5 7m7.5-7c-3.03 2.39-5.46 5.31-7.5 7m0 0c-5.42 3.2-4.62 6.41-9.5 0m9.5 0c-6.07 3.41-3.41 5.57-9.5 0m0 0c-3.2-.5-4.37-3.23-9.5-7m9.5 7c-2.37-1.61-5.68-3.34-9.5-7m0 0c-2.87-3.39-2.84-2.81 0-9m0 9c-4.83-4.89-6.16-2.74 0-9m0 0c1.54-1.53 3.25-3.03 9.5-9m-9.5 9c3.45-3.02 6.69-6.89 9.5-9m0 0c6.05-3.58 5.49-3.53 9.5 0m-9.5 0c2.91-6.77 2.63-2.94 9.5 0" stroke="#e8590c" fill="none"/></g><g stroke-linecap="round"><path d="M427.778 563.222c2.32 2.79 4.3 6.45 7.5 9 6.69 3.06 6.89.99 0 9-2.48 2.57-5.54 2.83-7.5 7-4.67 2.28-7.59 3.91-9.5 0-4.2-2.13-5.25-5.39-9.5-7-5.81-6.34-6.97-3.16 0-9 1.77-3.58 6.16-3.98 9.5-9 1.51-4.28 2.19-7.22 9.5 0" stroke-width="0" fill="#ffa94d"/><path d="M427.778 563.222c1.91 2.23 3.26 4.33 7.5 9m-7.5-9c1.83 2.51 3.54 3.9 7.5 9m0 0c4.66 3.74 3.57 5.06 0 9m0-9c3.44 3.32 2.86 4.89 0 9m0 0c-2.95 1.6-4.65 4.78-7.5 7m7.5-7c-2.3 2.34-4.17 3.34-7.5 7m0 0c-4.62 6.41-5.9 3.55-9.5 0m9.5 0c-3.41 5.57-6.58 3.62-9.5 0m0 0c-2.51-1.75-4.89-2.66-9.5-7m9.5 7c-3.61-1.81-6.07-4.47-9.5-7m0 0c-2.84-2.81-4.82-4.84 0-9m0 9c-6.16-2.74-6.25-4.63 0-9m0 0c1.14-1.08 5.76-5.62 9.5-9m-9.5 9c3.18-3.58 8.05-6.97 9.5-9m0 0c5.49-3.53 3.15-6.48 9.5 0m-9.5 0c2.63-2.94 3.79-2.77 9.5 0" stroke="#e8590c" fill="none"/></g><g stroke-linecap="round"><path d="M487.778 536.222c2.64 4.63 6.03 4.98 7.5 9 6.89.99 3.77 5.34 0 9-3.4.88-3.75 2.43-7.5 7-7.59 3.91-4.71 6.84-9.5 0-1.88-2.95-5.56-4.77-9.5-7-6.97-3.16-5.33-4.44 0-9 3.03-.98 2.34-3.93 9.5-9 2.19-7.22 6.27-6.63 9.5 0" stroke-width="0" fill="#ffa94d"/><path d="M487.778 536.222c2.94 4.01 5.02 7.78 7.5 9m-7.5-9c2.73 3.02 5.64 6.53 7.5 9m0 0c3.57 5.06 3.61 3.47 0 9m0-9c2.86 4.89 5.79 6.52 0 9m0 0c-1.36 1.61-4.02 2.43-7.5 7m7.5-7c-2.45 1.83-4.48 4.75-7.5 7m0 0c-5.9 3.55-3.59 5.43-9.5 0m9.5 0c-6.58 3.62-5.91 2.3-9.5 0m0 0c-3.93-2.01-6.89-4.78-9.5-7m9.5 7c-2.77-2.06-6.13-4.36-9.5-7m0 0c-4.82-4.84-5.98-2.97 0-9m0 9c-6.25-4.63-6.04-5.72 0-9m0 0c4.4-4.34 7.86-6.74 9.5-9m-9.5 9c4.12-3.13 7.54-6.52 9.5-9m0 0c3.15-6.48 2.91-3.15 9.5 0m-9.5 0c3.79-2.77 3.92-2.36 9.5 0" stroke="#e8590c" fill="none"/></g><g stroke-linecap="round"><path d="M562.778 209.222c3.56 1.94 6.09 3.62 7.5 9 3.77 5.34 2.98 3.6 0 9-2.6 1.17-6.65 4.38-7.5 7-4.71 6.84-6.05 2.36-9.5 0-3.52-3.28-7.07-3.52-9.5-7-5.33-4.44-7.23-5.92 0-9 .22-2.19 3.05-6.38 9.5-9 6.27-6.63 8.03-6.78 9.5 0" stroke-width="0" fill="#ffa94d"/><path d="M562.778 209.222c1.78 3.89 5.92 5.92 7.5 9m-7.5-9c2.76 3.18 5.23 6.92 7.5 9m0 0c3.61 3.47 3.11 4.84 0 9m0-9c5.79 6.52 3.38 3.55 0 9m0 0c-2.03.69-3.34 2.6-7.5 7m7.5-7c-2.97 3.22-6.29 5.28-7.5 7m0 0c-3.59 5.43-6.34 3.73-9.5 0m9.5 0c-5.91 2.3-2.63 4.09-9.5 0m0 0c-2.21-1.27-4.9-4.58-9.5-7m9.5 7c-3.26-2.22-7.61-5.59-9.5-7m0 0c-5.98-2.97-6.05-4.62 0-9m0 9c-6.04-5.72-3.82-6.65 0-9m0 0c4.91-3.93 8.33-8.2 9.5-9m-9.5 9c3.16-2.55 5.37-6.33 9.5-9m0 0c2.91-3.15 3.91-2.99 9.5 0m-9.5 0c3.92-2.36 5.33-4.29 9.5 0" stroke="#e8590c" fill="none"/></g><text font-family="DejaVu Sans Mono, monospace" font-size="20" fill="#1e1e1e" style="white-space:pre" dominant-baseline="text-before-edge" transform="translate(10 10)">R = 3</text><text y="25" font-family="DejaVu Sans Mono, monospace" font-size="20" fill="#1e1e1e" style="white-space:pre" dominant-baseline="text-before-edge" transform="translate(10 10)">Purple node added</text><g stroke-linecap="round"><path d="M327.694 90.926s0 0 0 0m0 0s0 0 0 0m-.39 24.84c13.07-12.93 25.12-29.42 39.36-45.28m-39.36 45.28c14.27-17.22 28.71-32.73 39.36-45.28m-30.57 59.55c14.74-14.06 28.86-31.69 46.58-53.58m-46.58 53.58c16.25-19.39 32.82-37.33 46.58-53.58m-32.53 61.81c14.51-17.99 31.2-34.78 43.95-50.56m-43.95 50.56c16.09-20.29 34.1-40.33 43.95-50.56m-24.01 52c10.59-12.84 18.72-21.52 30.84-35.47m-30.84 35.47c8.5-10.04 15.32-18.64 30.84-35.47" stroke="#da77f2" stroke-width="2" fill="none"/><path d="M366.384 69.706c7.36.21 16.76 3.78 22.56 8.59 5.79 4.82 10.58 13.24 12.22 20.31 1.64 7.07.63 15.79-2.4 22.11s-9.33 12.32-15.78 15.78c-6.44 3.47-15.37 5.57-22.89 5.02-7.52-.55-16.55-3.78-22.24-8.32-5.7-4.54-10.2-11.93-11.94-18.93-1.73-6.99-1.33-16.37 1.53-23.06 2.86-6.68 8.61-13.49 15.64-17.05 7.03-3.56 21.5-3.74 26.53-4.31 5.04-.56 3.7.37 3.67.92" stroke="#9c36b5" stroke-width="4.5" fill="none" stroke-dasharray="1.5 10"/></g><g stroke-linecap="round"><path d="M566.38 369.179s0 0 0 0m0 0s0 0 0 0m-14.17 40.69c9.41-8.89 17.72-17.79 39.37-45.29m-39.37 45.29c15.08-16.85 30.28-33.65 39.37-45.29m-29.91 58.8c17.27-17.62 31.57-39.6 46.58-53.58m-46.58 53.58c13.9-15.31 27.57-32.46 46.58-53.58m-35.82 65.59c17.57-19.73 37.92-42.27 49.2-56.61m-49.2 56.61c17.94-19.53 35.85-39.73 49.2-56.61m-29.91 58.8c9.26-9.57 15.89-21.3 38.71-44.52m-38.71 44.52c12.67-14.19 25.69-28.75 38.71-44.52" stroke="#da77f2" stroke-width="2" fill="none"/><path d="M589.5 362.429c6.91-.39 15.42 3.18 21.46 7.63 6.04 4.46 12.58 12.28 14.78 19.1 2.2 6.83 1.11 15.42-1.59 21.83-2.71 6.42-8.6 12.82-14.66 16.65-6.06 3.83-14.19 6.28-21.68 6.35-7.5.07-17.14-1.7-23.29-5.94-6.15-4.24-11.46-12.76-13.61-19.48-2.15-6.73-1.88-14.29.71-20.86 2.59-6.58 8.18-14.4 14.84-18.61 6.65-4.22 20.56-5.95 25.1-6.69 4.55-.74 2.2 1.41 2.17 2.27" stroke="#9c36b5" stroke-width="4.5" fill="none" stroke-dasharray="1.5 10"/></g><path d="M1121.252 115.737c18.82 3.74 35.62 17.69 51.59 29.32 15.98 11.63 31.81 25.16 44.28 40.46 12.48 15.3 22.19 33.69 30.57 51.35 8.39 17.66 15.81 35.53 19.73 54.61 3.93 19.08 5.08 40.44 3.84 59.86-1.23 19.42-5.54 37.96-11.24 56.66-5.69 18.7-12.94 38.78-22.91 55.55-9.96 16.77-23.03 31.44-36.89 45.07-13.85 13.62-29.46 26.27-46.25 36.69-16.8 10.42-35.66 19.72-54.5 25.84-18.84 6.11-38.82 9.39-58.54 10.86-19.71 1.46-40.29 1.26-59.76-2.06-19.46-3.33-38.91-9.94-57.04-17.9-18.12-7.96-35.99-18.15-51.71-29.88-15.73-11.72-30.02-25.3-42.63-40.47-12.62-15.16-24.6-32.72-33.06-50.49-8.46-17.77-14.14-37.11-17.7-56.11-3.56-19-4.49-38.61-3.66-57.88.82-19.27 3.11-39.1 8.61-57.74 5.51-18.64 14.39-37.29 24.41-54.1 10.02-16.8 21.7-32.63 35.71-46.71 14.01-14.09 31.47-27.35 48.37-37.81 16.89-10.46 34.14-19.11 53.01-24.93 18.87-5.83 40.28-8.63 60.2-10.01 19.93-1.37 37.89-2.23 59.36 1.77 21.46 4 56.67 16.67 69.44 22.22 12.76 5.54 9.12 7.37 7.14 11.04m-5.96-9.63c18.69 5.12 33.54 20.82 48.14 33.37 14.61 12.55 27.94 26.44 39.47 41.93 11.54 15.49 22.11 33.01 29.73 50.99 7.63 17.98 13.41 37.61 16.02 56.87 2.61 19.25 1.76 39.43-.33 58.66-2.1 19.24-5.79 38.26-12.23 56.76-6.45 18.51-15.69 37.96-26.44 54.29-10.74 16.32-23.35 30.54-38.05 43.66-14.7 13.12-32.75 25.57-50.14 35.06-17.39 9.49-34.87 16.7-54.18 21.88-19.32 5.18-41.8 9.13-61.7 9.22-19.89.1-38.69-4.4-57.65-8.66-18.97-4.27-38.33-8.67-56.13-16.95-17.8-8.27-35.57-19.99-50.66-32.68-15.08-12.69-28.41-27.24-39.84-43.48-11.44-16.23-21.39-35.9-28.77-53.93-7.37-18.02-12.65-35.08-15.46-54.22-2.81-19.14-3.35-41.01-1.41-60.62 1.94-19.6 6.33-38.61 13.03-57.02 6.71-18.4 16.23-37.44 27.2-53.42 10.96-15.98 24.24-29.25 38.59-42.47 14.36-13.22 30.35-27.4 47.54-36.86 17.19-9.46 36.14-14.94 55.62-19.91 19.48-4.98 41.34-9.49 61.27-9.95 19.93-.46 39.35 2.71 58.3 7.2 18.94 4.49 46.4 15.56 55.35 19.75 8.94 4.18-.08 1.53-1.67 5.36" stroke="#1e1e1e" fill="none" stroke-linecap="round"/><g stroke-linecap="round"><path d="M857.902 109.497c7.12-2.23 17.38-1.35 24.24 1.46 6.85 2.81 13.27 9.14 16.87 15.39 3.6 6.26 5.51 15.22 4.71 22.14-.8 6.93-4.49 14.21-9.52 19.43-5.02 5.23-13.17 10.27-20.62 11.95-7.45 1.67-17.29.79-24.08-1.89-6.79-2.69-12.91-8.07-16.65-14.22-3.75-6.15-6.52-15.69-5.82-22.71.7-7.03 3.82-13.92 10.04-19.44 6.22-5.51 21.5-11.74 27.27-13.63 5.78-1.89 7.54 1.47 7.39 2.31m12.48 3.69c6.73 2.22 13.4 7.11 16.78 13.46 3.39 6.34 4.82 17.52 3.54 24.62-1.28 7.09-5.77 13.24-11.22 17.96-5.45 4.72-14.05 9.36-21.49 10.34-7.44.99-16.45-1.44-23.15-4.44-6.7-3-13.41-7.19-17.04-13.54-3.63-6.35-5.77-17.5-4.73-24.56 1.03-7.06 5.22-12.89 10.91-17.82 5.69-4.94 15.64-10.62 23.2-11.79 7.57-1.17 18.72 3.89 22.19 4.78 3.46.89-1.02-.14-1.4.54" stroke-width="0" fill="#4dabf7"/><path d="M868.632 109.087c7.41-.03 17.52 3.44 23.23 8.24 5.72 4.8 9.39 13.65 11.05 20.54 1.67 6.9 1.83 14.37-1.05 20.82-2.88 6.44-9.48 14.3-16.26 17.86-6.77 3.56-16.85 4.12-24.38 3.5-7.53-.63-15.23-2.56-20.8-7.24s-10.95-13.65-12.59-20.84c-1.65-7.19-.33-15.97 2.73-22.29 3.05-6.32 8.47-12.21 15.59-15.61 7.12-3.4 22.02-4.36 27.11-4.77 5.09-.41 3.47 1.75 3.43 2.29m-.88-2.53c7.08 1.11 14.6 7.47 19.17 13.32 4.58 5.85 7.74 14.93 8.29 21.78.56 6.84-1.11 13.61-4.95 19.28-3.85 5.67-11.11 12.24-18.13 14.72-7.02 2.49-16.69 1.76-24.01.18-7.33-1.57-14.95-4.23-19.94-9.62-4.99-5.39-9.33-15.72-10.01-22.74-.68-7.02 1.53-13.69 5.92-19.38 4.39-5.69 13.33-12.19 20.43-14.74 7.09-2.54 18.46-.12 22.14-.53 3.67-.4-.17-2.26-.09-1.88" stroke="#1971c2" fill="none"/></g><g stroke-linecap="round"><path d="M875.992 483.007c6.54 2.65 12.62 10.01 15.76 16.49 3.15 6.49 4.44 15.55 3.13 22.42-1.31 6.86-5.58 13.88-10.98 18.78-5.39 4.89-13.85 9.41-21.39 10.61-7.55 1.2-17.3-.27-23.87-3.39s-12.24-8.93-15.54-15.31c-3.29-6.38-5.44-16.02-4.23-22.98 1.21-6.97 6.03-13.74 11.5-18.79 5.47-5.04 13.35-10.61 21.31-11.5 7.96-.88 22.05 4.79 26.45 6.17 4.4 1.38.27 1.65-.04 2.11m-4.24-5.85c6.75 2.34 13.89 11.3 17.58 17.56 3.69 6.25 5.47 13.19 4.57 19.96-.89 6.77-4.92 15.5-9.96 20.65-5.05 5.14-12.93 8.54-20.31 10.22-7.38 1.69-16.84 2.82-23.96-.11-7.12-2.94-14.83-11.28-18.77-17.5-3.95-6.22-6.02-12.84-4.88-19.82 1.13-6.99 6.51-16.76 11.68-22.09 5.17-5.33 12.35-8.63 19.34-9.89 6.99-1.27 18.8 1.63 22.61 2.29 3.81.65.25.91.25 1.65" stroke-width="0" fill="#4dabf7"/><path d="M868.352 480.657c7.1 1.48 14.04 8.2 18.73 13.75 4.7 5.55 9.03 12.53 9.44 19.55.41 7.03-2.5 16.76-6.97 22.6-4.48 5.84-12.75 9.95-19.85 12.44-7.11 2.48-15.59 4.4-22.76 2.48-7.18-1.93-15.61-8.21-20.29-14.05-4.67-5.85-7.51-14.13-7.76-21.03-.24-6.89 2.1-14.59 6.32-20.35 4.21-5.75 11.5-11.91 18.95-14.19 7.45-2.28 21.15.37 25.77.49 4.62.13 2.12-.13 1.96.25m-1.06.01c6.68 2.4 13.87 9.47 18.05 15.23 4.18 5.76 7.29 12.56 7.05 19.35-.23 6.79-3.65 16-8.45 21.38-4.8 5.38-13.02 8.9-20.37 10.88-7.35 1.99-16.47 3.57-23.72 1.04s-15.46-10.25-19.77-16.19c-4.3-5.94-6.86-12.65-6.08-19.45.77-6.81 5.87-15.96 10.75-21.4 4.87-5.43 11.43-9.17 18.49-11.23 7.06-2.06 19.71-1.28 23.86-1.13 4.16.15 1.25 1.03 1.06 2.04" stroke="#1971c2" fill="none"/></g><g stroke-linecap="round"><path d="M1175.032 119.777c6.85-1.05 16.42 1.5 22.92 4.9 6.49 3.4 12.95 9.1 16.04 15.49 3.1 6.38 4.15 15.73 2.54 22.8-1.6 7.07-6.72 14.73-12.17 19.62-5.45 4.9-13.11 9.03-20.53 9.74-7.43.71-17.44-1.97-24.03-5.47-6.59-3.49-12.5-8.96-15.52-15.49-3.03-6.53-4.27-16.73-2.62-23.68 1.64-6.96 5.66-13.54 12.47-18.05 6.82-4.51 22.01-7.82 28.4-9 6.4-1.18 9.74 1.33 9.98 1.92m1.24 1.04c6.82 2.07 14.18 6.49 18.21 12.15 4.04 5.67 6.35 14.86 5.99 21.82-.36 6.96-3.42 14.22-8.15 19.94-4.72 5.73-12.7 12.65-20.22 14.44-7.52 1.79-17.66-1.06-24.9-3.68-7.24-2.61-14.72-6.12-18.52-12-3.8-5.88-4.76-16.12-4.27-23.27.48-7.14 2.83-14.29 7.17-19.61 4.34-5.31 11.68-10.56 18.88-12.26 7.21-1.69 20.15 1.62 24.33 2.11 4.19.5.98.48.78.85" stroke-width="0" fill="#4dabf7"/><path d="M1179.712 120.677c7.2-.32 17.55 1.77 23.67 6.03 6.13 4.25 11.16 12.75 13.05 19.48 1.89 6.74.83 14.22-1.69 20.92-2.52 6.71-7.29 15.32-13.4 19.33-6.12 4.01-15.76 5.18-23.31 4.72-7.55-.46-16.05-3.38-22-7.5-5.95-4.12-11.56-10.58-13.71-17.24-2.15-6.65-1.75-16.08.8-22.68 2.55-6.59 7.9-12.86 14.5-16.91 6.59-4.04 20.62-6.29 25.09-7.37 4.48-1.09 1.78.15 1.76.84m-19.18 2.89c6.72-2.93 17.47-4.63 24.97-2.91 7.5 1.72 15.4 7.69 20.04 13.22 4.64 5.53 7.6 12.64 7.8 19.94.2 7.3-2.13 17.93-6.62 23.85-4.48 5.92-12.89 9.25-20.27 11.66-7.38 2.41-17.04 4.54-24 2.81-6.96-1.74-13.17-7.65-17.74-13.23-4.57-5.59-9.19-12.92-9.68-20.29-.49-7.38 2.27-17.92 6.76-23.95 4.48-6.03 16.92-10.56 20.15-12.26 3.23-1.7-.83 1.62-.79 2.05" stroke="#1971c2" fill="none"/></g><g stroke-linecap="round"><path d="M1245.532 254.837c6.1-3.55 16.1-5.45 23.53-4.37 7.43 1.09 15.84 5.69 21.07 10.86 5.24 5.16 9.06 13.03 10.34 20.14 1.28 7.11.72 16.32-2.66 22.53-3.37 6.2-10.83 11.52-17.59 14.7-6.77 3.18-15.65 5.59-23.01 4.37-7.36-1.23-15.96-6.69-21.15-11.74-5.2-5.05-8.7-11.84-10.03-18.57-1.33-6.72-2.59-15.04 2.03-21.78 4.62-6.75 20.21-15.57 25.7-18.69 5.48-3.13 7.09-.72 7.22-.06m-13 1.35c6.24-3.42 16.03-3.4 23.43-2.03 7.4 1.36 15.9 4.76 20.96 10.22 5.07 5.47 8.86 15.61 9.43 22.58.57 6.96-2.08 13.19-6.02 19.21-3.95 6.01-11.08 13.97-17.64 16.88-6.56 2.91-14.44 2.14-21.71.59-7.28-1.55-16.49-4.85-21.94-9.9-5.45-5.05-9.88-13.53-10.77-20.4-.89-6.86 1.43-14.85 5.46-20.77 4.02-5.92 15.67-12.19 18.69-14.75 3.02-2.57-.55-.8-.58-.64" stroke-width="0" fill="#ff8787"/><path d="M1252.992 251.857c6.84-2.42 16.45-.61 23.29 1.7 6.85 2.31 13.51 6.31 17.78 12.16 4.27 5.85 7.94 15.9 7.85 22.94-.08 7.04-3.79 14.02-8.38 19.33-4.58 5.31-11.93 10.34-19.11 12.52-7.17 2.18-16.85 2.78-23.95.55-7.11-2.23-14.44-8.18-18.67-13.92-4.24-5.74-7.01-13.43-6.76-20.53.24-7.1 2.47-16.06 8.23-22.07 5.77-6.02 20.78-11.89 26.37-14.02 5.6-2.13 7.34.61 7.21 1.23m-1.09-1.84c7.44-.34 16.66 4.38 22.52 8.81 5.85 4.42 10.71 10.66 12.59 17.73 1.87 7.07 1.62 18.04-1.36 24.69-2.99 6.66-9.92 11.41-16.55 15.24-6.63 3.83-16 7.93-23.24 7.75-7.25-.18-14.45-4.34-20.23-8.82-5.78-4.48-12.3-10.94-14.46-18.08-2.16-7.15-1.49-18.03 1.5-24.8 2.98-6.77 10.03-12.48 16.43-15.83 6.4-3.35 18.32-3.31 21.96-4.26 3.65-.95-.39-1.9-.08-1.44" stroke="#e03131" fill="none"/></g><g stroke-linecap="round"><path d="M1004.782 540.477c6.98-1.6 16.77.75 23.41 4.1 6.65 3.34 12.91 9.55 16.48 15.97 3.57 6.41 6.02 15.62 4.94 22.52-1.09 6.9-6.1 13.88-11.46 18.88-5.35 5-13.29 10.09-20.65 11.11-7.36 1.03-16.89-1.75-23.5-4.98-6.62-3.23-12.55-8.36-16.17-14.39-3.63-6.03-6.75-14.77-5.57-21.79 1.19-7.02 6.53-15.28 12.67-20.35 6.15-5.07 19.65-8.48 24.19-10.05 4.53-1.57 3.26.04 3.03.64m16.23 2.28c6.68 2.42 13.9 8.15 17.44 14.61 3.55 6.47 5.12 17.25 3.83 24.19-1.29 6.93-6.14 12.46-11.57 17.43-5.43 4.97-13.9 11.14-21.01 12.39-7.1 1.25-14.94-1.69-21.62-4.89-6.67-3.19-14.48-8.23-18.41-14.28-3.93-6.04-6.14-15.17-5.16-22 .97-6.84 5.48-14.12 10.99-19 5.51-4.87 14.61-8.85 22.06-10.26 7.46-1.41 19.1 1.57 22.67 1.8 3.58.23-.89-.74-1.22-.41" stroke-width="0" fill="#ff8787"/><path d="M1026.412 544.317c6.54 2.12 13 7.11 16.89 13.19 3.9 6.08 7.03 16.26 6.49 23.28-.53 7.02-4.76 13.81-9.69 18.86-4.93 5.04-12.59 9.64-19.88 11.41-7.29 1.78-16.94 1.85-23.88-.77-6.95-2.62-13.92-8.97-17.79-14.94-3.86-5.97-6.08-13.79-5.39-20.87.69-7.08 4.58-16.06 9.55-21.6 4.97-5.53 12.49-10.25 20.25-11.61 7.76-1.35 21.84 2.67 26.3 3.46 4.46.78.83.83.44 1.25m-3.06-2.67c6.84 2.08 13.93 7.21 17.83 13.48 3.89 6.26 6.39 17 5.55 24.12-.84 7.11-5.4 13.19-10.59 18.57-5.19 5.39-13.47 11.85-20.52 13.72-7.05 1.87-14.87.23-21.78-2.49-6.92-2.72-15.52-7.48-19.7-13.82-4.19-6.34-6.26-16.99-5.42-24.22.84-7.23 5.52-14.27 10.47-19.17 4.96-4.9 12.1-8.47 19.25-10.24 7.16-1.77 19.44-.65 23.68-.39 4.25.26 1.99 1.06 1.79 1.97" stroke="#e03131" fill="none"/></g><g stroke-linecap="round"><path d="M776.522 264.737c7.1-.03 15.86 3.55 21.88 8.09 6.03 4.53 12.18 12.39 14.27 19.12 2.08 6.72.91 14.64-1.77 21.24-2.68 6.61-8.1 14.58-14.31 18.36-6.2 3.79-15.5 4.72-22.92 4.37-7.41-.36-15.5-2.37-21.57-6.51-6.08-4.15-12.91-11.53-14.9-18.38-1.98-6.85.04-16.11 2.99-22.72 2.94-6.61 7.94-13.18 14.71-16.95 6.76-3.77 21.35-4.91 25.89-5.66 4.53-.76 1.36.58 1.31 1.13m-11.97-2.51c7.02-1.23 16.72 2.74 23.17 5.95 6.45 3.2 12.37 7.09 15.54 13.3 3.18 6.21 4.45 16.97 3.53 23.96-.92 6.98-3.77 13.1-9.05 17.95-5.27 4.84-14.74 9.88-22.59 11.1-7.85 1.23-17.74-.66-24.51-3.76-6.77-3.11-13.01-8.76-16.11-14.87-3.1-6.12-3.74-14.69-2.47-21.83 1.27-7.14 5.01-15.7 10.09-21.03 5.09-5.34 16.89-9.25 20.41-10.99 3.52-1.74.56-.25.72.55" stroke-width="0" fill="#69db7c"/><path d="M764.142 265.507c6.74-2.2 17.64.15 24.79 2.61 7.15 2.47 13.95 6.61 18.1 12.2 4.15 5.58 7.08 14.1 6.8 21.3-.29 7.2-3.83 16.27-8.52 21.89-4.68 5.62-12.38 9.89-19.59 11.83-7.21 1.94-16.7 2.33-23.7-.19-6.99-2.52-14.13-8.87-18.24-14.94-4.11-6.07-6.79-14.54-6.43-21.49.36-6.95 2.42-14.5 8.58-20.22 6.16-5.71 21.9-12.03 28.4-14.09 6.51-2.07 10.38.99 10.63 1.7m-22.31-.44c6.54-2.47 16.82-.24 23.81 1.83 7 2.06 13.86 4.97 18.19 10.57 4.33 5.61 7.28 15.78 7.79 23.06.51 7.29-.55 14.82-4.75 20.63-4.2 5.82-13.1 12.2-20.45 14.25-7.36 2.05-16.68.25-23.67-1.93-7-2.18-13.74-6.05-18.31-11.17-4.56-5.13-8.66-12.4-9.06-19.58-.4-7.18 2.05-17.54 6.64-23.51 4.6-5.97 17.69-10.5 20.93-12.3 3.23-1.79-1.26 1.04-1.52 1.52" stroke="#2f9e44" fill="none"/></g><g stroke-linecap="round"><path d="M1200.272 457.317c6.4-3.12 17.29-3.38 24.76-2.08 7.47 1.3 14.96 4.7 20.06 9.87 5.09 5.17 9.51 14.24 10.49 21.14.98 6.9-1.05 14.14-4.6 20.26-3.56 6.11-9.73 13.2-16.75 16.41-7.02 3.2-18.02 4.24-25.39 2.82-7.37-1.42-14.02-6.17-18.84-11.35s-9.16-12.81-10.09-19.73c-.94-6.92.54-15.42 4.5-21.79 3.95-6.38 15.11-13.62 19.21-16.43 4.1-2.82 5.08-.99 5.39-.49m7.2-.73c6.9-.76 15.67-.26 21.73 3.58 6.07 3.85 11.74 12.84 14.64 19.5 2.9 6.66 4.74 13.77 2.76 20.45-1.98 6.68-8.28 15.1-14.62 19.62-6.34 4.51-15.79 7.1-23.41 7.49-7.61.39-16.32-1.39-22.3-5.14-5.98-3.76-11.04-10.56-13.59-17.37-2.54-6.82-3.49-16.36-1.7-23.53 1.79-7.18 6.53-14.95 12.43-19.5 5.9-4.54 19.17-6.81 22.97-7.76 3.8-.94-.18 1.24-.18 2.1" stroke-width="0" fill="#69db7c"/><path d="M1229.772 456.737c7.04 1.68 14.22 6.18 18.57 11.63 4.34 5.46 7.57 13.9 7.52 21.1-.04 7.21-3.3 16.37-7.8 22.13-4.49 5.76-12.02 10.27-19.17 12.42-7.14 2.15-16.64 2.82-23.71.51-7.07-2.31-14.4-8.43-18.71-14.37-4.31-5.95-7.27-14.34-7.15-21.3.11-6.95 3.56-14.81 7.86-20.45 4.31-5.64 10.18-11.43 17.98-13.38 7.8-1.94 23.31.85 28.82 1.71 5.51.87 4.66 2.75 4.25 3.46m-24.68-4.95c6.83-1.11 15.56-.92 21.82 2.62 6.25 3.53 12.36 11.95 15.73 18.62 3.36 6.66 5.97 14.51 4.47 21.4-1.5 6.88-7.63 15.52-13.48 19.93-5.85 4.41-14.35 5.96-21.61 6.51-7.25.54-15.44-.16-21.93-3.22-6.49-3.05-13.75-8.56-17.01-15.13-3.26-6.57-4.47-17.24-2.57-24.28 1.89-7.05 8.3-13.62 13.95-17.99 5.65-4.37 16.78-6.76 19.94-8.25 3.16-1.48-1.03-.92-.99-.65" stroke="#2f9e44" fill="none"/></g><g stroke-linecap="round"><path d="M785.192 389.687c7.16-1.14 16.03.39 22.47 4.02 6.43 3.62 13.09 11.35 16.12 17.73 3.04 6.39 3.67 13.77 2.1 20.59-1.57 6.83-5.67 15.49-11.53 20.37-5.87 4.87-16.18 8.32-23.67 8.88-7.48.57-15.09-1.85-21.25-5.49-6.16-3.63-12.74-9.91-15.73-16.32s-3.61-15.26-2.2-22.13c1.41-6.88 4.57-14.43 10.67-19.12 6.11-4.69 21.45-7.62 25.96-9.04 4.5-1.41 1.22-.04 1.08.57m-13.83-.32c6.45-2.65 16.29-.3 23.79 1.88 7.51 2.19 16.68 5.64 21.24 11.24 4.57 5.59 6.5 15.08 6.13 22.32-.36 7.23-3.83 15.21-8.32 21.08-4.5 5.87-11.75 11.74-18.64 14.14-6.9 2.39-15.59 2.59-22.75.24-7.15-2.34-15.44-8.23-20.19-14.31-4.75-6.09-8.24-14.94-8.31-22.2-.07-7.25 3.41-15.83 7.89-21.35 4.48-5.51 15.78-9.94 19-11.75 3.21-1.82-.15.28.31.86" stroke-width="0" fill="#69db7c"/><path d="M775.262 390.167c6.59-2.96 16.98-2.8 24.24-.6 7.27 2.19 14.8 8.03 19.37 13.76 4.57 5.72 7.86 13.46 8.07 20.57.21 7.11-2.57 16.35-6.8 22.09-4.24 5.74-11.52 10.24-18.59 12.37-7.08 2.13-16.68 2.36-23.88.41-7.19-1.95-14.53-6.48-19.3-12.08-4.76-5.61-9-14.37-9.26-21.54-.27-7.17 2.86-15.7 7.69-21.47s17.69-11.05 21.3-13.16c3.62-2.11.4-.08.42.51m-7.68.45c5.99-3.26 15.7-2.21 23.39-.64 7.69 1.56 17.57 4.89 22.77 10.02 5.21 5.14 7.8 14.12 8.48 20.8.68 6.67-.98 13.29-4.39 19.26-3.4 5.98-9.24 13.13-16.02 16.58-6.78 3.45-17.07 5.59-24.66 4.13-7.59-1.47-16.06-7.62-20.88-12.91-4.81-5.29-7.12-12.21-8-18.85-.88-6.64-.45-14.74 2.72-21 3.17-6.27 13.37-13.83 16.3-16.58 2.93-2.75.72-.38 1.25.07" stroke="#2f9e44" fill="none"/></g><g stroke-linecap="round"><path d="M1123.597 100.155c1 3.1 6.55 4.33 7.5 9 1.76 2.35 6.44 7.02 0 9-3.32 1.61-4.33 4.44-7.5 7-3.98 7.33-6.12 4.22-9.5 0-3.72-3.02-3.7-4.34-9.5-7-4.22-3.3-4.45-5.04 0-9 4.77-1.51 7.01-6.15 9.5-9 1.99-3.6 6.41-6.25 9.5 0" stroke-width="0" fill="#fab005"/><path d="M1123.597 100.155c2.82 4.46 4.96 5.79 7.5 9m-7.5-9c2.35 2.87 4.4 5.68 7.5 9m0 0c5.86 5.71 3.71 5.54 0 9m0-9c3.44 6.24 4.87 2.91 0 9m0 0c-1.08 1.87-4.48 3.89-7.5 7m7.5-7c-1.95 2.28-4.55 3.56-7.5 7m0 0c-6.53 6.24-3.94 5.28-9.5 0m9.5 0c-6.31 6.39-6.13 2.43-9.5 0m0 0c-2.04-2.86-6.87-3.52-9.5-7m9.5 7c-3.73-2.26-6.56-4.84-9.5-7m0 0c-4.57-5.24-6.48-5.43 0-9m0 9c-5.15-6.49-4.49-3.88 0-9m0 0c3.61-2.43 7.12-7.8 9.5-9m-9.5 9c3.91-2.69 7.19-6.17 9.5-9m0 0c5.77-3.04 5.83-6.19 9.5 0m-9.5 0c5.9-2.41 5.42-5.18 9.5 0" stroke="#e8590c" fill="none"/></g><g stroke-linecap="round"><path d="M969.042 90.377c4.27 1.73 3.18 4.76 7.5 9 6.44 7.02 2.15 3.9 0 9-3.3 3.39-4.31 5.75-7.5 7-6.12 4.22-8.25 1.69-9.5 0-2.14-3.22-4.19-2.82-9.5-7-4.45-5.04-2.56-4.22 0-9 2.34-2.02 2.64-3.83 9.5-9 6.41-6.25 7.11-5.36 9.5 0" stroke-width="0" fill="#fab005"/><path d="M969.042 90.377c1.32 1.19 3.6 3.12 7.5 9m-7.5-9c2.06 2.74 4.7 5.57 7.5 9m0 0c3.71 5.54 3.61 6.02 0 9m0-9c4.87 2.91 3.66 4.77 0 9m0 0c-2.42 2.06-3.7 3.54-7.5 7m7.5-7c-1.96 1.27-3.63 3.48-7.5 7m0 0c-3.94 5.28-6.11 6.14-9.5 0m9.5 0c-6.13 2.43-4.07 4.54-9.5 0m0 0c-3.13-.73-4.57-3.94-9.5-7m9.5 7c-3.85-2.97-7.33-5.71-9.5-7m0 0c-6.48-5.43-5.1-6.23 0-9m0 9c-4.49-3.88-3.2-5.53 0-9m0 0c2.65-3.7 6.14-4.44 9.5-9m-9.5 9c1.9-1.35 4.12-3.24 9.5-9m0 0c5.83-6.19 5.75-2.68 9.5 0m-9.5 0c5.42-5.18 5.06-4.66 9.5 0" stroke="#e8590c" fill="none"/></g><g stroke-linecap="round"><path d="M804.042 223.377c.76 1.66 5.87 7.23 7.5 9 2.15 3.9 4.99 1.4 0 9-1.92 3.65-5.27 4.15-7.5 7-8.25 1.69-6.8 1.29-9.5 0-1.87-1.01-4.19-3.64-9.5-7-2.56-4.22-6.94-2.43 0-9 1.69-2.75 8.09-7.81 9.5-9 7.11-5.36 1.19-7.92 9.5 0" stroke-width="0" fill="#fab005"/><path d="M804.042 223.377c3.02 2.61 5.79 7.42 7.5 9m-7.5-9c2.68 3.18 4.42 5.98 7.5 9m0 0c3.61 6.02 4.85 3.12 0 9m0-9c3.66 4.77 3.27 6.31 0 9m0 0c-2.63 2.46-5.67 4.68-7.5 7m7.5-7c-3.34 3.05-5.51 5.45-7.5 7m0 0c-6.11 6.14-5.95 2.7-9.5 0m9.5 0c-4.07 4.54-5.68 6.64-9.5 0m0 0c-1.98-1.97-3.76-4.61-9.5-7m9.5 7c-2.78-2.36-6.2-4.52-9.5-7m0 0c-5.1-6.23-4.53-3.96 0-9m0 9c-3.2-5.53-5.45-4.36 0-9m0 0c4.48-2.72 5.63-5.77 9.5-9m-9.5 9c4.08-3.16 7.86-7.75 9.5-9m0 0c5.75-2.68 5.33-5.09 9.5 0m-9.5 0c5.06-4.66 5.57-5.96 9.5 0" stroke="#e8590c" fill="none"/></g><g stroke-linecap="round"><path d="M821.042 463.377c2.66 3.72 1.94 4.05 7.5 9 4.99 1.4 4.76 2.76 0 9-3.43 2.53-7.27 3.8-7.5 7-6.8 1.29-7.29 4.6-9.5 0-2.07-1.9-3.17-3.05-9.5-7-6.94-2.43-2.25-4.25 0-9 4.16-3.98 7.57-6.19 9.5-9 1.19-7.92 3.97-6.82 9.5 0" stroke-width="0" fill="#fab005"/><path d="M821.042 463.377c1.61 2.36 3.63 3.91 7.5 9m-7.5-9c2.17 3.17 4.57 6.23 7.5 9m0 0c4.85 3.12 3.8 4.73 0 9m0-9c3.27 6.31 5.1 2.92 0 9m0 0c-3.46 2.63-4.3 4-7.5 7m7.5-7c-1.7 1.99-4.11 3.94-7.5 7m0 0c-5.95 2.7-4.16 4.53-9.5 0m9.5 0c-5.68 6.64-5.74 3.33-9.5 0m0 0c-2.7-3.9-7.54-5.94-9.5-7m9.5 7c-3-2.14-5.08-4.21-9.5-7m0 0c-4.53-3.96-3.4-5.39 0-9m0 9c-5.45-4.36-3.26-4.33 0-9m0 0c.61-1.19 5.11-3.7 9.5-9m-9.5 9c3.96-4.08 7.58-6.39 9.5-9m0 0c5.33-5.09 5.02-4.64 9.5 0m-9.5 0c5.57-5.96 5.11-2.48 9.5 0" stroke="#e8590c" fill="none"/></g><g stroke-linecap="round"><path d="M1106.042 556.377c.36 1.72 3.82 2.42 7.5 9 4.76 2.76 7.16 5.27 0 9-4.68 1.2-6.78 3.64-7.5 7-7.29 4.6-7.13 5.03-9.5 0-1.88-2.19-7.64-3.47-9.5-7-2.25-4.25-4.37-7.26 0-9 4.56-3.4 3.77-8 9.5-9 3.97-6.82 5.06-7.07 9.5 0" stroke-width="0" fill="#fab005"/><path d="M1106.042 556.377c1.79 1.64 3.49 4.5 7.5 9m-7.5-9c2.32 3.65 5.39 6.05 7.5 9m0 0c3.8 4.73 3.47 6.07 0 9m0-9c5.1 2.92 5.64 4.01 0 9m0 0c-1.68 1.51-5.44 3.61-7.5 7m7.5-7c-3.22 3.16-6.09 4.99-7.5 7m0 0c-4.16 4.53-5.56 6.36-9.5 0m9.5 0c-5.74 3.33-2.54 5.33-9.5 0m0 0c-2.7-2.41-5.8-3.87-9.5-7m9.5 7c-2.54-2.4-4.87-3.57-9.5-7m0 0c-3.4-5.39-5.36-4.38 0-9m0 9c-3.26-4.33-6.89-2.7 0-9m0 0c4.53-3.02 7.58-5.43 9.5-9m-9.5 9c3.82-2.68 7.23-6.82 9.5-9m0 0c5.02-4.64 5.46-5.77 9.5 0m-9.5 0c5.11-2.48 3.37-6.41 9.5 0" stroke="#e8590c" fill="none"/></g><g stroke-linecap="round"><path d="M1166.042 529.377c2.8 1.54 5.44 5.66 7.5 9 7.16 5.27 7.58 3.13 0 9-3.37.29-5.81 4.04-7.5 7-7.13 5.03-3.55 4.8-9.5 0-4.08-.76-4.02-3.83-9.5-7-4.37-7.26-3.85-2.84 0-9-.05-4.46 4.16-6 9.5-9 5.06-7.07 7.14-5.21 9.5 0" stroke-width="0" fill="#fab005"/><path d="M1166.042 529.377c2.7 3.55 5.53 5.17 7.5 9m-7.5-9c2.62 2.71 4.95 6.35 7.5 9m0 0c3.47 6.07 5.05 3.13 0 9m0-9c5.64 4.01 5.25 2.48 0 9m0 0c-2.92 1.3-3.91 4.89-7.5 7m7.5-7c-2.9 1.97-4.98 4.82-7.5 7m0 0c-5.56 6.36-5.61 3.48-9.5 0m9.5 0c-2.54 5.33-5.26 6.62-9.5 0m0 0c-2.41-1.37-4.36-3.94-9.5-7m9.5 7c-2.33-1.7-4.41-3.89-9.5-7m0 0c-5.36-4.38-3.46-4.35 0-9m0 9c-6.89-2.7-3.92-6.76 0-9m0 0c4.38-2.52 7.59-5.67 9.5-9m-9.5 9c2.19-2.22 4.14-4.01 9.5-9m0 0c5.46-5.77 5.06-2.74 9.5 0m-9.5 0c3.37-6.41 3.38-3.42 9.5 0" stroke="#e8590c" fill="none"/></g><g stroke-linecap="round"><path d="M1241.042 202.377c2.14 1.65 5.68 5.67 7.5 9 7.58 3.13 4.47 1 0 9-3.04 1.48-4.62 3.26-7.5 7-3.55 4.8-5.29 6.69-9.5 0-1.37-1.91-5.55-5.84-9.5-7-3.85-2.84-6.5-2.14 0-9 2.27-3.84 5.61-6.49 9.5-9 7.14-5.21 3.56-1.14 9.5 0" stroke-width="0" fill="#fab005"/><path d="M1241.042 202.377c2.81 1.84 4.78 4.27 7.5 9m-7.5-9c2.55 3.5 5.27 7.28 7.5 9m0 0c5.05 3.13 5.53 4.07 0 9m0-9c5.25 2.48 5.3 6.29 0 9m0 0c-.84 1.93-3.03 2.4-7.5 7m7.5-7c-2.76 2.62-5.98 5.76-7.5 7m0 0c-5.61 3.48-2.83 5.22-9.5 0m9.5 0c-5.26 6.62-6.9 4.51-9.5 0m0 0c-2.95-2.89-5.61-3.95-9.5-7m9.5 7c-1.64-1.73-4.24-2.92-9.5-7m0 0c-3.46-4.35-6.61-2.93 0-9m0 9c-3.92-6.76-3.51-2.31 0-9m0 0c3.77-2.08 4.61-4.88 9.5-9m-9.5 9c3.78-3.53 7.63-7.42 9.5-9m0 0c5.06-2.74 3.55-6.16 9.5 0m-9.5 0c3.38-3.42 6.36-6.16 9.5 0" stroke="#e8590c" fill="none"/></g><text font-family="DejaVu Sans Mono, monospace" font-size="20" fill="#1e1e1e" style="white-space:pre" dominant-baseline="text-before-edge" transform="translate(718.264 15.655)">R = 3</text><text y="25" font-family="DejaVu Sans Mono, monospace" font-size="20" fill="#1e1e1e" style="white-space:pre" dominant-baseline="text-before-edge" transform="translate(718.264 15.655)">Purple node removed</text><g stroke-linecap="round"><path d="M1020.108 68.56s0 0 0 0m0 0s0 0 0 0m-14.04 22.24c5.57-8.26 13.12-13.88 20.99-24.15m-20.99 24.15c7.04-8.57 13.67-14.06 20.99-24.15m-21.25 30.55c9.77-8.95 15.22-18.91 28.21-32.45m-28.21 32.45c11.06-12.66 22.31-25.91 28.21-32.45m-28.47 38.85c9.35-14.07 23.34-24.57 36.08-41.51m-36.08 41.51c7.43-9.48 16.03-18.27 36.08-41.51m-36.35 47.91c12.56-16.83 24.23-31.07 40.68-46.79m-40.68 46.79c8.25-9.73 17.81-19.66 40.68-46.79m-38.31 50.17c10.46-12.66 25.04-27.44 41.98-48.3m-41.98 48.3c13.86-15.59 27.09-30.34 41.98-48.3m-39.62 51.68c8.03-9.9 16.72-18.91 43.96-50.57m-43.96 50.57c11.94-15.08 25.14-28.9 43.96-50.57m-41.6 53.94c11.27-12.86 23.25-24.63 45.27-52.07m-45.27 52.07c17.43-17.77 33.42-36.76 45.27-52.07m-42.25 54.7c10.22-12.07 20.07-20.01 46.58-53.59m-46.58 53.59c13.93-14.81 24.88-27.96 46.58-53.59m-44.87 57.72c11.66-15.75 25.6-31.9 48.55-55.85m-48.55 55.85c17.07-19.35 33.23-38.84 48.55-55.85m-44.22 56.97c10.24-11.94 18.42-21.42 46.58-53.59m-46.58 53.59c13.28-13.95 26.04-29.18 46.58-53.59m-42.25 54.7c9.4-12.53 18.88-22.43 44.61-51.32m-44.61 51.32c13.29-14.5 25.1-29.5 44.61-51.32m-40.28 52.44c8.93-10.88 17.12-23.16 42.64-49.06m-42.64 49.06c12.77-14.11 24.46-28.01 42.64-49.06m-38.96 50.93c14.92-15.89 29.96-33.86 41.33-47.55m-41.33 47.55c16.76-18.42 32.55-37.35 41.33-47.55m-37 48.66c9.33-9.59 16.7-17.79 39.36-45.28m-39.36 45.28c12.82-13.79 24.18-29.73 39.36-45.28m-34.38 45.64c7.35-10.15 14.51-17.83 34.77-40m-34.77 40c9.61-11.58 20.06-23.76 34.77-40m-27.81 38.1c7.85-9.57 18.37-18.06 27.55-31.7m-27.55 31.7c7.48-10.33 16.03-18.51 27.55-31.7m-21.25 30.55c8.09-6.37 12.61-13.27 20.99-24.15m-20.99 24.15c4.8-7.07 12.09-13.5 20.99-24.15" stroke="#da77f2" stroke-width=".5" fill="none"/><path d="M1042.298 62.08c7.42-.21 17.25 3.74 23.1 8.2 5.86 4.46 10.04 11.79 12.03 18.56 1.98 6.77 2.41 15.45-.13 22.07-2.54 6.63-9.08 13.84-15.13 17.68-6.04 3.85-13.67 5.73-21.15 5.37-7.48-.37-17.78-3.46-23.75-7.56-5.98-4.09-10.1-10.3-12.09-17.03-2-6.72-2.39-16.5.12-23.32 2.5-6.82 7.94-13.84 14.89-17.59s21.31-4.31 26.82-4.9c5.52-.6 6.07.84 6.26 1.31" stroke="#9c36b5" stroke-width="1.5" fill="none" stroke-dasharray="1.5 7"/></g><g stroke-linecap="round"><path d="M1236.774 368.744s0 0 0 0m0 0s0 0 0 0m-4.2 10.93c5.26-4.49 10.35-13.47 13.78-15.85m-13.78 15.85c5.7-4.91 10.42-11.02 13.78-15.85m-16.66 25.26c7.53-10.01 20.47-21.28 26.9-30.94m-26.9 30.94c7.58-8.98 14.65-15.83 26.9-30.94m-25.85 35.83c8.8-7.11 13.97-17.53 31.49-36.23m-31.49 36.23c9.48-10.44 19.84-21.43 31.49-36.23m-30.44 41.12c7.75-11.47 16.81-22.42 35.43-40.76m-35.43 40.76c11.33-12.31 21.57-24.13 35.43-40.76m-34.38 45.65c13.78-14.03 24.72-29.64 39.36-45.29m-39.36 45.29c13.24-14.77 24.38-30.19 39.36-45.29m-37.65 49.42c10.75-12.36 23.65-28 42.64-49.06m-42.64 49.06c17.38-19.24 33.24-38.87 42.64-49.06m-40.94 53.19c16.04-16.47 31.16-35.44 45.27-52.07m-45.27 52.07c13.16-14.75 24.43-30.96 45.27-52.07m-42.25 54.7c10.52-9.62 20.11-25.32 45.27-52.08m-45.27 52.08c9.5-11.34 20.93-23.85 45.27-52.08m-42.25 54.7c17.59-21.41 36.13-41.18 45.93-52.83m-45.93 52.83c16.21-19.42 31.58-37.22 45.93-52.83m-42.91 55.46c7.27-8.84 17.96-22.43 45.92-52.83m-45.92 52.83c14.03-16.19 26.58-32.25 45.92-52.83m-42.9 55.45c15.49-18.08 31.16-36.2 45.92-52.83m-45.92 52.83c13.87-17.01 27.68-33.15 45.92-52.83m-42.25 54.7c9.55-14.48 22.33-27.06 45.27-52.07m-45.27 52.07c13.61-15.99 27.96-30.47 45.27-52.07m-41.59 53.94c8.49-9.34 20.1-22.67 44.61-51.32m-44.61 51.32c11.51-13.86 21.65-26.18 44.61-51.32m-38.97 50.93c10.86-11.42 22.62-25.46 40.02-46.04m-40.02 46.04c12.58-16.66 25.9-30.23 40.02-46.04m-35.03 46.4c12.77-14.96 27.3-29.14 36.08-41.51m-36.08 41.51c9.83-11.51 21.25-24.23 36.08-41.51m-31.09 41.87c13.64-12.34 23.97-27.64 32.14-36.99m-32.14 36.99c10.87-11.9 22.8-26.33 32.14-36.99m-25.19 35.08c9.79-10.45 18.47-22.71 26.24-30.19m-26.24 30.19c7.26-7.61 11.97-14.09 26.24-30.19m-16.66 25.27c2.93-4.12 8.59-6.48 13.78-15.85m-13.78 15.85c3.71-3.48 6.94-7.9 13.78-15.85" stroke="#da77f2" stroke-width=".5" fill="none"/><path d="M1258.504 357.204c6.71-1.88 15.44-.75 22.25 1.95 6.81 2.7 14.67 8.27 18.59 14.25s5.34 14.77 4.93 21.64c-.42 6.88-2.58 14.41-7.42 19.6-4.83 5.18-14.26 9.65-21.58 11.5-7.32 1.85-15.5 2.24-22.31-.41-6.82-2.66-14.64-9.33-18.6-15.51-3.96-6.18-5.53-14.68-5.17-21.55.37-6.87 2.21-14.26 7.35-19.67 5.15-5.41 19.03-10.73 23.5-12.81 4.47-2.07 3.31-.45 3.33.37" stroke="#9c36b5" stroke-width="1.5" fill="none" stroke-dasharray="1.5 7"/></g><g stroke-linecap="round"><path d="M971.736 118.587c37.27 57.17 185.45 285.13 222.59 342.07" stroke="#2f9e44" stroke-width="1.5" fill="none" stroke-dasharray="8 9"/><path d="M1174.346 445.637c4.87 4.49 9.28 8.14 19.98 15.02" stroke="#2f9e44" stroke-width="1.5" fill="none"/><path d="M1188.676 436.307c1.72 6.51 3.04 12.17 5.65 24.35" stroke="#2f9e44" stroke-width="1.5" fill="none"/></g><g stroke-linecap="round"><path d="M818.572 242.622c60.83 37.03 303.13 185.43 363.78 222.59" stroke="#2f9e44" stroke-width="1.5" fill="none" stroke-dasharray="8 9"/><path d="M1157.852 460.232c4.57.03 10.48 1.25 24.5 4.98" stroke="#2f9e44" stroke-width="1.5" fill="none"/><path d="M1166.782 445.652c2.78 2.98 6.89 7.15 15.57 19.56" stroke="#2f9e44" stroke-width="1.5" fill="none"/></g><g stroke-linecap="round"><path d="M830.379 465.428c65.81-27.35 328.53-137.53 394.44-164.97" stroke="#2f9e44" stroke-width="1.5" fill="none" stroke-dasharray="8 9"/><path d="M1206.439 317.408c6.33-6.36 13.82-10.78 18.38-16.95M1199.839 301.638c8.56-.74 18.44.54 24.98-1.18" stroke="#2f9e44" stroke-width="1.5" fill="none"/></g><g stroke-linecap="round"><path d="M1225.249 227.207c-55.22 43.44-277.97 218.22-333.56 261.55" stroke="#2f9e44" stroke-width="1.5" fill="none" stroke-dasharray="8 9"/><path d="M904.919 467.547c-2.31 5.93-3.8 10.45-13.23 21.21M915.459 481.017c-4.66 3.18-8.39 4.85-23.77 7.74" stroke="#2f9e44" stroke-width="1.5" fill="none"/></g><g stroke-linecap="round"><path d="M1114.302 129.282c15.89 54.06 78.93 271.07 94.6 325.11" stroke="#2f9e44" stroke-width="1.5" fill="none" stroke-dasharray="8 9"/><path d="M1194.142 434.222c4.83 5.44 10.22 10.45 14.76 20.17" stroke="#2f9e44" stroke-width="1.5" fill="none"/><path d="M1210.562 429.452c-.02 6.95.49 13.39-1.66 24.94" stroke="#2f9e44" stroke-width="1.5" fill="none"/></g><g stroke-linecap="round"><path d="M516.44 463.961c-37.4-56.06-187.01-278.61-224.45-334.12" stroke="#e03131" stroke-width="1.5" fill="none" stroke-dasharray="8 9"/><path d="M312.2 144.551c-8.76-6.22-15.37-11.51-20.21-14.71M298.02 154.101c-4.09-9.49-5.93-17.99-6.03-24.26" stroke="#e03131" stroke-width="1.5" fill="none"/></g><g stroke-linecap="round"><path d="M502.007 477.467c-61.4-37.59-306.26-188.09-367.11-225.67" stroke="#e03131" stroke-width="1.5" fill="none" stroke-dasharray="8 9"/><path d="M159.387 256.837c-9.92-3.58-16.49-1.98-24.49-5.04M150.417 271.397c-6.74-8.46-10.25-11.81-15.52-19.6" stroke="#e03131" stroke-width="1.5" fill="none"/></g><g stroke-linecap="round"><path d="M543.004 306.612c-64.2 28.52-322.81 142.34-387.18 170.91" stroke="#e03131" stroke-width="1.5" fill="none" stroke-dasharray="8 9"/><path d="M173.854 460.212c-3.47 2.95-9.19 8.3-18.03 17.31M180.764 475.852c-4.96-.36-12.18 1.62-24.94 1.67" stroke="#e03131" stroke-width="1.5" fill="none"/></g><g stroke-linecap="round"><path d="M531.007 457.597c-15.61-53.51-76.64-266.74-92.18-319.94" stroke="#e03131" stroke-width="1.5" fill="none" stroke-dasharray="8 9"/><path d="M453.557 157.857c-7.09-7.07-11.79-16.54-14.73-20.2M437.137 162.597c-.85-8.8.71-20.08 1.69-24.94" stroke="#e03131" stroke-width="1.5" fill="none"/></g><g stroke-linecap="round"><path d="M454.099 113.86c31.05 5.13 157.71-14.2 186.29 29.6 28.59 43.8-12.28 194.25-14.8 233.19" stroke="#2f9e44" stroke-width="1.5" fill="none" stroke-dasharray="8 9"/><path d="M620.949 352.08c2.28 6.59 3.94 13.3 4.64 24.57M637.819 354.85c-2.49 5.78-5.62 11.7-12.23 21.8" stroke="#2f9e44" stroke-width="1.5" fill="none"/></g><g stroke-linecap="round"><path d="M572.92 222.751c10.59 5.25 55.83 8.39 62.49 32.36 6.66 23.97-18.98 92.77-22.53 111.45" stroke="#2f9e44" stroke-width="1.5" fill="none" stroke-dasharray="8 9"/><path d="M610.9 341.641c-.74 6.64-.21 10.04 1.98 24.92M627.39 346.201c-4.38 5.65-7.48 8.04-14.51 20.36" stroke="#2f9e44" stroke-width="1.5" fill="none"/></g><g stroke-linecap="round"><path d="M299.353 115.72c3.96 1.4 19.62 7.12 23.42 8.54" stroke="#2f9e44" stroke-width="1.5" fill="none" stroke-dasharray="8 9"/><path d="M310.513 124.21c3.62.6 7.36-.07 12.26.05M313.413 116.34c2.83 2.81 5.76 4.34 9.36 7.92" stroke="#2f9e44" stroke-width="1.5" fill="none"/></g><g stroke-linecap="round"><path d="M149.263 474.574c31.77-56.12 159.38-279.17 191.3-334.9" stroke="#2f9e44" stroke-width="1.5" fill="none" stroke-dasharray="8 9"/><path d="M336.313 164.304c-.55-7.58 1.9-15.77 4.25-24.63M321.473 155.814c4.66-4.61 12.28-9.84 19.09-16.14" stroke="#2f9e44" stroke-width="1.5" fill="none"/></g><g stroke-linecap="round"><path d="M115.804 227.653c6.5-21.81 5.01-106.09 39.21-130.16 34.2-24.08 138.12-11.94 165.99-14.27" stroke="#2f9e44" stroke-width="1.5" fill="none" stroke-dasharray="8 9"/><path d="M297.424 91.523c9.8-5.27 19.49-8 23.58-8.3M297.604 74.423c9.89 1.39 19.51 5.32 23.4 8.8" stroke="#2f9e44" stroke-width="1.5" fill="none"/></g><g stroke-linecap="round"><path d="M214.638 497.098c54.95-43.09 275.03-217.44 329.61-260.67" stroke="#e03131" stroke-width="1.5" fill="none" stroke-dasharray="8 9"/><path d="M531.138 257.718c6.7-5.96 9.11-17.25 13.11-21.29M520.528 244.308c10.45-1.14 16.73-7.53 23.72-7.88" stroke="#e03131" stroke-width="1.5" fill="none"/></g></svg>
