<svg xmlns="http://www.w3.org/2000/svg" width="2269.269" height="969.246" filter="invert(93%) hue-rotate(180deg)"><path d="M411.057 264.84c13.56-2.69 29.82.81 43.88 4.08 14.06 3.28 28.77 8.42 40.47 15.57 11.7 7.14 21.84 16.69 29.74 27.3 7.91 10.6 14.57 24.1 17.66 36.31s3.64 24.96.89 36.97c-2.76 12-9.87 24.56-17.43 35.05-7.55 10.48-16.37 20.19-27.9 27.87-11.53 7.67-27.29 14.47-41.28 18.18-13.99 3.7-28.28 5.26-42.67 4.06-14.39-1.19-30.31-5.76-43.68-11.26-13.38-5.49-26.46-12.66-36.59-21.71-10.13-9.05-18.87-21.03-24.22-32.58-5.35-11.55-8.05-24.47-7.9-36.72.16-12.25 3.62-25.44 8.82-36.79 5.21-11.34 12.73-21.97 22.4-31.29 9.68-9.31 22.21-18.65 35.65-24.6 13.43-5.95 36.75-9.73 44.97-11.09 8.22-1.37 4.04.9 4.34 2.92m52.96 6.94c13.6 3.34 25.51 12.22 36.05 20.5 10.53 8.27 21.06 18.43 27.13 29.17 6.08 10.74 8.43 22.87 9.29 35.27.87 12.4.28 27.11-4.1 39.13-4.39 12.02-13.16 23.31-22.21 33-9.05 9.69-19.92 18.84-32.09 25.13-12.17 6.29-26.38 10.62-40.93 12.62-14.55 1.99-32.05 1.67-46.37-.66-14.32-2.34-27.58-6.66-39.53-13.35-11.95-6.69-23.38-16.77-32.16-26.79-8.79-10.03-16.58-21.54-20.56-33.36-3.98-11.83-4.89-24.93-3.33-37.58 1.56-12.66 5.93-27.13 12.72-38.34 6.78-11.21 16.93-21.1 27.99-28.91 11.05-7.81 24.56-13.57 38.33-17.97 13.78-4.4 29.37-8.48 44.33-8.43 14.96.05 38.05 6.77 45.44 8.71 7.4 1.95-.27 1.15-1.05 2.97" stroke="#1971c2" stroke-width="2" fill="none" stroke-linecap="round"/><text x="78.073" y="31.536" font-family="DejaVu Sans Mono, monospace" font-size="36" fill="#1971c2" text-anchor="middle" style="white-space:pre" dominant-baseline="alphabetic" transform="translate(345.245 344.883)">Postgres</text><path d="M271.07 103.205c68.74 2 135.71.66 303.29 0m-303.29 0c68.99-1.8 136.66-1.39 303.29 0m0 0c20.08-.23 31.13 9.77 32 32m-32-32c21.29.42 30.04 12.17 32 32m0 0c-.2 287.57-.22 573.65 0 765.53m0-765.53c-1.95 280.54-1.54 561.55 0 765.53m0 0c-1.91 21.18-9.99 32.15-32 32m32-32c-.95 20.7-8.88 32.13-32 32m0 0c-89.75 1.06-182.49-.28-303.29 0m303.29 0c-102.53 1.44-203.56 1.72-303.29 0m0 0c-21.91 1.01-30.71-9.87-32-32m32 32c-19.04-1.88-30.75-12.9-32-32m0 0c-1.03-236.14-.91-473.49 0-765.53m0 765.53c-1.47-182.96-1.03-366.39 0-765.53m0 0c1.09-21.64 10.64-32.1 32-32m-32 32c-1.18-19.64 12.78-31.82 32-32" stroke="#1e1e1e" stroke-width="2" fill="none" stroke-linecap="round"/><text x="149.325" y="32.491" font-family="DejaVu Sans Mono, monospace" font-size="37.09" fill="#1e1e1e" text-anchor="middle" style="white-space:pre" dominant-baseline="alphabetic" transform="translate(273.261 117.253)">Stateless</text><text x="149.325" y="78.853" font-family="DejaVu Sans Mono, monospace" font-size="37.09" fill="#1e1e1e" text-anchor="middle" style="white-space:pre" dominant-baseline="alphabetic" transform="translate(273.261 117.253)">Compute Cluster</text><path d="M1170.314 267.633c13.1 2.95 26.77 12.36 36.77 20.75 10 8.39 17.31 18.75 23.24 29.61s11.28 23.64 12.34 35.55c1.05 11.91-1.77 24.34-5.99 35.89-4.22 11.55-10.91 23.78-19.35 33.41-8.44 9.63-19.15 18.23-31.28 24.37-12.13 6.13-27.56 10.61-41.49 12.44-13.93 1.83-28.46 1.02-42.1-1.44-13.65-2.46-27.85-6.69-39.77-13.31-11.91-6.62-23.47-16.44-31.73-26.41-8.26-9.97-14.14-21.73-17.8-33.41-3.66-11.67-5.6-24.82-4.14-36.63 1.47-11.81 6.25-23.49 12.95-34.22 6.7-10.72 16.54-22.07 27.26-30.13 10.72-8.05 24.01-14.17 37.05-18.2 13.04-4.02 26.3-6.51 41.2-5.95 14.9.57 39.79 7.18 48.19 9.33 8.39 2.16 3.03 2.12 2.2 3.62m-109.03-2.05c10.54-6.67 27.48-7.41 41.74-8.8 14.26-1.39 29.87-2.32 43.81.48 13.94 2.8 28.35 9.4 39.84 16.31 11.49 6.92 21.62 15.13 29.1 25.19 7.47 10.06 12.67 23.12 15.77 35.16 3.09 12.03 4.72 25.1 2.81 37.04-1.92 11.93-6.94 24.4-14.3 34.57-7.35 10.16-18.68 18.98-29.84 26.41-11.16 7.42-24.14 14.43-37.12 18.15-12.98 3.72-27 4.91-40.76 4.19-13.77-.72-29.03-3.5-41.83-8.51-12.8-5.02-25.25-12.89-34.97-21.58-9.71-8.68-17.85-19.78-23.33-30.55-5.48-10.77-8.72-22.22-9.54-34.07-.82-11.86.29-25.42 4.62-37.06 4.34-11.64 11.93-23.34 21.38-32.8 9.45-9.46 29.44-20.38 35.3-23.96 5.86-3.58-1.1 1.03-.14 2.48" stroke="#b8491c" stroke-width="2" fill="none" stroke-linecap="round"/><text x="54.833" y="31.536" font-family="DejaVu Sans Mono, monospace" font-size="36" fill="#b8491c" text-anchor="middle" style="white-space:pre" dominant-baseline="alphabetic" transform="translate(1070.878 315.634)">Safe</text><text x="54.833" y="76.536" font-family="DejaVu Sans Mono, monospace" font-size="36" fill="#b8491c" text-anchor="middle" style="white-space:pre" dominant-baseline="alphabetic" transform="translate(1070.878 315.634)">keeper</text><path d="M978.075 102.14c95.73-1.15 193.24-.06 303.29 0m-303.29 0c120.95.84 241.44.77 303.29 0m0 0c21.51-.32 30.22 11.33 32 32m-32-32c19.2-1.75 30.24 9.67 32 32m0 0c1.05 250.68.15 501.67 0 765.53m0-765.53c-1.03 286.35-1.04 571.75 0 765.53m0 0c1.97 21.5-12.66 30.11-32 32m32-32c-.91 22.91-10.07 30.95-32 32m0 0c-116.65-.03-231.18 1.33-303.29 0m303.29 0c-99.95-.49-198.96-.18-303.29 0m0 0c-19.88-1.7-30.83-11.81-32-32m32 32c-19.84-1.8-29.84-12.22-32-32m0 0c-1.73-287.76-2.16-574.07 0-765.53m0 765.53c.49-166.37.04-331.75 0-765.53m0 0c-.82-19.77 9.08-32.69 32-32m-32 32c.2-23.54 8.57-30.39 32-32" stroke="#1e1e1e" stroke-width="2" fill="none" stroke-linecap="round"/><text x="150.504" y="28.537" font-family="DejaVu Sans Mono, monospace" font-size="30" fill="#1e1e1e" text-anchor="middle" style="white-space:pre" dominant-baseline="alphabetic" transform="translate(983.714 111.669)">Fault-Tolerant</text><text x="150.504" y="69.257" font-family="DejaVu Sans Mono, monospace" font-size="30" fill="#1e1e1e" text-anchor="middle" style="white-space:pre" dominant-baseline="alphabetic" transform="translate(983.714 111.669)">WAL</text><text x="150.504" y="109.977" font-family="DejaVu Sans Mono, monospace" font-size="30" fill="#1e1e1e" text-anchor="middle" style="white-space:pre" dominant-baseline="alphabetic" transform="translate(983.714 111.669)">Replication Cluster</text><g stroke-linecap="round"><path d="M609.038 415.548c54.08-.13 271.4-2.18 325.93-2.26m-324.02 1.44c54.37.1 272.16-.04 326.27-.29M913.748 423.048c9.59-4.6 16.48-5.76 23.47-8.61m-23.47 8.61c8.67-3.97 17.13-6.82 23.47-8.61" stroke="#6741d9" stroke-width="2" fill="none"/><path d="M913.708 405.948c9.46 1.82 16.36 7.08 23.51 8.49m-23.51-8.49c8.69 2.63 17.16 6.38 23.51 8.49" stroke="#6741d9" stroke-width="2" fill="none"/></g><text x="133.754" y="33.516" font-family="DejaVu Sans Mono, monospace" font-size="35" fill="#6741d9" text-anchor="middle" style="white-space:pre" dominant-baseline="alphabetic" transform="translate(644.112 199.246)">WAL streamed</text><text x="133.754" y="81.34" font-family="DejaVu Sans Mono, monospace" font-size="35" fill="#6741d9" text-anchor="middle" style="white-space:pre" dominant-baseline="alphabetic" transform="translate(644.112 199.246)">via postgres</text><text x="133.754" y="129.165" font-family="DejaVu Sans Mono, monospace" font-size="35" fill="#6741d9" text-anchor="middle" style="white-space:pre" dominant-baseline="alphabetic" transform="translate(644.112 199.246)">replication</text><text x="133.754" y="176.989" font-family="DejaVu Sans Mono, monospace" font-size="35" fill="#6741d9" text-anchor="middle" style="white-space:pre" dominant-baseline="alphabetic" transform="translate(644.112 199.246)">protocol</text><path d="M1636.686 362.224c12.42-4.35 27.93-3.69 41.53-2.68 13.6 1.01 27.65 3.54 40.09 8.73 12.43 5.18 24.68 13.62 34.52 22.35 9.83 8.73 18.68 19.25 24.51 30.04 5.82 10.8 9.16 22.84 10.44 34.73 1.28 11.89.67 24.98-2.77 36.63-3.44 11.65-9.65 23.48-17.88 33.28-8.22 9.81-19.85 18.7-31.47 25.56-11.63 6.87-25.03 12.56-38.27 15.65-13.24 3.1-27.39 4.14-41.18 2.92-13.78-1.22-28.76-5.1-41.52-10.23-12.75-5.13-25.21-12.11-35.02-20.55-9.81-8.44-18.13-19.01-23.83-30.09-5.71-11.09-9.44-24.23-10.4-36.43-.95-12.2 1.1-25.3 4.68-36.75 3.59-11.46 8.73-22.2 16.81-31.97 8.07-9.78 18.51-19.4 31.64-26.7 13.12-7.29 37.48-14.33 47.1-17.08 9.61-2.76 10.15-1.09 10.58.55m17.83-1.17c13.3-1.25 29.94 2.33 42.52 7.1 12.58 4.77 23.27 12.94 32.95 21.53 9.69 8.58 18.8 19.45 25.17 29.98 6.36 10.53 11.19 21.23 13.03 33.21 1.84 11.98 1.18 26.62-2 38.67-3.18 12.06-9.54 23.51-17.09 33.64-7.54 10.13-16.94 19.78-28.19 27.14-11.25 7.37-25.82 13.91-39.32 17.07-13.51 3.16-27.94 2.8-41.69 1.89-13.75-.91-28.07-2.75-40.81-7.35-12.74-4.6-25.61-11.66-35.62-20.26-10-8.59-18.04-20.26-24.42-31.32-6.37-11.06-11.92-23.36-13.81-35.03-1.89-11.68-1.23-23.32 2.46-35.01 3.69-11.68 11.67-24.68 19.69-35.11 8.02-10.43 17.74-20.15 28.43-27.46 10.68-7.31 22.39-13.11 35.7-16.4 13.31-3.29 36.96-3.43 44.15-3.35 7.2.09-.89 1.79-1 3.86" stroke="#e03131" stroke-width="2" fill="none" stroke-linecap="round"/><text x="55.448" y="31.536" font-family="DejaVu Sans Mono, monospace" font-size="36" fill="#e03131" text-anchor="middle" style="white-space:pre" dominant-baseline="alphabetic" transform="translate(1611.48 419.406)">Page </text><text x="55.448" y="76.536" font-family="DejaVu Sans Mono, monospace" font-size="36" fill="#e03131" text-anchor="middle" style="white-space:pre" dominant-baseline="alphabetic" transform="translate(1611.48 419.406)">Server</text><path d="M2083.03 331.468c15.4-3.62 34.62-.07 50.91 3.54 16.29 3.6 32.43 10.19 46.82 18.1 14.39 7.92 28.56 17.98 39.51 29.4 10.94 11.42 19.94 25.36 26.17 39.13 6.23 13.78 9.66 28.38 11.21 43.51 1.55 15.13 1.53 32.43-1.93 47.27-3.46 14.85-10.3 28.99-18.83 41.8-8.54 12.81-19.86 24.94-32.37 35.07-12.51 10.13-27.33 19.62-42.71 25.71-15.38 6.08-32.93 9.35-49.56 10.8-16.62 1.46-33.9 1.45-50.21-2.08-16.3-3.53-33.28-11.2-47.62-19.1-14.34-7.9-27.53-16.97-38.41-28.28-10.87-11.31-20.23-25.48-26.82-39.59-6.59-14.12-11.36-30.07-12.69-45.1-1.32-15.03.8-30.23 4.74-45.09 3.94-14.85 10.4-30.91 18.9-44.04 8.49-13.13 19.46-24.93 32.06-34.75 12.59-9.81 25.54-18.13 43.51-24.15 17.97-6.03 50.93-10.51 64.31-11.99 13.39-1.49 15.94.66 16 3.08m4.22-2.33c16.09-.55 33.72 6.52 48.51 12.95 14.8 6.42 28.27 15.04 40.27 25.63 11.99 10.59 23.58 24.28 31.71 37.89 8.14 13.61 14.22 28.99 17.1 43.77 2.88 14.78 2.62 30 .18 44.91-2.43 14.91-7.44 30.68-14.79 44.55-7.36 13.87-17.98 27.58-29.32 38.65s-24.38 20.3-38.72 27.77c-14.33 7.46-31 14.01-47.3 17.04-16.31 3.03-33.78 3.43-50.52 1.13-16.75-2.31-34.74-8.31-49.97-14.97-15.23-6.67-29.54-14.74-41.44-25.02-11.89-10.28-22.01-23.12-29.91-36.68-7.91-13.55-14.55-29.58-17.52-44.65-2.98-15.08-2.56-30.64-.36-45.78 2.21-15.15 6.56-31.27 13.58-45.09 7.03-13.81 17.09-26.94 28.57-37.81 11.47-10.88 25.56-20.1 40.27-27.43 14.7-7.33 31.37-13.66 47.95-16.55 16.59-2.89 42.97-1.17 51.53-.79 8.56.38.28.61-.18 3.07" stroke="#1e1e1e" stroke-width="2" fill="none" stroke-linecap="round"/><text x="69.594" y="31.536" font-family="DejaVu Sans Mono, monospace" font-size="36" fill="#1e1e1e" text-anchor="middle" style="white-space:pre" dominant-baseline="alphabetic" transform="translate(2028.354 434.327)">Object </text><text x="69.594" y="76.536" font-family="DejaVu Sans Mono, monospace" font-size="36" fill="#1e1e1e" text-anchor="middle" style="white-space:pre" dominant-baseline="alphabetic" transform="translate(2028.354 434.327)">Storage</text><path d="M249.008 10c218.13-2.86 435.87-3.01 1043.7 0m0 0c21.3 1.97 32.75 10.4 32 32m0 0c3.14 229.12 2.82 459.86 0 885.25m0 0c-1.6 22.47-12.23 31.37-32 32m0 0c-265.87-4-532.88-3.67-1043.7 0m0 0c-21.63.86-33.26-10.22-32-32m0 0c-1.73-196.69-1.44-394.19 0-885.25m0 0c1.64-20.59 10.32-32.49 32-32" stroke="#1e1e1e" stroke-width="1.5" fill="none" stroke-dasharray="8 9" stroke-linecap="round"/><text x="303.839" y="34.205" font-family="DejaVu Sans Mono, monospace" font-size="40" fill="#1e1e1e" text-anchor="middle" style="white-space:pre" dominant-baseline="alphabetic" transform="translate(480.479 17.902)">Custom paxos consensus</text><g stroke-linecap="round"><path d="M1315.21 415.286c39.69.53 198.54 1.93 238.14 2.08m-239.16-2.78c39.45.27 198.58.73 238.19 1.2" stroke="#6741d9" stroke-width="2" fill="none"/><path d="M1528.83 424.176c9.88-3.36 19.2-7.29 23.55-8.39m-23.55 8.39c7.52-3.07 13.32-3.88 23.55-8.39M1528.94 407.076c9.77 2.97 19.05 5.38 23.44 8.71m-23.44-8.71c7.52 1.81 13.28 5.88 23.44 8.71" stroke="#6741d9" stroke-width="2" fill="none"/></g><g stroke-linecap="round"><path d="M1778.764 419.619c28 .13 141-.63 169.1-.65m-170.59-.27c27.81.38 141.71 1.12 169.94 1.46M1923.654 428.499c9.53-2.24 17.06-6.23 23.56-8.34m-23.56 8.34c7.05-1.87 13.18-5.52 23.56-8.34" stroke="#6741d9" stroke-width="2" fill="none"/><path d="M1923.804 411.399c9.3 4.32 16.78 6.88 23.41 8.76m-23.41-8.76c6.88 3.08 12.97 4.37 23.41 8.76" stroke="#6741d9" stroke-width="2" fill="none"/></g><text x="107" y="31.536" font-family="DejaVu Sans Mono, monospace" font-size="36" fill="#6741d9" text-anchor="middle" style="white-space:pre" dominant-baseline="alphabetic" transform="translate(1357.258 194.413)">After logs</text><text x="107" y="76.536" font-family="DejaVu Sans Mono, monospace" font-size="36" fill="#6741d9" text-anchor="middle" style="white-space:pre" dominant-baseline="alphabetic" transform="translate(1357.258 194.413)">are durable,</text><text x="107" y="121.536" font-family="DejaVu Sans Mono, monospace" font-size="36" fill="#6741d9" text-anchor="middle" style="white-space:pre" dominant-baseline="alphabetic" transform="translate(1357.258 194.413)">stream to</text><text x="107" y="166.536" font-family="DejaVu Sans Mono, monospace" font-size="36" fill="#6741d9" text-anchor="middle" style="white-space:pre" dominant-baseline="alphabetic" transform="translate(1357.258 194.413)">page server</text><text x="96.948" y="31.536" font-family="DejaVu Sans Mono, monospace" font-size="36" fill="#6741d9" text-anchor="middle" style="white-space:pre" dominant-baseline="alphabetic" transform="translate(2050 37)">Write Path</text><g stroke-linecap="round"><path d="M1978.567 39.314c5.39 1.57 20.99 1.37 31.33 0 8.25-3.27 7.05 3.78 9.22 9.22 1.1 9.58-1.27 13.7 0 18.43-2.21 3.43-5.86 5.94-9.22 9.21-5.65 3.05-19.58.39-31.33 0-7.75 1.15-10.24-1.11-9.22-9.21-.74-6.85 1.16-12.15 0-18.43-1.22-3.91 1.2-6.7 9.22-9.22" stroke-width="0" fill="#d0bfff"/><path d="M1978.567 39.314c7.56-.11 15.8-.01 31.33 0m-31.33 0c8.75 1.11 17.12.23 31.33 0m0 0c8.04-.07 9.66 1.14 9.22 9.22m-9.22-9.22c4.26.46 10.15 2.03 9.22 9.22m0 0c-.72 6.5-1.05 8.24 0 18.43m0-18.43c-.8 6.53-.54 11.55 0 18.43m0 0c1.17 8.1-2.67 7.62-9.22 9.21m9.22-9.21c1.14 5.85-1.14 7.1-9.22 9.21m0 0c-11.03-1.37-23.72.96-31.33 0m31.33 0c-12.02.92-23.19-.26-31.33 0m0 0c-7.49 1.04-9.22-3.05-9.22-9.21m9.22 9.21c-4.95-.65-10.69-2.1-9.22-9.21m0 0c1.7-5.59-.22-10.22 0-18.43m0 18.43c.2-7.41.51-12.1 0-18.43m0 0c.65-7.8 2.87-10.35 9.22-9.22m-9.22 9.22c.26-4.61 5-11.48 9.22-9.22" stroke="#6741d9" fill="none"/></g><text x="96.125" y="31.536" font-family="DejaVu Sans Mono, monospace" font-size="36" fill="#099268" text-anchor="middle" style="white-space:pre" dominant-baseline="alphabetic" transform="translate(2041.795 108)">Read Path</text><g stroke-linecap="round"><path d="M1979.347 109.345c8.24.82 15.52-1.69 31.33 0 3.89-1.16 7.41 5.98 9.22 9.22.49 3.05.26 9.76 0 18.43 3.03 2.74-.87 10.41-9.22 9.21-13.01-1.47-23.66-2.44-31.33 0-6.01.29-9.02-1.86-9.22-9.21.12-4.35-1.01-12.42 0-18.43-1.24-6.23 5.4-12.23 9.22-9.22" stroke-width="0" fill="#96f2d7"/><path d="M1979.347 109.345c10.67 1.15 24.03.12 31.33 0m-31.33 0c11.45.15 22.33-.27 31.33 0m0 0c8.04-.16 9.04 3.79 9.22 9.22m-9.22-9.22c7.36.72 9.9 3.72 9.22 9.22m0 0c.71 2.2-.08 6.4 0 18.43m0-18.43c-.78 5.6.18 11.19 0 18.43m0 0c-1.99 6.92-1.38 9.88-9.22 9.21m9.22-9.21c1.34 4.05-4.46 9.67-9.22 9.21m0 0c-11.35 1.21-24.8-.57-31.33 0m31.33 0c-8.39-.65-15.85.33-31.33 0m0 0c-4.79 1.52-11.1-3.03-9.22-9.21m9.22 9.21c-7.17.74-9.87-1.82-9.22-9.21m0 0c-.41-5.88.64-10.9 0-18.43m0 18.43c.53-5.68-.2-9.17 0-18.43m0 0c.99-7.08 4.37-10.59 9.22-9.22m-9.22 9.22c1.56-4.47 1.22-8.49 9.22-9.22" stroke="#099268" fill="none"/></g><text x="80.49" y="31.536" font-family="DejaVu Sans Mono, monospace" font-size="36" fill="#6741d9" text-anchor="middle" style="white-space:pre" dominant-baseline="alphabetic" transform="translate(1772.204 217.085)">PUT</text><text x="80.49" y="76.536" font-family="DejaVu Sans Mono, monospace" font-size="36" fill="#6741d9" text-anchor="middle" style="white-space:pre" dominant-baseline="alphabetic" transform="translate(1772.204 217.085)">when logs</text><text x="80.49" y="121.536" font-family="DejaVu Sans Mono, monospace" font-size="36" fill="#6741d9" text-anchor="middle" style="white-space:pre" dominant-baseline="alphabetic" transform="translate(1772.204 217.085)">reach</text><text x="80.49" y="166.536" font-family="DejaVu Sans Mono, monospace" font-size="36" fill="#6741d9" text-anchor="middle" style="white-space:pre" dominant-baseline="alphabetic" transform="translate(1772.204 217.085)">1 GB</text><g stroke-linecap="round"><path d="M11.15 398.095c34.02.4 170.61 2.94 204.65 3.24M10 400.275c33.74.06 170.69-.78 204.74-.69" stroke="#6741d9" stroke-width="2" fill="none"/><path d="M191.26 408.195c7.92-3.87 19.78-7.99 23.48-8.61m-23.48 8.61c5.71-1.25 12.1-3.59 23.48-8.61" stroke="#6741d9" stroke-width="2" fill="none"/><path d="M191.23 391.095c7.93 2.89 19.81 5.54 23.51 8.49m-23.51-8.49c5.68 2.87 12.08 4.64 23.51 8.49" stroke="#6741d9" stroke-width="2" fill="none"/></g><text x="91.281" y="32.337" font-family="DejaVu Sans Mono, monospace" font-size="36.914" fill="#6741d9" text-anchor="middle" style="white-space:pre" dominant-baseline="alphabetic" transform="translate(17.395 292.627)">INSERT /</text><text x="91.281" y="78.479" font-family="DejaVu Sans Mono, monospace" font-size="36.914" fill="#6741d9" text-anchor="middle" style="white-space:pre" dominant-baseline="alphabetic" transform="translate(17.395 292.627)">UPDATE</text><text x="82.775" y="36.287" font-family="DejaVu Sans Mono, monospace" font-size="41.423" fill="#099268" text-anchor="middle" style="white-space:pre" dominant-baseline="alphabetic" transform="translate(13.398 511.88)">SELECT</text><g stroke-linecap="round"><path d="M14.767 496.615c33.43.28 168.12 3 201.61 3.44m-199.6-1.36c33.23-.12 165.85-.68 198.85-.36" stroke="#099268" stroke-width="2" fill="none"/><path d="M192.127 506.845c6.69-2.36 18.08-6.53 23.5-8.51m-23.5 8.51c6.78-2.57 14.88-5.65 23.5-8.51M192.147 489.745c6.8 3.78 18.18 5.74 23.48 8.59m-23.48-8.59c6.75 2.54 14.84 4.58 23.48 8.59" stroke="#099268" stroke-width="2" fill="none"/></g><g stroke-linecap="round"><path d="M609.327 477.73c156.09-.21 780.22-1.09 936.12-1.07m-937.65.14c155.99-.13 780.82.44 936.8.85M1521.087 486.16c6.34-1.83 10.24-5.22 23.51-8.51m-23.51 8.51c8.34-3.44 15.08-6.35 23.51-8.51" stroke="#099268" stroke-width="2" fill="none"/><path d="M1521.117 469.06c6.39 2.54 10.28 3.51 23.48 8.59m-23.48-8.59c8.21 1.9 14.94 4.34 23.48 8.59" stroke="#099268" stroke-width="2" fill="none"/></g><text x="138.009" y="32.169" font-family="DejaVu Sans Mono, monospace" font-size="35" fill="#099268" text-anchor="middle" style="white-space:pre" dominant-baseline="alphabetic" transform="translate(640.34 504.379)">Each page</text><text x="138.009" y="78.073" font-family="DejaVu Sans Mono, monospace" font-size="35" fill="#099268" text-anchor="middle" style="white-space:pre" dominant-baseline="alphabetic" transform="translate(640.34 504.379)">postgres wants</text><text x="138.009" y="123.977" font-family="DejaVu Sans Mono, monospace" font-size="35" fill="#099268" text-anchor="middle" style="white-space:pre" dominant-baseline="alphabetic" transform="translate(640.34 504.379)">to load</text><text x="138.009" y="169.881" font-family="DejaVu Sans Mono, monospace" font-size="35" fill="#099268" text-anchor="middle" style="white-space:pre" dominant-baseline="alphabetic" transform="translate(640.34 504.379)">goes to</text><text x="138.009" y="215.785" font-family="DejaVu Sans Mono, monospace" font-size="36.723" fill="#099268" text-anchor="middle" style="white-space:pre" dominant-baseline="alphabetic" transform="translate(640.34 504.379)">page server</text><g stroke-linecap="round"><path d="M1794.916 488.916c22.34.26 112.69.61 135.3.58m-133.5-1.45c22.69-.01 113.7-.54 135.85-.19" stroke="#099268" stroke-width="2" fill="none"/><path d="M1909.046 496.326c8.61-3.87 17.59-6.18 23.52-8.47m-23.52 8.47c7.09-2.85 15.06-4.6 23.52-8.47M1909.106 479.226c8.5 1.95 17.46 5.46 23.46 8.63m-23.46-8.63c7.01 2.54 14.96 6.18 23.46 8.63" stroke="#099268" stroke-width="2" fill="none"/></g><text x="107.563" y="31.536" font-family="DejaVu Sans Mono, monospace" font-size="36" fill="#099268" text-anchor="middle" style="white-space:pre" dominant-baseline="alphabetic" transform="translate(1746.933 517.995)">GET</text><text x="107.563" y="76.536" font-family="DejaVu Sans Mono, monospace" font-size="36" fill="#099268" text-anchor="middle" style="white-space:pre" dominant-baseline="alphabetic" transform="translate(1746.933 517.995)">when page</text><text x="107.563" y="121.536" font-family="DejaVu Sans Mono, monospace" font-size="36" fill="#099268" text-anchor="middle" style="white-space:pre" dominant-baseline="alphabetic" transform="translate(1746.933 517.995)">not in cache</text><path d="M389.406 489.282c12.98-4.63 28.91-4.7 43.38-3.48 14.47 1.23 30.59 5.23 43.45 10.83 12.85 5.61 24.16 13.55 33.67 22.82 9.51 9.27 18.26 21.39 23.4 32.82 5.15 11.43 7.57 23.57 7.46 35.76-.12 12.19-2.72 25.77-8.14 37.37-5.41 11.59-14.36 23.21-24.35 32.2-9.98 8.98-22.68 16.4-35.56 21.71-12.88 5.3-27.32 9.05-41.71 10.09-14.4 1.04-30.52-.38-44.64-3.84-14.12-3.46-28.44-9.45-40.1-16.91-11.67-7.46-22.29-17.3-29.89-27.85-7.6-10.56-13.25-23.4-15.69-35.47-2.43-12.07-1.68-24.81 1.09-36.95 2.77-12.15 7.68-25.18 15.54-35.9 7.86-10.73 18.81-21.01 31.6-28.44 12.79-7.44 36.78-13.7 45.13-16.17 8.36-2.47 4.57-.11 5 1.36m5.99-4.28c13.51-3.02 30.64.83 44.42 3.89 13.78 3.07 26.35 7.91 38.24 14.48 11.9 6.58 24.57 15.12 33.13 24.97 8.56 9.85 14.94 21.86 18.23 34.13 3.29 12.28 3.67 27.19 1.53 39.51-2.13 12.31-7.03 23.81-14.33 34.39-7.29 10.57-18.23 20.78-29.44 29.06-11.22 8.29-24.4 16.37-37.85 20.64-13.44 4.27-28.17 5.57-42.81 4.99-14.65-.58-31.42-3.56-45.07-8.47-13.65-4.91-26.38-12.03-36.83-20.99-10.45-8.97-20.17-21.12-25.86-32.79-5.69-11.66-7.66-25-8.28-37.2-.61-12.2.08-24.44 4.61-35.98 4.53-11.54 13-23.77 22.56-33.27 9.56-9.5 22.29-17.55 34.77-23.73 12.48-6.17 32.89-11.44 40.08-13.33 7.2-1.9 2.63-.01 3.09 1.97" stroke="#1971c2" stroke-width="2" fill="none" stroke-linecap="round"/><text x="78.073" y="31.536" font-family="DejaVu Sans Mono, monospace" font-size="36" fill="#1971c2" text-anchor="middle" style="white-space:pre" dominant-baseline="alphabetic" transform="translate(342.095 564.895)">Postgres</text><path d="M466.156 718.232c13.79 2.87 27.33 12.25 37.87 20.69 10.54 8.44 19.06 18.86 25.37 29.95 6.31 11.09 11.21 24.16 12.49 36.6 1.27 12.44-.66 26.18-4.86 38.05-4.2 11.87-11.36 23.59-20.34 33.18-8.97 9.6-20.9 18.08-33.52 24.39-12.62 6.3-27.74 11.3-42.18 13.45-14.45 2.15-30.21 1.8-44.48-.53-14.27-2.33-29.03-6.81-41.16-13.43-12.12-6.63-23.04-16.32-31.59-26.33-8.56-10.01-15.8-21.8-19.74-33.71-3.94-11.91-5.49-25.39-3.92-37.75 1.56-12.36 6.83-25.42 13.33-36.41 6.49-10.99 14.85-21.48 25.62-29.54 10.77-8.06 25.14-14.41 39-18.83 13.86-4.42 27.93-8.24 44.15-7.7s42.6 7.94 53.16 10.94c10.56 3 11.09 5.47 10.19 7.06m-9.21-5.82c12.74 4.32 25.34 15.01 34.96 24.72 9.62 9.72 17.51 21.89 22.78 33.56 5.27 11.67 9.35 24.4 8.85 36.47-.49 12.07-5.7 24.55-11.82 35.94-6.12 11.39-14.75 23.46-24.88 32.39-10.13 8.93-22.64 15.9-35.92 21.2-13.28 5.29-29.19 9.74-43.76 10.59-14.57.84-29.81-1.64-43.68-5.52-13.87-3.88-28.15-10.04-39.51-17.76-11.37-7.73-21.56-17.58-28.7-28.59-7.14-11.02-12.11-25.38-14.15-37.5-2.04-12.11-1.44-23.19 1.9-35.19 3.34-12 10.36-26.03 18.15-36.8 7.79-10.76 17.03-20.66 28.57-27.8 11.54-7.14 26.26-12.11 40.65-15.06 14.39-2.96 30.91-4.11 45.67-2.66 14.75 1.45 36.11 8.75 42.86 11.35 6.75 2.6-1.46 2.41-2.35 4.27" stroke="#1971c2" stroke-width="2" fill="none" stroke-linecap="round"/><text x="78.073" y="31.536" font-family="DejaVu Sans Mono, monospace" font-size="36" fill="#1971c2" text-anchor="middle" style="white-space:pre" dominant-baseline="alphabetic" transform="translate(342.095 790.866)">Postgres</text><path d="M1093.453 494.98c12.03-4.88 28.33-4.82 42.41-3.89 14.08.92 29.36 4.04 42.07 9.43s24.73 13.88 34.21 22.92c9.48 9.03 17.44 20.09 22.67 31.32 5.23 11.22 8.45 24.16 8.72 36.02.26 11.85-2.37 24-7.13 35.12-4.75 11.12-12.18 22.46-21.4 31.6-9.22 9.13-21.58 17.59-33.93 23.24-12.35 5.65-26.25 9.37-40.16 10.65-13.91 1.27-29.66.18-43.29-3.02-13.64-3.19-27.28-9.28-38.52-16.16-11.25-6.89-21.19-15.23-28.96-25.13-7.76-9.9-14.81-22.17-17.64-34.28-2.83-12.1-1.73-26.2.68-38.32 2.41-12.13 6.78-24.33 13.77-34.42 6.99-10.1 16.1-18.6 28.19-26.17 12.09-7.56 35.69-15.94 44.34-19.21 8.65-3.27 6.86-2.02 7.56-.4m66.26 4.17c13.1 2.95 25.97 13.54 36.15 22.29 10.17 8.75 19.07 19.55 24.9 30.23 5.83 10.69 9.38 22.13 10.11 33.88.72 11.76-1.51 24.74-5.76 36.65-4.24 11.91-11.16 25.09-19.71 34.82-8.56 9.73-19.46 17.66-31.64 23.57s-27.3 10.17-41.44 11.89c-14.15 1.71-29.81.96-43.42-1.61-13.62-2.57-26.36-7.1-38.26-13.8-11.91-6.71-24.68-16.32-33.18-26.44-8.5-10.12-14.83-22.34-17.82-34.27-3-11.92-2.11-25.25-.15-37.29s5.65-24.28 11.89-34.94c6.24-10.66 14.69-21.22 25.54-29.04s26.05-14.05 39.56-17.88c13.51-3.82 27.77-5.33 41.5-5.04 13.73.28 34.14 5.05 40.87 6.75 6.74 1.7.33 1.43-.46 3.43" stroke="#b8491c" stroke-width="2" fill="none" stroke-linecap="round"/><text x="54.833" y="31.536" font-family="DejaVu Sans Mono, monospace" font-size="36" fill="#b8491c" text-anchor="middle" style="white-space:pre" dominant-baseline="alphabetic" transform="translate(1072.818 547.013)">Safe</text><text x="54.833" y="76.536" font-family="DejaVu Sans Mono, monospace" font-size="36" fill="#b8491c" text-anchor="middle" style="white-space:pre" dominant-baseline="alphabetic" transform="translate(1072.818 547.013)">keeper</text><path d="M1138.622 706.313c13.16-1.19 28.51 3.59 41.62 8.03 13.12 4.44 26.69 10.34 37.05 18.6 10.35 8.26 19.12 20.03 25.09 30.96 5.97 10.94 9.58 22.55 10.73 34.65 1.14 12.09.35 26.28-3.88 37.91-4.22 11.63-12.53 22.48-21.46 31.88-8.93 9.39-20.2 18.32-32.11 24.49-11.92 6.17-25.72 10.54-39.4 12.51-13.68 1.97-29.03 1.65-42.7-.68-13.67-2.34-27.34-6.87-39.31-13.32-11.97-6.44-24.18-15.65-32.5-25.37-8.32-9.73-14.02-21.41-17.44-32.98-3.41-11.58-4.57-24.29-3.05-36.48 1.52-12.2 5.73-25.76 12.19-36.67 6.47-10.91 16.25-20.9 26.6-28.8 10.35-7.9 21.56-14.5 35.49-18.6 13.93-4.11 39.56-5.56 48.09-6.01 8.53-.46 3.27 1.64 3.08 3.27m-11.01-4.68c13.33-1.49 27.79 3.61 41 8.02 13.22 4.41 27.78 10.59 38.3 18.46 10.51 7.87 18.63 17.88 24.79 28.77 6.15 10.9 10.49 24.62 12.13 36.62 1.64 12.01 1.52 23.61-2.3 35.41-3.82 11.81-12.23 25.39-20.61 35.43-8.38 10.05-17.99 18.77-29.69 24.85-11.7 6.08-26.54 9.29-40.5 11.65-13.97 2.36-29.29 4.66-43.3 2.51-14.01-2.15-28.95-8.89-40.76-15.44-11.81-6.55-21.59-14.31-30.1-23.84-8.51-9.53-17.08-21.82-20.96-33.36-3.87-11.54-3.55-24.12-2.28-35.88 1.27-11.76 3.79-23.98 9.9-34.68 6.11-10.69 16.31-21.33 26.78-29.49 10.46-8.15 23.17-14.7 36.02-19.45 12.84-4.76 34.03-7.98 41.04-9.06 7.01-1.08.95.6 1.02 2.58" stroke="#b8491c" stroke-width="2" fill="none" stroke-linecap="round"/><text x="54.833" y="31.536" font-family="DejaVu Sans Mono, monospace" font-size="36" fill="#b8491c" text-anchor="middle" style="white-space:pre" dominant-baseline="alphabetic" transform="translate(1081.857 761.685)">Safe</text><text x="54.833" y="76.536" font-family="DejaVu Sans Mono, monospace" font-size="36" fill="#b8491c" text-anchor="middle" style="white-space:pre" dominant-baseline="alphabetic" transform="translate(1081.857 761.685)">keeper</text></svg>
