<svg xmlns="http://www.w3.org/2000/svg" width="1662.565" height="486.36" filter="invert(93%) hue-rotate(180deg)"><path d="M204.501 76.978c82.21-1.86 165.08-.27 241.22 0m-241.22 0c77.96.89 155.95.23 241.22 0m0 0c21.1.34 30.89 9.15 32 32m-32-32c21.68.17 32.45 8.43 32 32m0 0c.93 91.34-1 180.02 0 254.1m0-254.1c2.74 67.47 1.28 136.67 0 254.1m0 0c-.31 23.24-10.57 30.19-32 32m32-32c-1.96 19.24-10.06 30.01-32 32m0 0c-67.72 3.07-135.24 3.33-241.22 0m241.22 0c-83.98-.98-168.34-1.54-241.22 0m0 0c-20.61-.88-32.63-10.86-32-32m32 32c-22.94 1.87-30.29-8.81-32-32m0 0c-3.39-57.5-.67-116.56 0-254.1m0 254.1c-2.19-60.24-1.67-121.07 0-254.1m0 0c.88-20.3 10.49-31.19 32-32m-32 32c-1.82-22.08 10.19-32.75 32-32" stroke="#1e1e1e" stroke-width="2" fill="none" stroke-linecap="round"/><text y="30.868" font-family="DejaVu Sans Mono, monospace" font-size="35.238" fill="#1e1e1e" style="white-space:pre" dominant-baseline="alphabetic" transform="translate(187.867 88.415)">Index Cluster</text><path d="M265.163 169.381c7.87-.14 18.13 4.17 25.03 8.27 6.9 4.11 13.15 9.68 16.36 16.36 3.22 6.69 4.4 16.49 2.92 23.76-1.48 7.27-6.08 14.74-11.78 19.88-5.7 5.13-14.46 9.16-22.42 10.92-7.97 1.76-17.53 1.96-25.37-.34-7.85-2.3-16.49-7.96-21.71-13.48-5.22-5.52-8.69-12.58-9.61-19.65-.92-7.07.57-16.24 4.1-22.77 3.52-6.54 9.37-12.76 17.07-16.46 7.71-3.69 23.6-5.14 29.15-5.71 5.55-.58 4.05 1.57 4.15 2.28m-24.12.22c7.58-2.84 18.99-3.93 27-2.28 8.02 1.66 15.67 6.68 21.1 12.2 5.42 5.52 10.17 13.6 11.44 20.92 1.27 7.31-.58 16.51-3.84 22.97-3.27 6.47-9.16 11.95-15.75 15.81-6.59 3.87-15.59 7.04-23.78 7.38-8.19.34-18.36-1.72-25.34-5.33-6.98-3.61-13.07-10.12-16.52-16.33-3.45-6.22-5.12-13.64-4.2-20.97.92-7.33 4.66-17.3 9.71-23.02 5.06-5.71 17.15-9.42 20.62-11.26 3.46-1.84-.01-.05.15.22" stroke="#1e1e1e" stroke-width="2" fill="none" stroke-linecap="round"/><text x="25.083" y="24.528" font-family="DejaVu Sans Mono, monospace" font-size="28" fill="#1e1e1e" text-anchor="middle" style="white-space:pre" dominant-baseline="alphabetic" transform="translate(238.607 192.675)">Pod</text><g stroke-linecap="round"><path d="M11.442 260.807c26.07-.55 130.01-1.91 156.23-2.32m-157.67 1.22c26.47-.43 133.62.31 159.99.3" stroke="#1e1e1e" stroke-width="2" fill="none"/><path d="M146.462 268.477c6.52-3.68 13.4-4.3 23.53-8.47m-23.53 8.47c6.89-2.66 12.78-5.68 23.53-8.47" stroke="#1e1e1e" stroke-width="2" fill="none"/><path d="M146.522 251.377c6.63 1.23 13.49 5.52 23.47 8.63m-23.47-8.63c6.97 2.29 12.84 4.22 23.47 8.63" stroke="#1e1e1e" stroke-width="2" fill="none"/></g><text x="69.583" y="24.528" font-family="DejaVu Sans Mono, monospace" font-size="28" fill="#1e1e1e" text-anchor="middle" style="white-space:pre" dominant-baseline="alphabetic" transform="translate(22.048 177.42)">JSON</text><text x="69.583" y="59.528" font-family="DejaVu Sans Mono, monospace" font-size="28" fill="#1e1e1e" text-anchor="middle" style="white-space:pre" dominant-baseline="alphabetic" transform="translate(22.048 177.42)">documents</text><path d="M821.653 82.191c11.99-3.29 27.99-2.23 41.11.32 13.13 2.55 26.76 7.68 37.64 14.97 10.88 7.29 20.82 18.4 27.64 28.77 6.82 10.36 11.26 21.54 13.3 33.41 2.03 11.86 1.99 26.14-1.08 37.76-3.06 11.62-9.46 22.38-17.32 31.96-7.86 9.58-18.55 19.07-29.85 25.51-11.3 6.45-24.94 11.19-37.95 13.18-13 2-27.04 1.84-40.08-1.19-13.03-3.02-27.21-9.62-38.13-16.95-10.91-7.33-20.4-16.83-27.38-27.01-6.98-10.19-12.53-22.24-14.49-34.12-1.96-11.87-.67-25.4 2.74-37.13 3.42-11.73 9.88-23.71 17.73-33.25s17.64-17.75 29.36-24c11.73-6.26 33.78-11.5 41.01-13.51 7.23-2.01 2.4-.17 2.38 1.43m48.99 5.19c11.97 2.86 24.29 12.02 33.81 20.74 9.51 8.72 17.8 20.49 23.28 31.58 5.48 11.1 9.46 23.08 9.6 35 .13 11.92-3.41 25.47-8.79 36.54-5.38 11.07-13.82 21.45-23.5 29.88-9.68 8.44-22.34 16.31-34.58 20.73-12.24 4.43-25.85 5.93-38.85 5.81-13.01-.11-27.23-2.01-39.2-6.47-11.97-4.47-23.46-11.63-32.61-20.31-9.16-8.67-17.18-20.6-22.32-31.74-5.15-11.15-8.08-23.41-8.54-35.13-.47-11.72.76-23.95 5.72-35.21 4.97-11.26 14.56-23.71 24.06-32.35 9.5-8.64 20.59-15.24 32.94-19.5 12.36-4.26 27.97-6.1 41.18-6.05 13.2.06 31.52 4.9 38.05 6.39 6.53 1.48 1.82 1.13 1.13 2.52" stroke="#1e1e1e" stroke-width="2" fill="none" stroke-linecap="round"/><text x="54.448" y="24.528" font-family="DejaVu Sans Mono, monospace" font-size="28" fill="#1e1e1e" text-anchor="middle" style="white-space:pre" dominant-baseline="alphabetic" transform="translate(784.27 139.465)">Object </text><text x="54.448" y="59.528" font-family="DejaVu Sans Mono, monospace" font-size="28" fill="#1e1e1e" text-anchor="middle" style="white-space:pre" dominant-baseline="alphabetic" transform="translate(784.27 139.465)">Storage</text><path d="M823.104 306.727c11.06-3.48 25.72-2.4 37.71-.44 11.98 1.96 23.95 6.24 34.2 12.2 10.25 5.96 20.25 14.39 27.3 23.56 7.05 9.17 12.27 20.75 15 31.45 2.74 10.7 3.76 22.03 1.41 32.74-2.35 10.7-8.55 22.4-15.51 31.49-6.97 9.1-16.19 16.89-26.28 23.07-10.09 6.19-22.22 11.7-34.24 14.04-12.02 2.34-25.74 2.11-37.88.02-12.14-2.09-24.69-6.67-34.95-12.56-10.25-5.88-19.62-13.72-26.6-22.75-6.99-9.03-12.65-20.6-15.31-31.41-2.67-10.81-3.04-22.88-.66-33.45 2.38-10.56 8.03-20.9 14.94-29.93 6.9-9.04 15.63-17.79 26.51-24.29s31.72-12.36 38.77-14.72c7.05-2.36 3.42-.9 3.54.58m19.1-1.83c11.77-.67 23.68 3.1 34.63 8.26 10.95 5.16 22.75 13.99 31.09 22.69 8.34 8.7 14.94 19.46 18.95 29.53 4.02 10.07 6.16 20.44 5.14 30.88-1.03 10.44-5.84 21.77-11.26 31.76-5.42 10-12.15 20.8-21.24 28.21-9.1 7.4-21.48 12.9-33.36 16.25-11.87 3.34-25.37 4.44-37.87 3.8-12.5-.63-25.85-2.98-37.13-7.6-11.28-4.61-22.52-11.61-30.55-20.08-8.04-8.47-14.07-20.3-17.67-30.72-3.6-10.43-4.7-21.17-3.95-31.82.76-10.65 3.05-22.28 8.46-32.09 5.41-9.81 14.48-19.21 24.02-26.78s21.55-15.07 33.22-18.63c11.67-3.56 30.6-2.71 36.81-2.75 6.2-.04.63 1.29.44 2.5" stroke="#1e1e1e" stroke-width="2" fill="none" stroke-linecap="round"/><text x="61.083" y="24.528" font-family="DejaVu Sans Mono, monospace" font-size="28" fill="#1e1e1e" text-anchor="middle" style="white-space:pre" dominant-baseline="alphabetic" transform="translate(781.63 372.982)">Postgres</text><g stroke-linecap="round"><path d="M481.707 211.387c41.46-4.13 208.37-21.38 250.06-25.86m-248.4 25.36c41.28-4.51 206.18-23.1 247.48-27.36" stroke="#6741d9" stroke-width="2" fill="none"/><path d="M708.417 194.567c8.98-3.29 14.92-6.7 22.43-11.04m-22.43 11.04c5.23-2.11 10.41-4.73 22.43-11.04M706.567 177.567c9.57 2.22 16.11 4.31 24.28 5.96m-24.28-5.96c5.56 1.86 11.16 3.2 24.28 5.96" stroke="#6741d9" stroke-width="2" fill="none"/></g><text x="81.667" y="24.528" font-family="DejaVu Sans Mono, monospace" font-size="28" fill="#6741d9" text-anchor="middle" style="white-space:pre" dominant-baseline="alphabetic" transform="translate(519.95 134.669)">1. PUT split</text><text x="93.927" y="31.536" font-family="DejaVu Sans Mono, monospace" font-size="36" fill="#6741d9" text-anchor="middle" style="white-space:pre" dominant-baseline="alphabetic" transform="translate(514.517 10)">Write path</text><g stroke-linecap="round"><path d="M480.856 257.657c44.66 16.74 223.67 82.67 268.35 98.94m-269.67-99.76c44.44 16.54 223.93 81.63 268.66 98.23" stroke="#6741d9" stroke-width="2" fill="none"/><path d="M723.196 355.017c9.55-.22 19.55-.68 25 .05m-25-.05c7.31.74 13.29-.5 25 .05M729.076 338.957c7.33 5.46 15.26 10.67 19.12 16.11m-19.12-16.11c5.58 5.27 9.9 8.57 19.12 16.11" stroke="#6741d9" stroke-width="2" fill="none"/></g><text x="81.208" y="24.528" font-family="DejaVu Sans Mono, monospace" font-size="28" fill="#6741d9" text-anchor="middle" style="white-space:pre" dominant-baseline="alphabetic" transform="translate(519.203 341.378)">2. UPDATE</text><text x="93.104" y="31.536" font-family="DejaVu Sans Mono, monospace" font-size="36" fill="#099268" text-anchor="middle" style="white-space:pre" dominant-baseline="alphabetic" transform="translate(973.014 13.102)">Read path</text><g stroke-linecap="round"><path d="M1193.79 248.23c-43.3 16.55-217.38 83.59-260.56 100.11m259.45-98.05c-42.9 16.79-214.06 83.32-257.11 99.63" stroke="#099268" stroke-width="2" fill="none"/><path d="M954.42 333.51c-7.27 3.69-10.9 10.98-18.85 16.41m18.85-16.41c-3.94 4.22-9.1 7.53-18.85 16.41M960.56 349.47c-9.03-.93-14.45 1.69-24.99.45m24.99-.45c-5.46.7-11.99.47-24.99.45" stroke="#099268" stroke-width="2" fill="none"/></g><text x="70.99" y="24.528" font-family="DejaVu Sans Mono, monospace" font-size="28" fill="#099268" text-anchor="middle" style="white-space:pre" dominant-baseline="alphabetic" transform="translate(997.278 346.27)">1. SELECT</text><g stroke-linecap="round"><path d="M1194.647 216.81c-41.27-3.58-206.49-18.64-247.77-22.08m246.89 21.54c-41.01-3.5-204.04-16.8-244.79-20.49" stroke="#099268" stroke-width="2" fill="none"/><path d="M973.117 189.26c-7.53.75-19.82 3.37-24.14 6.52m24.14-6.52c-8.58 1.23-17.05 4.54-24.14 6.52M971.657 206.3c-7.03-5.72-18.77-9.55-22.68-10.52m22.68 10.52c-7.96-4.65-15.93-7.22-22.68-10.52" stroke="#099268" stroke-width="2" fill="none"/></g><text x="96.74" y="24.528" font-family="DejaVu Sans Mono, monospace" font-size="28" fill="#099268" text-anchor="middle" style="white-space:pre" dominant-baseline="alphabetic" transform="translate(973.53 134.807)">2. GET splits</text><text x="45.677" y="24.528" font-family="DejaVu Sans Mono, monospace" font-size="28" fill="#1e1e1e" text-anchor="middle" style="white-space:pre" dominant-baseline="alphabetic" transform="translate(1539.169 181.228)">Search</text><text x="45.677" y="59.528" font-family="DejaVu Sans Mono, monospace" font-size="28" fill="#1e1e1e" text-anchor="middle" style="white-space:pre" dominant-baseline="alphabetic" transform="translate(1539.169 181.228)">query</text><g stroke-linecap="round"><path d="M1650.734 272.04c-22.75-.06-113.62-.92-136.23-1.03m138.06.55c-22.36.1-112.81.68-135.9.87" stroke="#1e1e1e" stroke-width="2" fill="none"/><path d="M1540.094 263.71c-4.41.44-12.83 3.68-23.43 8.72m23.43-8.72c-6.6 2.15-14.36 5.75-23.43 8.72M1540.214 280.81c-4.49-4.12-12.95-5.43-23.55-8.38m23.55 8.38c-6.61-3.13-14.41-4.82-23.55-8.38" stroke="#1e1e1e" stroke-width="2" fill="none"/></g><path d="M407.33 220.273c7.07 3.01 14.33 10.73 18.67 17.66 4.34 6.92 7.46 15.79 7.39 23.88-.08 8.09-3.52 17.74-7.84 24.65s-10.65 13.48-18.08 16.81c-7.42 3.34-18.13 4.4-26.47 3.18-8.34-1.22-17.33-4.96-23.58-10.48-6.24-5.52-11.63-14.61-13.87-22.62-2.25-8.02-2.05-17.55.41-25.48 2.45-7.94 8-16.96 14.31-22.11 6.31-5.15 15.09-8.01 23.55-8.79 8.46-.78 22.4 3.06 27.21 4.09 4.81 1.02 2.03 1.24 1.64 2.07m-33.2-5.42c7.38-2.57 18.13-2.88 25.9-.36s15.46 8.74 20.73 15.46c5.26 6.71 10.19 16.44 10.85 24.83.66 8.38-2.8 18.14-6.89 25.47-4.09 7.32-10.37 14.49-17.65 18.46-7.28 3.97-17.62 6.05-26.03 5.37-8.41-.67-17.9-4.51-24.41-9.42-6.5-4.91-11.86-12.77-14.6-20.03-2.75-7.25-3.57-15.58-1.86-23.5 1.71-7.92 6.53-17.95 12.11-24.02 5.58-6.07 17.68-10.42 21.38-12.39 3.71-1.97.73-.12.82.57" stroke="#1e1e1e" stroke-width="2" fill="none" stroke-linecap="round"/><text x="25.083" y="24.528" font-family="DejaVu Sans Mono, monospace" font-size="28" fill="#1e1e1e" text-anchor="middle" style="white-space:pre" dominant-baseline="alphabetic" transform="translate(363.153 244.301)">Pod</text><path d="M300.41 271.357c7.94 1.01 17.06 7.53 23.06 13.6 6.01 6.07 11.2 15 12.97 22.81 1.76 7.8.91 16.59-2.38 24-3.29 7.42-10.48 15.49-17.36 20.48-6.88 4.98-15.43 8.94-23.93 9.42-8.5.49-19.62-2.34-27.08-6.49-7.45-4.16-13.96-11.25-17.65-18.43-3.69-7.19-5.13-16.56-4.48-24.67.64-8.11 3.49-17.61 8.36-24 4.88-6.38 12.1-12.08 20.91-14.32s25.66.3 31.93.87c6.27.57 6.01 1.97 5.68 2.56m1.43-.87c7.24 3.26 14.72 11.45 18.6 18.77 3.88 7.31 5.1 17.15 4.68 25.11-.41 7.97-2.14 16.2-7.16 22.68-5.03 6.48-15.22 13.2-22.99 16.21-7.77 3-15.35 3.66-23.65 1.81-8.29-1.84-19.76-7.04-26.09-12.89-6.33-5.84-10.09-14.55-11.86-22.17-1.77-7.62-1.83-15.98 1.23-23.56 3.07-7.57 10.28-16.8 17.14-21.88 6.85-5.08 15.72-8.12 24-8.61 8.28-.5 21.53 4.83 25.68 5.65 4.15.82-.48-1.39-.78-.72" stroke="#1e1e1e" stroke-width="2" fill="none" stroke-linecap="round"/><text x="25.083" y="24.528" font-family="DejaVu Sans Mono, monospace" font-size="28" fill="#1e1e1e" text-anchor="middle" style="white-space:pre" dominant-baseline="alphabetic" transform="translate(264.272 298.911)">Pod</text><path d="M1233.058 80.315c61.03 1 122.44.05 249 0m-249 0c63.08-1.05 126.01-1.18 249 0m0 0c22.14-1.65 32.65 9.28 32 32m-32-32c23.37-.86 33.95 12.41 32 32m0 0c-3.17 51.83-.33 102.38 0 252.54m0-252.54c1.49 66.12 2.33 132.26 0 252.54m0 0c-.41 21.14-11.46 32.54-32 32m32-32c-.58 21.33-11.78 30.01-32 32m0 0c-60.4.42-118.62.15-249 0m249 0c-94.06 1.44-186.18 1.09-249 0m0 0c-22.52-.76-31.26-12.36-32-32m32 32c-23.53 2.02-32.9-10.99-32-32m0 0c-1.48-90.85-2.93-179.24 0-252.54m0 252.54c1.12-94.47 1.22-187.75 0-252.54m0 0c-1.53-19.7 10.03-32.31 32-32m-32 32c-2.29-22.74 12.21-33.89 32-32" stroke="#1e1e1e" stroke-width="2" fill="none" stroke-linecap="round"/><text y="30.868" font-family="DejaVu Sans Mono, monospace" font-size="35.238" fill="#1e1e1e" style="white-space:pre" dominant-baseline="alphabetic" transform="translate(1212.006 91.382)">Search Cluster</text><path d="M1276.11 174.738c7-2.8 17.63-2.01 25.57-.23 7.94 1.78 16.32 5.66 22.07 10.91s10.62 13.39 12.43 20.61c1.81 7.22 1.07 16.18-1.59 22.7-2.67 6.52-7.68 12.24-14.39 16.41-6.71 4.18-17.41 7.95-25.89 8.64-8.49.68-18.11-.98-25.01-4.54-6.91-3.55-12.57-10.5-16.44-16.8-3.87-6.31-7.34-13.81-6.79-21.02.55-7.22 4.47-16.33 10.1-22.3 5.63-5.96 19.07-11.08 23.66-13.5s3.75-1.44 3.87-1m13.78-2.4c7.76.44 16.85 6.26 23.37 11.05 6.51 4.8 13.25 10.78 15.73 17.72 2.47 6.94 1.61 16.57-.87 23.92-2.47 7.35-7.63 15.27-13.99 20.19-6.35 4.91-15.93 8.27-24.15 9.3-8.22 1.04-18.12 0-25.18-3.08-7.05-3.08-12.68-9.09-17.17-15.41-4.49-6.31-9.55-14.95-9.77-22.47-.21-7.52 4.18-16.78 8.49-22.64 4.3-5.86 10.06-9.59 17.34-12.51 7.28-2.92 21.72-4.49 26.34-4.99 4.61-.5 1.29 1.31 1.33 1.99" stroke="#1e1e1e" stroke-width="2" fill="none" stroke-linecap="round"/><text x="25.083" y="24.528" font-family="DejaVu Sans Mono, monospace" font-size="28" fill="#1e1e1e" text-anchor="middle" style="white-space:pre" dominant-baseline="alphabetic" transform="translate(1267.164 196.012)">Pod</text><path d="M1395.366 224.38c6.66-4 17.24-4.98 25.52-4.01 8.28.98 17.48 4.98 24.15 9.85 6.66 4.88 13.32 11.76 15.83 19.41 2.5 7.66 1.5 18.34-.8 26.52-2.3 8.19-7.27 17-12.99 22.58-5.72 5.58-13.27 9.34-21.32 10.91-8.06 1.57-19.35 1.61-27.03-1.5-7.68-3.11-14.49-10.39-19.06-17.16-4.57-6.77-8.09-15.21-8.34-23.47-.25-8.26 2.09-18.5 6.83-26.08 4.75-7.59 17.29-16.14 21.63-19.42 4.35-3.29 4.16-.99 4.45-.29m-6.08.84c6.92-3.91 16.46-4.14 24.41-2.66 7.94 1.48 17.17 6.06 23.25 11.53 6.08 5.47 10.95 13.46 13.23 21.3 2.29 7.85 2.3 17.95.49 25.77-1.82 7.81-5.21 15.91-11.39 21.13-6.18 5.21-17.39 9.17-25.69 10.15-8.3.98-16.49-1.19-24.1-4.27-7.6-3.09-16.87-7.5-21.54-14.25-4.68-6.76-6.87-17.96-6.52-26.27.36-8.32 4.06-16.66 8.63-23.61 4.58-6.95 15.75-14.99 18.84-18.09 3.09-3.1-.82-1.4-.3-.5" stroke="#1e1e1e" stroke-width="2" fill="none" stroke-linecap="round"/><text x="25.083" y="24.528" font-family="DejaVu Sans Mono, monospace" font-size="28" fill="#1e1e1e" text-anchor="middle" style="white-space:pre" dominant-baseline="alphabetic" transform="translate(1391.71 247.638)">Pod</text><path d="M1325.276 275.934c8.28.31 18.8 3.93 25 9.2 6.2 5.27 10.21 14.36 12.19 22.41 1.99 8.04 1.91 18.12-.3 25.85-2.21 7.74-6.52 15.22-12.96 20.55-6.43 5.33-17.19 10.37-25.65 11.44-8.46 1.06-17.6-1.53-25.1-5.04-7.5-3.5-15.48-9.06-19.89-16-4.4-6.94-6.62-17.29-6.55-25.65.07-8.36 2.36-17.72 6.97-24.5 4.6-6.79 12.54-12.99 20.67-16.19 8.13-3.2 23.27-2.72 28.13-3.02 4.86-.3 1.12.34 1.02 1.23m-24.89 1.33c7.33-2.74 17.6-2.7 25.66-.52 8.07 2.18 16.68 7.58 22.74 13.59 6.06 6.01 12.33 14.63 13.63 22.48 1.29 7.84-2.27 17.37-5.88 24.58-3.6 7.21-8.57 13.9-15.75 18.67-7.18 4.76-18.68 9.68-27.33 9.91-8.66.23-17.83-4.13-24.6-8.55-6.76-4.42-12.57-10.59-15.99-17.97-3.42-7.38-5.46-17.83-4.53-26.31.94-8.48 4.46-18.59 10.16-24.57 5.7-5.99 20.35-9.36 24.04-11.35 3.69-1.99-1.94-.99-1.92-.6" stroke="#1e1e1e" stroke-width="2" fill="none" stroke-linecap="round"/><text x="25.083" y="24.528" font-family="DejaVu Sans Mono, monospace" font-size="28" fill="#1e1e1e" text-anchor="middle" style="white-space:pre" dominant-baseline="alphabetic" transform="translate(1292.828 302.248)">Pod</text></svg>
