<svg xmlns="http://www.w3.org/2000/svg" width="729.893" height="637.473" filter="invert(93%) hue-rotate(180deg)"><g stroke-linecap="round"><path d="M92.92 27.954c8.37 3.26 17.58 11.64 22.72 19.52 5.14 7.87 7.89 18.23 8.11 27.75.23 9.51-2.26 20.78-6.77 29.32-4.5 8.54-12.49 17.1-20.25 21.93-7.77 4.82-17.17 6.79-26.33 7.01-9.16.22-20.18-1.38-28.62-5.69-8.43-4.31-16.72-12.46-21.99-20.15-5.26-7.7-9.1-16.91-9.6-26.02-.49-9.1 2.21-20.09 6.63-28.63s12.13-17.37 19.88-22.62c7.75-5.26 15.47-9.61 26.61-8.93 11.14.68 32.29 9.37 40.24 13.03 7.95 3.65 8.02 8.08 7.46 8.91m-40.29-20.22c8.88-.28 18.71 4.02 26.26 8.85 7.55 4.83 14.49 12.1 19.03 20.12 4.53 8.03 8.4 18.52 8.16 28.02-.25 9.5-4.26 21.13-9.62 29-5.37 7.87-14.23 14.19-22.59 18.24-8.35 4.06-18.06 6.41-27.54 6.08-9.47-.34-21.31-3.37-29.31-8.08-8-4.72-14.43-11.8-18.69-20.21-4.27-8.4-7.33-20.77-6.91-30.21.43-9.43 4.4-18.59 9.47-26.39 5.06-7.8 12.65-15.89 20.94-20.41 8.29-4.53 23.79-5.92 28.8-6.74 5.01-.82 1.18.89 1.27 1.8" stroke-width="0" fill="#69db7c"/><path d="M53.29 24.414c8.58-3.18 19.3-3.03 28.37-.75 9.06 2.28 19.45 7.85 26.02 14.43 6.56 6.59 10.92 15.77 13.38 25.07 2.47 9.3 3.69 21.51 1.4 30.74-2.3 9.22-8.35 18.07-15.17 24.6-6.82 6.54-16.45 12.14-25.76 14.6-9.32 2.46-21.11 2.73-30.14.18-9.04-2.54-17.61-8.64-24.07-15.43-6.46-6.79-12.05-16.29-14.7-25.33-2.65-9.03-3.49-19.8-1.19-28.89 2.3-9.09 6.87-18.72 15.01-25.63 8.13-6.92 27-13.28 33.78-15.85 6.78-2.56 6.78-.64 6.88.45m22.93 5.72c8.65 3.05 18.24 9.92 23.63 17.48 5.39 7.56 8.06 18.2 8.73 27.85.67 9.65-.81 21.76-4.72 30.06-3.91 8.29-11.09 14.4-18.73 19.73-7.65 5.33-17.61 11.41-27.13 12.24-9.51.83-21.51-3.17-29.97-7.27-8.46-4.1-15.3-9.67-20.78-17.32-5.47-7.65-10.98-18.92-12.05-28.59-1.07-9.66 1.18-21.02 5.65-29.42 4.47-8.41 13.26-15.87 21.15-21.01 7.9-5.14 16.85-9.22 26.23-9.84 9.38-.63 25.15 4.89 30.07 6.1 4.93 1.2.16.15-.52 1.12" stroke="#1e1e1e" fill="none"/></g><text x="34.74" font-family="DejaVu Sans Mono, monospace" font-size="20" fill="#1e1e1e" text-anchor="middle" style="white-space:pre" dominant-baseline="text-before-edge" transform="translate(32.437 65.729)">Client 1</text><g stroke-linecap="round"><path d="M357.203 145.658c-1.24 79.96-5.4 400.12-6.83 480.41m5.61-478.35c-1.4 80.19-5.24 400.11-6.07 479.75M341.633 603.888c1.39 10.67 5.91 16.84 8.28 23.58m-8.28-23.58c3.9 8.7 7.29 17.71 8.28 23.58" stroke="#e03131" stroke-width="2" fill="none"/><path d="M358.733 604.078c-5.24 10.67-7.35 16.76-8.82 23.39m8.82-23.39c-2.75 8.59-6 17.53-8.82 23.39" stroke="#e03131" stroke-width="2" fill="none"/></g><g stroke-linecap="round"><path d="M682.869 26.151c8.82 2.59 17.31 9.42 23.38 16.71 6.07 7.28 11.14 18.06 13.04 27.02 1.9 8.96 1.13 18.25-1.65 26.72-2.78 8.47-8.37 17.44-15.04 24.09-6.67 6.65-15.73 12.89-24.97 15.82-9.24 2.93-20.84 3.22-30.47 1.77-9.62-1.46-19.54-5.18-27.29-10.49-7.74-5.31-14.86-12.98-19.18-21.37-4.33-8.39-7.3-19.71-6.76-28.97.55-9.27 5.12-18.82 10.03-26.62 4.91-7.8 11.22-15.31 19.43-20.19 8.2-4.89 19.39-8.7 29.8-9.1 10.4-.41 26.62 5.19 32.61 6.65 6 1.46 3.99 1.31 3.37 2.1m-28.31-8.73c9-.32 19.64 2.96 27.76 8.03 8.12 5.07 15.92 14.56 20.94 22.39 5.02 7.82 8.36 15.78 9.18 24.58.82 8.8-.41 19.83-4.24 28.22-3.82 8.4-11.15 16.62-18.68 22.18-7.53 5.55-17.07 9.47-26.49 11.15-9.43 1.69-20.74 1.41-30.08-1.05-9.35-2.46-19.08-7.21-25.97-13.68-6.89-6.48-12.4-16.09-15.38-25.18-2.98-9.09-4.34-20.56-2.51-29.36 1.83-8.79 7.45-16.4 13.47-23.41 6.03-7.01 13.78-14.57 22.69-18.65 8.91-4.07 25.77-5.41 30.78-5.78 5.01-.38-.5 2.39-.71 3.55" stroke-width="0" fill="#4dabf7"/><path d="M674.499 23.671c9.26 1.47 18.34 8.55 25.32 14.62 6.97 6.08 13.29 13.24 16.52 21.82 3.24 8.59 4.32 20.49 2.9 29.67-1.41 9.18-5.59 18.06-11.41 25.42-5.83 7.35-15.02 14.51-23.54 18.7-8.51 4.2-17.93 6.81-27.56 6.45-9.63-.36-21.48-3.93-30.2-8.6-8.72-4.67-16.96-11.77-22.13-19.42-5.17-7.66-8.13-17.51-8.9-26.5-.76-8.98.87-19.14 4.34-27.41 3.47-8.28 9.36-16.43 16.5-22.23 7.14-5.8 15.93-10.73 26.35-12.58 10.41-1.86 29.08.62 36.11 1.44 7.04.82 6.27 2.48 6.11 3.46m.47-.69c8.17 3.51 16.66 11.98 22.43 19.91 5.77 7.92 10.7 18.5 12.19 27.63 1.48 9.13.29 18.93-3.27 27.16-3.57 8.23-10.62 16.37-18.13 22.24-7.5 5.86-17.47 10.79-26.92 12.96-9.44 2.17-20.58 2.41-29.73.03-9.16-2.37-17.97-8.18-25.19-14.27-7.21-6.09-14.6-13.88-18.09-22.29-3.49-8.42-3.81-19.17-2.83-28.18.98-9.01 3.54-18.42 8.73-25.9 5.18-7.49 13.5-14.67 22.36-19.02 8.85-4.35 21.02-7.12 30.78-7.09 9.76.03 22.81 5.62 27.77 7.28 4.96 1.66 2.42 1.94 2.01 2.71" stroke="#1e1e1e" fill="none"/></g><text x="39.156" font-family="DejaVu Sans Mono, monospace" font-size="20" fill="#1e1e1e" text-anchor="middle" style="white-space:pre" dominant-baseline="text-before-edge" transform="translate(618.3 68.08)">Client 2</text><g stroke-linecap="round"><path d="M658.143 140.465c-.52 80.91-2.56 405.84-2.87 486.84m4.61-487.99c-.08 81.11-1.67 405.03-2.4 486.47" stroke="#1971c2" stroke-width="2" fill="none"/><path d="M649.093 602.235c1.97 4.28 6.27 11.73 8.39 23.55m-8.39-23.55c2.34 8.1 6.28 14.66 8.39 23.55M666.193 602.355c-2.23 4.12-2.13 11.55-8.71 23.43m8.71-23.43c-3.22 8.03-4.85 14.55-8.71 23.43" stroke="#1971c2" stroke-width="2" fill="none"/></g><g stroke-linecap="round"><path d="M66.237 135.643c-1.37 81.6-6.86 407.91-8.15 489.49m7.24-487.17c-1.07 81.86-3.6 407.29-4.89 488.69" stroke="#2f9e44" stroke-width="2" fill="none"/><path d="M52.157 603.063c2.17 8.06 6.32 18.02 8.28 23.59m-8.28-23.59c2.94 6.39 5.03 14.54 8.28 23.59M69.257 603.253c-4.55 8.14-7.12 18.02-8.82 23.4m8.82-23.4c-2.08 6.43-4.99 14.52-8.82 23.4" stroke="#2f9e44" stroke-width="2" fill="none"/></g><g stroke-linecap="round"><path d="M374.891 27.25c10.97 12.25 23.67 20.57 35.06 34.5 20.35 17.48 20.99 19.36 0 34.5-12.71 12.44-21.25 17.04-35.06 33.43-16.96 19.37-21.97 15.78-37 0-10.08-8.29-13.57-12.27-37-33.43-16.23-17.26-17.46-13.95 0-34.5 11.2-4.84 17.75-17.08 37-34.5 19.44-14.81 20.62-15.22 37 0" stroke-width="0" fill="#f783ac"/><path d="M374.891 27.25c9.72 12.37 24.17 22.24 35.06 34.5m-35.06-34.5c9.46 9.34 18.93 16.68 35.06 34.5m0 0c19.68 16.87 20.45 18 0 34.5m0-34.5c19.24 19.37 16.97 16.93 0 34.5m0 0c-12.29 11.39-21.24 19.49-35.06 33.43m35.06-33.43c-13.33 13.28-25.75 25-35.06 33.43m0 0c-19.71 19.24-19.41 19.11-37 0m37 0c-16.83 16.58-17.02 16.96-37 0m0 0c-12.19-10.46-23.93-20.75-37-33.43m37 33.43c-15.63-13.24-30.15-26.18-37-33.43m0 0c-17.72-15.36-16.52-17.14 0-34.5m0 34.5c-16.23-18.11-19.09-16.83 0-34.5m0 0c13.47-15.01 27.52-27.94 37-34.5m-37 34.5c12.16-10.14 22.55-20.76 37-34.5m0 0c17.54-18.7 17.64-17.09 37 0m-37 0c18.25-14.97 16.57-18.69 37 0" stroke="#1e1e1e" stroke-width="2" fill="none"/></g><text x="30.854" font-family="DejaVu Sans Mono, monospace" font-size="20" fill="#1e1e1e" text-anchor="middle" style="white-space:pre" dominant-baseline="text-before-edge" transform="translate(324.553 53.234)">Server</text><text x="30.854" y="25" font-family="DejaVu Sans Mono, monospace" font-size="20" fill="#1e1e1e" text-anchor="middle" style="white-space:pre" dominant-baseline="text-before-edge" transform="translate(324.553 53.234)">A</text><g mask="url(#mask-7hATluK2x4ER5uNubF2sd)" stroke-linecap="round"><path d="M65.28 178.424c47.03 8.31 233.97 42.64 280.96 50.93M64.1 177.104c47.43 8.49 237.18 45.2 284.22 53.83" stroke="#1e1e1e" stroke-width="2" fill="none"/><path d="M323.65 234.974c5.2-3.09 12.21-2.42 24.67-4.04m-24.67 4.04c5.12-.36 10.81-1.65 24.67-4.04M326.83 218.164c4.49 1.05 10.72 5.84 21.49 12.77m-21.49-12.77c4.61 3.1 9.65 5.27 21.49 12.77" stroke="#1e1e1e" stroke-width="2" fill="none"/></g><mask id="mask-7hATluK2x4ER5uNubF2sd"><path fill="#fff" d="M0 0h447.435v329.283H0z"/><path d="M188.16 191.603h35.875v25H188.16z"/></mask><text x="17.938" font-family="DejaVu Sans Mono, monospace" font-size="20" fill="#1e1e1e" text-anchor="middle" style="white-space:pre" dominant-baseline="text-before-edge" transform="translate(188.16 191.603)"> v1 </text><g mask="url(#mask-kwkpGT_b4QO3sNSwd0ogc)" stroke-linecap="round"><path d="M656.515 307.882c-49.18 19.03-245.72 96.54-295.18 115.81m294-113.81c-49.33 18.61-245.75 92.66-294.62 111.81M379.595 405.302c-8.29 6.69-12.33 9.56-18.88 16.39m18.88-16.39c-5.28 4.95-11.55 10.25-18.88 16.39" stroke="#1e1e1e" stroke-width="2" fill="none"/><path d="M385.715 421.272c-10.42 1.3-16.54-1.23-25 .42m25-.42c-7.12.11-15.24.6-25 .42" stroke="#1e1e1e" stroke-width="2" fill="none"/></g><mask id="mask-kwkpGT_b4QO3sNSwd0ogc"><path fill="#fff" d="M0 0h1051.286v523.454H0z"/><path d="M485.994 353.753h44.708v25h-44.708z"/></mask><text x="22.354" font-family="DejaVu Sans Mono, monospace" font-size="20" fill="#1e1e1e" text-anchor="middle" style="white-space:pre" dominant-baseline="text-before-edge" transform="translate(485.994 353.753)"> v2 </text><text font-family="DejaVu Sans Mono, monospace" font-size="20" fill="#1e1e1e" style="white-space:pre" dominant-baseline="text-before-edge" transform="translate(363.411 215.402)">v1</text><g mask="url(#mask-RZTgpqauKPM0vw6AdtMf-)" stroke-linecap="round"><path d="M350.073 307.571c-47.54 8.71-238.2 43.77-285.58 52.33m284.07-53.56c-47.7 8.38-238.06 42.81-285.23 51.78" stroke="#1e1e1e" stroke-width="2" fill="none"/><path d="M84.883 345.441c-6.29 2.67-10.34 8.23-21.55 12.68m21.55-12.68c-5.14 4.01-11.33 6.53-21.55 12.68M87.993 362.261c-7.08-1.78-11.95-.66-24.66-4.14m24.66 4.14c-5.98-.63-13.03-2.76-24.66-4.14" stroke="#1e1e1e" stroke-width="2" fill="none"/></g><mask id="mask-RZTgpqauKPM0vw6AdtMf-"><path fill="#fff" d="M0 0h735.454v459.262H0z"/><path d="M189.595 321.087h35.875v25h-35.875z"/></mask><text x="17.938" font-family="DejaVu Sans Mono, monospace" font-size="20" fill="#1e1e1e" text-anchor="middle" style="white-space:pre" dominant-baseline="text-before-edge" transform="translate(189.595 321.087)"> v1 </text><text font-family="DejaVu Sans Mono, monospace" font-size="20" fill="#1e1e1e" style="white-space:pre" dominant-baseline="text-before-edge" transform="translate(361.046 441.397)">v1 or v2?</text><g mask="url(#mask-Fcf1J2yVog-q6LOUTUsNJ)" stroke-linecap="round"><path d="M63.232 452.966c46.26 17.37 231.18 86.65 277.79 104.2m-275.93-104.72c46.67 17.44 231.97 88.69 278.24 105.99M318.332 558.086c8.37-1.05 12.52 2.2 25 .35m-25-.35c7.76.98 17.71 1.31 25 .35" stroke="#1e1e1e" stroke-width="2" fill="none"/><path d="M324.402 542.096c6.88 3.2 9.4 10.72 18.93 16.34m-18.93-16.34c5.51 6.5 13.36 12.38 18.93 16.34" stroke="#1e1e1e" stroke-width="2" fill="none"/></g><mask id="mask-Fcf1J2yVog-q6LOUTUsNJ"><path fill="#fff" d="M0 0h441.791v657.677H0z"/><path d="M180.805 492.316h44.083v25h-44.083z"/></mask><text x="22.042" font-family="DejaVu Sans Mono, monospace" font-size="20" fill="#1e1e1e" text-anchor="middle" style="white-space:pre" dominant-baseline="text-before-edge" transform="translate(180.805 492.316)"> v3 </text><text font-family="DejaVu Sans Mono, monospace" font-size="20" fill="#1e1e1e" style="white-space:pre" dominant-baseline="text-before-edge" transform="translate(359.687 566.973)">v2 or v3?</text></svg>
